<svg xmlns="http://www.w3.org/2000/svg" xmlns:xlink="http://www.w3.org/1999/xlink" width="860" zoomAndPan="magnify" viewBox="0 0 645 609.000004" height="812" preserveAspectRatio="xMidYMid meet" version="1.2"><defs><clipPath id="640ec1e03a"><path d="M 0.527344 0 L 644.46875 0 L 644.46875 608 L 0.527344 608 Z M 0.527344 0 "/></clipPath></defs><g id="8bf1bc9a1a"><g clip-rule="nonzero" clip-path="url(#640ec1e03a)"><path style=" stroke:none;fill-rule:nonzero;fill:#ffffff;fill-opacity:1;" d="M 0.527344 0 L 644.472656 0 L 644.472656 608 L 0.527344 608 Z M 0.527344 0 "/><path style=" stroke:none;fill-rule:nonzero;fill:#ffffff;fill-opacity:1;" d="M 0.527344 0 L 644.472656 0 L 644.472656 608 L 0.527344 608 Z M 0.527344 0 "/></g><g style="fill:#000000;fill-opacity:1;"><g transform="translate(80.665181, 334.540339)"><path style="stroke:none" d="M 22.125 -42.859375 C 25.195312 -42.859375 27.820312 -42.296875 30 -41.171875 C 32.175781 -40.046875 33.820312 -38.472656 34.9375 -36.453125 C 36.050781 -34.429688 36.609375 -32.082031 36.609375 -29.40625 C 36.609375 -26.726562 36.050781 -24.378906 34.9375 -22.359375 C 33.820312 -20.347656 32.175781 -18.78125 30 -17.65625 C 27.820312 -16.53125 25.195312 -15.96875 22.125 -15.96875 L 14.046875 -15.96875 L 14.046875 0 L 5.5625 0 L 5.5625 -42.859375 Z M 21.015625 -22.6875 C 25.722656 -22.6875 28.078125 -24.925781 28.078125 -29.40625 C 28.078125 -33.894531 25.722656 -36.140625 21.015625 -36.140625 L 14.046875 -36.140625 L 14.046875 -22.6875 Z M 21.015625 -22.6875 "/></g></g><g style="fill:#000000;fill-opacity:1;"><g transform="translate(118.122143, 334.540339)"><path style="stroke:none" d="M 18.796875 0.609375 C 15.628906 0.609375 12.847656 -0.0351562 10.453125 -1.328125 C 8.054688 -2.628906 6.195312 -4.535156 4.875 -7.046875 C 3.5625 -9.554688 2.90625 -12.59375 2.90625 -16.15625 C 2.90625 -19.707031 3.5625 -22.742188 4.875 -25.265625 C 6.195312 -27.785156 8.054688 -29.695312 10.453125 -31 C 12.847656 -32.300781 15.628906 -32.953125 18.796875 -32.953125 C 21.953125 -32.953125 24.726562 -32.300781 27.125 -31 C 29.519531 -29.695312 31.378906 -27.785156 32.703125 -25.265625 C 34.035156 -22.742188 34.703125 -19.707031 34.703125 -16.15625 C 34.703125 -12.59375 34.035156 -9.554688 32.703125 -7.046875 C 31.378906 -4.535156 29.519531 -2.628906 27.125 -1.328125 C 24.726562 -0.0351562 21.953125 0.609375 18.796875 0.609375 Z M 18.796875 -6.265625 C 23.816406 -6.265625 26.328125 -9.5625 26.328125 -16.15625 C 26.328125 -19.570312 25.679688 -22.078125 24.390625 -23.671875 C 23.097656 -25.265625 21.234375 -26.0625 18.796875 -26.0625 C 13.765625 -26.0625 11.25 -22.757812 11.25 -16.15625 C 11.25 -9.5625 13.765625 -6.265625 18.796875 -6.265625 Z M 18.796875 -6.265625 "/></g><g transform="translate(155.696341, 334.540339)"><path style="stroke:none" d="M 22.3125 -7.703125 L 24.421875 -1.703125 C 23.535156 -0.972656 22.425781 -0.40625 21.09375 0 C 19.769531 0.40625 18.269531 0.609375 16.59375 0.609375 C 13.09375 0.609375 10.429688 -0.335938 8.609375 -2.234375 C 6.796875 -4.140625 5.890625 -6.910156 5.890625 -10.546875 L 5.890625 -25.90625 L 0.96875 -25.90625 L 0.96875 -32.359375 L 5.890625 -32.359375 L 5.890625 -38.65625 L 14.015625 -39.984375 L 14.015625 -32.359375 L 23.1875 -32.359375 L 23.1875 -25.90625 L 14.015625 -25.90625 L 14.015625 -11.140625 C 14.015625 -9.535156 14.34375 -8.363281 15 -7.625 C 15.664062 -6.894531 16.632812 -6.53125 17.90625 -6.53125 C 19.351562 -6.53125 20.613281 -6.921875 21.6875 -7.703125 Z M 22.3125 -7.703125 "/></g><g transform="translate(180.814194, 334.540339)"><path style="stroke:none" d="M 4.65625 0 L 4.65625 -32.328125 L 12.546875 -32.328125 L 12.546875 -27.53125 L 13.15625 -27.40625 C 13.9375 -29.207031 14.960938 -30.523438 16.234375 -31.359375 C 17.503906 -32.203125 19.050781 -32.625 20.875 -32.625 C 22.707031 -32.625 24.101562 -32.3125 25.0625 -31.6875 L 23.6875 -24.6875 L 23.0625 -24.5625 C 22.539062 -24.78125 22.035156 -24.9375 21.546875 -25.03125 C 21.054688 -25.125 20.457031 -25.171875 19.75 -25.171875 C 17.488281 -25.171875 15.757812 -24.375 14.5625 -22.78125 C 13.375 -21.195312 12.78125 -18.644531 12.78125 -15.125 L 12.78125 0 Z M 4.65625 0 "/></g></g><g style="fill:#000000;fill-opacity:1;"><g transform="translate(205.316558, 334.540339)"><path style="stroke:none" d="M 31.953125 -14.328125 L 11.171875 -14.328125 C 11.398438 -11.515625 12.195312 -9.46875 13.5625 -8.1875 C 14.9375 -6.90625 16.804688 -6.265625 19.171875 -6.265625 C 21.023438 -6.265625 22.523438 -6.613281 23.671875 -7.3125 C 24.828125 -8.007812 25.757812 -9.0625 26.46875 -10.46875 L 27.078125 -10.46875 L 32.484375 -7 C 31.421875 -4.738281 29.820312 -2.90625 27.6875 -1.5 C 25.5625 -0.09375 22.722656 0.609375 19.171875 0.609375 C 15.828125 0.609375 12.9375 -0.0195312 10.5 -1.28125 C 8.070312 -2.550781 6.195312 -4.441406 4.875 -6.953125 C 3.5625 -9.472656 2.90625 -12.539062 2.90625 -16.15625 C 2.90625 -19.820312 3.597656 -22.914062 4.984375 -25.4375 C 6.367188 -27.957031 8.242188 -29.835938 10.609375 -31.078125 C 12.972656 -32.328125 15.628906 -32.953125 18.578125 -32.953125 C 23.148438 -32.953125 26.648438 -31.738281 29.078125 -29.3125 C 31.515625 -26.882812 32.734375 -23.328125 32.734375 -18.640625 C 32.734375 -16.941406 32.675781 -15.625 32.5625 -14.6875 Z M 24.96875 -19.578125 C 24.894531 -22.046875 24.320312 -23.835938 23.25 -24.953125 C 22.1875 -26.078125 20.628906 -26.640625 18.578125 -26.640625 C 14.472656 -26.640625 12.0625 -24.285156 11.34375 -19.578125 Z M 24.96875 -19.578125 "/></g><g transform="translate(240.458105, 334.540339)"><path style="stroke:none" d="M 22.59375 0.609375 C 18.476562 0.609375 15.410156 -0.929688 13.390625 -4.015625 L 12.78125 -3.90625 L 12.78125 0 L 4.65625 0 L 4.65625 -45.3125 L 12.78125 -45.3125 L 12.78125 -28.515625 L 13.390625 -28.40625 C 14.503906 -29.945312 15.816406 -31.085938 17.328125 -31.828125 C 18.847656 -32.578125 20.664062 -32.953125 22.78125 -32.953125 C 25.394531 -32.953125 27.675781 -32.332031 29.625 -31.09375 C 31.582031 -29.863281 33.109375 -27.992188 34.203125 -25.484375 C 35.296875 -22.972656 35.84375 -19.863281 35.84375 -16.15625 C 35.84375 -12.476562 35.273438 -9.382812 34.140625 -6.875 C 33.015625 -4.363281 31.453125 -2.488281 29.453125 -1.25 C 27.460938 -0.0078125 25.175781 0.609375 22.59375 0.609375 Z M 20.140625 -6.265625 C 22.523438 -6.265625 24.34375 -7.0625 25.59375 -8.65625 C 26.84375 -10.25 27.46875 -12.75 27.46875 -16.15625 C 27.46875 -19.570312 26.84375 -22.078125 25.59375 -23.671875 C 24.34375 -25.265625 22.523438 -26.0625 20.140625 -26.0625 C 17.847656 -26.0625 16.03125 -25.238281 14.6875 -23.59375 C 13.351562 -21.957031 12.6875 -19.476562 12.6875 -16.15625 C 12.6875 -12.832031 13.351562 -10.351562 14.6875 -8.71875 C 16.03125 -7.082031 17.847656 -6.265625 20.140625 -6.265625 Z M 20.140625 -6.265625 "/></g><g transform="translate(279.175356, 334.540339)"><path style="stroke:none" d="M 4.65625 0 L 4.65625 -32.328125 L 12.453125 -32.328125 L 12.453125 -27.578125 L 13.078125 -27.4375 C 15.085938 -31.113281 18.347656 -32.953125 22.859375 -32.953125 C 26.597656 -32.953125 29.335938 -31.929688 31.078125 -29.890625 C 32.828125 -27.859375 33.703125 -24.898438 33.703125 -21.015625 L 33.703125 0 L 25.59375 0 L 25.59375 -20.015625 C 25.59375 -22.171875 25.160156 -23.722656 24.296875 -24.671875 C 23.441406 -25.617188 22.066406 -26.09375 20.171875 -26.09375 C 17.835938 -26.09375 16.019531 -25.335938 14.71875 -23.828125 C 13.425781 -22.328125 12.78125 -19.960938 12.78125 -16.734375 L 12.78125 0 Z M 4.65625 0 "/></g><g transform="translate(317.042646, 334.540339)"><path style="stroke:none" d="M 12.609375 0.609375 C 10.535156 0.609375 8.734375 0.226562 7.203125 -0.53125 C 5.679688 -1.289062 4.507812 -2.40625 3.6875 -3.875 C 2.875 -5.351562 2.46875 -7.128906 2.46875 -9.203125 C 2.46875 -11.117188 2.875 -12.722656 3.6875 -14.015625 C 4.507812 -15.316406 5.78125 -16.382812 7.5 -17.21875 C 9.21875 -18.050781 11.46875 -18.691406 14.25 -19.140625 C 16.175781 -19.453125 17.644531 -19.789062 18.65625 -20.15625 C 19.664062 -20.53125 20.34375 -20.953125 20.6875 -21.421875 C 21.039062 -21.890625 21.21875 -22.488281 21.21875 -23.21875 C 21.21875 -24.25 20.851562 -25.035156 20.125 -25.578125 C 19.40625 -26.128906 18.207031 -26.40625 16.53125 -26.40625 C 14.726562 -26.40625 13.015625 -26.003906 11.390625 -25.203125 C 9.773438 -24.398438 8.375 -23.347656 7.1875 -22.046875 L 6.59375 -22.046875 L 3.1875 -27.171875 C 4.832031 -28.984375 6.835938 -30.398438 9.203125 -31.421875 C 11.566406 -32.441406 14.144531 -32.953125 16.9375 -32.953125 C 21.21875 -32.953125 24.316406 -32.039062 26.234375 -30.21875 C 28.148438 -28.40625 29.109375 -25.828125 29.109375 -22.484375 L 29.109375 -8.4375 C 29.109375 -6.988281 29.742188 -6.265625 31.015625 -6.265625 C 31.503906 -6.265625 31.984375 -6.351562 32.453125 -6.53125 L 32.859375 -6.421875 L 33.4375 -0.765625 C 32.988281 -0.472656 32.363281 -0.234375 31.5625 -0.046875 C 30.769531 0.140625 29.894531 0.234375 28.9375 0.234375 C 27 0.234375 25.488281 -0.132812 24.40625 -0.875 C 23.320312 -1.625 22.546875 -2.789062 22.078125 -4.375 L 21.453125 -4.421875 C 19.867188 -1.066406 16.921875 0.609375 12.609375 0.609375 Z M 15.1875 -5.453125 C 17.0625 -5.453125 18.5625 -6.082031 19.6875 -7.34375 C 20.8125 -8.601562 21.375 -10.359375 21.375 -12.609375 L 21.375 -15.890625 L 20.8125 -16 C 20.320312 -15.613281 19.679688 -15.285156 18.890625 -15.015625 C 18.097656 -14.753906 16.960938 -14.5 15.484375 -14.25 C 13.722656 -13.957031 12.453125 -13.453125 11.671875 -12.734375 C 10.898438 -12.023438 10.515625 -11.015625 10.515625 -9.703125 C 10.515625 -8.316406 10.925781 -7.257812 11.75 -6.53125 C 12.570312 -5.8125 13.71875 -5.453125 15.1875 -5.453125 Z M 15.1875 -5.453125 "/></g><g transform="translate(351.129067, 334.540339)"><path style="stroke:none" d=""/></g><g transform="translate(365.285337, 334.540339)"><path style="stroke:none" d="M 8.703125 -36.203125 C 7.234375 -36.203125 6.039062 -36.644531 5.125 -37.53125 C 4.207031 -38.425781 3.75 -39.578125 3.75 -40.984375 C 3.75 -42.367188 4.207031 -43.503906 5.125 -44.390625 C 6.039062 -45.285156 7.234375 -45.734375 8.703125 -45.734375 C 9.679688 -45.734375 10.550781 -45.523438 11.3125 -45.109375 C 12.070312 -44.703125 12.660156 -44.140625 13.078125 -43.421875 C 13.503906 -42.710938 13.71875 -41.898438 13.71875 -40.984375 C 13.71875 -40.054688 13.503906 -39.234375 13.078125 -38.515625 C 12.660156 -37.796875 12.070312 -37.226562 11.3125 -36.8125 C 10.550781 -36.40625 9.679688 -36.203125 8.703125 -36.203125 Z M 2.515625 13.71875 C 0.128906 13.71875 -1.78125 13.40625 -3.21875 12.78125 L -2.234375 6.390625 L -1.671875 6.21875 C -0.890625 6.582031 0.0234375 6.765625 1.078125 6.765625 C 3.460938 6.765625 4.65625 5.359375 4.65625 2.546875 L 4.65625 -32.328125 L 12.78125 -32.328125 L 12.78125 2.3125 C 12.78125 6.082031 11.910156 8.925781 10.171875 10.84375 C 8.429688 12.757812 5.878906 13.71875 2.515625 13.71875 Z M 2.515625 13.71875 "/></g><g transform="translate(382.69491, 334.540339)"><path style="stroke:none" d="M 31.953125 -14.328125 L 11.171875 -14.328125 C 11.398438 -11.515625 12.195312 -9.46875 13.5625 -8.1875 C 14.9375 -6.90625 16.804688 -6.265625 19.171875 -6.265625 C 21.023438 -6.265625 22.523438 -6.613281 23.671875 -7.3125 C 24.828125 -8.007812 25.757812 -9.0625 26.46875 -10.46875 L 27.078125 -10.46875 L 32.484375 -7 C 31.421875 -4.738281 29.820312 -2.90625 27.6875 -1.5 C 25.5625 -0.09375 22.722656 0.609375 19.171875 0.609375 C 15.828125 0.609375 12.9375 -0.0195312 10.5 -1.28125 C 8.070312 -2.550781 6.195312 -4.441406 4.875 -6.953125 C 3.5625 -9.472656 2.90625 -12.539062 2.90625 -16.15625 C 2.90625 -19.820312 3.597656 -22.914062 4.984375 -25.4375 C 6.367188 -27.957031 8.242188 -29.835938 10.609375 -31.078125 C 12.972656 -32.328125 15.628906 -32.953125 18.578125 -32.953125 C 23.148438 -32.953125 26.648438 -31.738281 29.078125 -29.3125 C 31.515625 -26.882812 32.734375 -23.328125 32.734375 -18.640625 C 32.734375 -16.941406 32.675781 -15.625 32.5625 -14.6875 Z M 24.96875 -19.578125 C 24.894531 -22.046875 24.320312 -23.835938 23.25 -24.953125 C 22.1875 -26.078125 20.628906 -26.640625 18.578125 -26.640625 C 14.472656 -26.640625 12.0625 -24.285156 11.34375 -19.578125 Z M 24.96875 -19.578125 "/></g><g transform="translate(417.836458, 334.540339)"><path style="stroke:none" d=""/></g><g transform="translate(431.992727, 334.540339)"><path style="stroke:none" d="M 15.125 0.609375 C 12.914062 0.609375 10.890625 0.351562 9.046875 -0.15625 C 7.210938 -0.675781 5.644531 -1.390625 4.34375 -2.296875 C 3.050781 -3.203125 2.09375 -4.242188 1.46875 -5.421875 L 5.984375 -10.28125 L 6.59375 -10.28125 C 7.664062 -8.84375 8.9375 -7.757812 10.40625 -7.03125 C 11.875 -6.3125 13.46875 -5.953125 15.1875 -5.953125 C 16.769531 -5.953125 17.960938 -6.234375 18.765625 -6.796875 C 19.566406 -7.367188 19.96875 -8.179688 19.96875 -9.234375 C 19.96875 -10.054688 19.675781 -10.742188 19.09375 -11.296875 C 18.519531 -11.859375 17.585938 -12.296875 16.296875 -12.609375 L 12.015625 -13.625 C 8.804688 -14.382812 6.460938 -15.550781 4.984375 -17.125 C 3.515625 -18.707031 2.78125 -20.707031 2.78125 -23.125 C 2.78125 -25.132812 3.289062 -26.882812 4.3125 -28.375 C 5.34375 -29.863281 6.789062 -31 8.65625 -31.78125 C 10.53125 -32.5625 12.707031 -32.953125 15.1875 -32.953125 C 18.09375 -32.953125 20.503906 -32.53125 22.421875 -31.6875 C 24.335938 -30.84375 25.832031 -29.71875 26.90625 -28.3125 L 22.578125 -23.625 L 21.984375 -23.625 C 21.085938 -24.644531 20.078125 -25.390625 18.953125 -25.859375 C 17.828125 -26.328125 16.570312 -26.5625 15.1875 -26.5625 C 11.976562 -26.5625 10.375 -25.5625 10.375 -23.5625 C 10.375 -22.726562 10.671875 -22.046875 11.265625 -21.515625 C 11.867188 -20.984375 12.921875 -20.550781 14.421875 -20.21875 L 18.40625 -19.34375 C 21.6875 -18.644531 24.082031 -17.515625 25.59375 -15.953125 C 27.113281 -14.398438 27.875 -12.316406 27.875 -9.703125 C 27.875 -7.648438 27.363281 -5.84375 26.34375 -4.28125 C 25.332031 -2.71875 23.867188 -1.507812 21.953125 -0.65625 C 20.035156 0.1875 17.757812 0.609375 15.125 0.609375 Z M 15.125 0.609375 "/></g><g transform="translate(461.800028, 334.540339)"><path style="stroke:none" d="M 13.421875 0.609375 C 10.515625 0.609375 8.289062 -0.175781 6.75 -1.75 C 5.21875 -3.320312 4.453125 -5.707031 4.453125 -8.90625 L 4.453125 -45.3125 L 12.578125 -45.3125 L 12.578125 -9.234375 C 12.578125 -7.253906 13.394531 -6.265625 15.03125 -6.265625 C 15.5 -6.265625 16 -6.34375 16.53125 -6.5 L 16.9375 -6.390625 L 17.671875 -0.140625 C 17.222656 0.0859375 16.625 0.269531 15.875 0.40625 C 15.132812 0.539062 14.316406 0.609375 13.421875 0.609375 Z M 13.421875 0.609375 "/></g><g transform="translate(480.381964, 334.540339)"><path style="stroke:none" d="M 8.703125 -36.203125 C 7.234375 -36.203125 6.039062 -36.644531 5.125 -37.53125 C 4.207031 -38.425781 3.75 -39.578125 3.75 -40.984375 C 3.75 -42.367188 4.207031 -43.503906 5.125 -44.390625 C 6.039062 -45.285156 7.234375 -45.734375 8.703125 -45.734375 C 9.679688 -45.734375 10.550781 -45.523438 11.3125 -45.109375 C 12.070312 -44.703125 12.660156 -44.140625 13.078125 -43.421875 C 13.503906 -42.710938 13.71875 -41.898438 13.71875 -40.984375 C 13.71875 -40.054688 13.503906 -39.234375 13.078125 -38.515625 C 12.660156 -37.796875 12.070312 -37.226562 11.3125 -36.8125 C 10.550781 -36.40625 9.679688 -36.203125 8.703125 -36.203125 Z M 4.65625 0 L 4.65625 -32.328125 L 12.78125 -32.328125 L 12.78125 0 Z M 4.65625 0 "/></g><g transform="translate(497.791538, 334.540339)"><path style="stroke:none" d="M 4.65625 0 L 4.65625 -45.3125 L 12.78125 -45.3125 L 12.78125 -20.171875 L 13.578125 -20.171875 L 22.921875 -32.328125 L 31.15625 -32.328125 L 31.15625 -31.65625 L 20.171875 -17.46875 L 32.390625 -0.734375 L 32.390625 0 L 23.828125 0 L 13.578125 -13.625 L 12.78125 -13.625 L 12.78125 0 Z M 4.65625 0 "/></g><g transform="translate(530.236653, 334.540339)"><path style="stroke:none" d="M 12.609375 0.609375 C 10.535156 0.609375 8.734375 0.226562 7.203125 -0.53125 C 5.679688 -1.289062 4.507812 -2.40625 3.6875 -3.875 C 2.875 -5.351562 2.46875 -7.128906 2.46875 -9.203125 C 2.46875 -11.117188 2.875 -12.722656 3.6875 -14.015625 C 4.507812 -15.316406 5.78125 -16.382812 7.5 -17.21875 C 9.21875 -18.050781 11.46875 -18.691406 14.25 -19.140625 C 16.175781 -19.453125 17.644531 -19.789062 18.65625 -20.15625 C 19.664062 -20.53125 20.34375 -20.953125 20.6875 -21.421875 C 21.039062 -21.890625 21.21875 -22.488281 21.21875 -23.21875 C 21.21875 -24.25 20.851562 -25.035156 20.125 -25.578125 C 19.40625 -26.128906 18.207031 -26.40625 16.53125 -26.40625 C 14.726562 -26.40625 13.015625 -26.003906 11.390625 -25.203125 C 9.773438 -24.398438 8.375 -23.347656 7.1875 -22.046875 L 6.59375 -22.046875 L 3.1875 -27.171875 C 4.832031 -28.984375 6.835938 -30.398438 9.203125 -31.421875 C 11.566406 -32.441406 14.144531 -32.953125 16.9375 -32.953125 C 21.21875 -32.953125 24.316406 -32.039062 26.234375 -30.21875 C 28.148438 -28.40625 29.109375 -25.828125 29.109375 -22.484375 L 29.109375 -8.4375 C 29.109375 -6.988281 29.742188 -6.265625 31.015625 -6.265625 C 31.503906 -6.265625 31.984375 -6.351562 32.453125 -6.53125 L 32.859375 -6.421875 L 33.4375 -0.765625 C 32.988281 -0.472656 32.363281 -0.234375 31.5625 -0.046875 C 30.769531 0.140625 29.894531 0.234375 28.9375 0.234375 C 27 0.234375 25.488281 -0.132812 24.40625 -0.875 C 23.320312 -1.625 22.546875 -2.789062 22.078125 -4.375 L 21.453125 -4.421875 C 19.867188 -1.066406 16.921875 0.609375 12.609375 0.609375 Z M 15.1875 -5.453125 C 17.0625 -5.453125 18.5625 -6.082031 19.6875 -7.34375 C 20.8125 -8.601562 21.375 -10.359375 21.375 -12.609375 L 21.375 -15.890625 L 20.8125 -16 C 20.320312 -15.613281 19.679688 -15.285156 18.890625 -15.015625 C 18.097656 -14.753906 16.960938 -14.5 15.484375 -14.25 C 13.722656 -13.957031 12.453125 -13.453125 11.671875 -12.734375 C 10.898438 -12.023438 10.515625 -11.015625 10.515625 -9.703125 C 10.515625 -8.316406 10.925781 -7.257812 11.75 -6.53125 C 12.570312 -5.8125 13.71875 -5.453125 15.1875 -5.453125 Z M 15.1875 -5.453125 "/></g></g></g></svg>