<svg width="30" height="34" viewBox="0 0 30 34" fill="none" xmlns="http://www.w3.org/2000/svg">
<path d="M26.679 5.36821C23.7593 2.24321 19.4655 0.333496 15 0.333496C10.5345 0.333496 6.24073 2.06961 3.32098 5.36821C0.91648 8.146 -0.28577 11.6182 0.0577302 15.0905C0.0577302 15.7848 0.22948 16.4793 0.40123 17.0002C1.94698 24.2918 9.8475 30.7155 13.2825 33.146C13.7977 33.4932 14.313 33.6668 15 33.6668C15.687 33.6668 16.2023 33.4932 16.7175 33.146C19.9808 30.7155 28.053 24.2918 29.5988 17.0002C29.7705 16.4793 29.7705 15.7848 29.9423 15.0905C30.2858 11.6182 29.0835 8.146 26.679 5.36821ZM15 20.2988C12.4237 20.2988 10.191 18.2155 10.191 15.4377C10.191 12.6599 12.252 10.5765 15 10.5765C17.748 10.5765 19.809 12.6599 19.809 15.4377C19.809 18.2155 17.5763 20.2988 15 20.2988Z" fill="white"/>
</svg>
