<svg width="40" height="40" viewBox="0 0 40 40" fill="none" xmlns="http://www.w3.org/2000/svg">
<g clip-path="url(#clip0_495_7971)">
<path d="M39.5717 30.3343C38.0827 27.5194 32.9119 24.4672 32.6843 24.3338C32.0199 23.9556 31.3265 23.7554 30.6777 23.7554C29.7129 23.7554 28.9232 24.1973 28.4449 25.0011C27.6886 25.9058 26.7505 26.9632 26.5229 27.1271C24.761 28.3225 23.3817 28.1868 21.8556 26.6607L13.3383 18.1427C11.8219 16.6262 11.6825 15.2299 12.8697 13.4777C13.0358 13.2485 14.0932 12.3097 14.9979 11.5526C15.5748 11.2093 15.9708 10.6991 16.1443 10.0733C16.3749 9.24051 16.2051 8.26094 15.6608 7.30658C15.5325 7.08709 12.4789 1.91561 9.66549 0.427342C9.14048 0.149266 8.54873 0.00244141 7.9555 0.00244141C6.97816 0.00244141 6.05865 0.383592 5.36754 1.07396L3.48552 2.95524C0.508988 5.93103 -0.568466 9.30428 0.281336 12.9808C0.990245 16.0449 3.05617 19.3054 6.42275 22.6712L17.3271 33.5755C21.5879 37.8364 25.6501 39.9972 29.4008 39.9972C29.4008 39.9972 29.4008 39.9972 29.4015 39.9972C32.16 39.9972 34.7317 38.8249 37.043 36.5135L38.9243 34.6322C40.0678 33.4895 40.3273 31.7617 39.5717 30.3343Z" fill="white"/>
</g>
<defs>
<clipPath id="clip0_495_7971">
<rect width="40" height="40" rx="10" fill="white"/>
</clipPath>
</defs>
</svg>
