<svg width="61" height="58" viewBox="0 0 61 58" fill="none" xmlns="http://www.w3.org/2000/svg">
<path d="M59.996 49.7359C59.996 49.7359 54.0177 40.2119 50.9683 35.0579C47.919 29.9038 45.5099 25.6984 43.2593 23.662C41.0087 21.6257 36.647 16.3452 33.2173 12.9302C28.0695 7.82044 22.7125 -0.204702 20.0308 0.00399006C19.2193 0.06723 18.0148 2.64109 19.2193 4.47505C20.0688 5.77147 21.7362 8.71845 22.5476 9.59749L27.3531 43.4435C27.3531 43.4435 30.1109 47.396 34.219 50.109C39.1005 53.3342 39.8486 53.233 42.1879 54.1121C43.4558 54.5864 44.4512 55.301 46.6067 57.4511C47.285 58.6274 50.8352 57.8495 54.5312 55.7247C58.2272 53.5872 60.6744 50.9121 59.996 49.7359Z" fill="#FFC5B3"/>
<path d="M7.99149 20.8162C7.99149 20.8162 2.36821 21.6509 0.726234 22.3402C-0.915738 23.0296 0.371213 26.0018 3.13531 26.084C5.8994 26.1663 10.1343 25.5465 10.1343 25.5465L7.99149 20.8162Z" fill="#FFC5B3"/>
<path d="M11.8459 27.0642C11.8459 27.0642 6.57764 28.816 5.31605 29.8151C3.88963 30.9471 4.77084 32.5534 8.4732 32.5534C10.9774 32.5534 14.1345 30.9788 14.1345 30.9788L11.8459 27.0642Z" fill="#FFC5B3"/>
<path d="M16.4488 32.054C16.4488 32.054 11.1806 33.8057 9.91897 34.8049C8.49255 35.9369 9.18357 37.5369 12.8859 37.5305C15.3901 37.5305 19.0354 35.4879 19.0354 35.4879L16.4488 32.054Z" fill="#FFC5B3"/>
<path d="M33.1599 41.2488C33.1599 41.2488 34.8209 44.082 37.1856 44.7397C39.544 45.391 43.3478 44.7397 43.3478 44.7397L40.1969 36.4995L33.1599 41.2488Z" fill="#FFA08D"/>
<path d="M23.625 47.3327C22.3444 47.3327 21.1652 46.7003 20.4552 45.6379L1.45519 16.9839C0.846584 16.0606 0.643715 14.9602 0.897301 13.8851C1.15089 12.8101 1.81655 11.9121 2.78018 11.3556L17.0127 3.14701C17.5896 2.81184 18.249 2.63477 18.9083 2.63477C20.1889 2.63477 21.3681 3.26716 22.0781 4.3296L41.0844 32.9773C41.693 33.9006 41.8959 35.001 41.6423 36.076C41.3887 37.1511 40.7231 38.0491 39.7594 38.6056L25.5269 46.8205C24.95 47.1557 24.2907 47.3327 23.625 47.3327Z" fill="#30193B"/>
<path d="M24.4936 46.8332C23.213 46.8332 22.0339 46.2008 21.3238 45.1384L2.32384 16.4844C1.71524 15.5611 1.51237 14.4607 1.76595 13.3856C2.01954 12.3105 2.6852 11.4125 3.64883 10.856L17.8814 2.64115C18.4583 2.30598 19.1176 2.12891 19.7769 2.12891C21.0575 2.12891 22.2367 2.76131 22.9468 3.82374L41.9531 32.4714C42.5617 33.3947 42.7645 34.4951 42.511 35.5702C42.2574 36.6453 41.5917 37.5433 40.6281 38.0998L26.3955 46.321C25.8186 46.6561 25.1593 46.8332 24.4936 46.8332Z" fill="#574887"/>
<path d="M21.6852 44.9043L2.67886 16.2503C1.5504 14.5491 2.08927 12.2472 3.86437 11.2227L18.0969 3.00785C19.6375 2.11616 21.6154 2.57781 22.5981 4.06395L41.6044 32.7116C42.7328 34.4128 42.194 36.7147 40.4189 37.7392L26.18 45.9541C24.6394 46.8458 22.6678 46.3841 21.6852 44.9043Z" fill="#3B2B5A"/>
<path d="M40.0385 33.5656L20.4616 4.1084L19.517 4.64594L23.1179 23.9784L13.4309 29.5308L22.7058 43.4942L40.0385 33.5656Z" fill="white"/>
<path d="M19.5169 4.64575L3.12891 14.0369L13.4309 29.5307L23.1179 23.9782L19.5169 4.64575Z" fill="#BBE8FF"/>
<path d="M20.2332 39.7691L14.8635 31.6934L18.8195 29.4231L24.1892 37.5052L20.2332 39.7691Z" fill="#BBE8FF"/>
<path d="M11.732 26.9758L6.3623 18.9L18.5915 11.7603L20.5441 21.8344L11.732 26.9758Z" fill="#A0D3F2"/>
<path d="M16.6767 26.1031L9.07544 14.6061L11.0534 13.4678L18.6547 24.9648L16.6767 26.1031Z" fill="#BBE8FF"/>
<path d="M22.7059 43.4941L21.7866 42.1281L39.1256 32.1931L40.0385 33.5654L22.7059 43.4941Z" fill="#BBE8FF"/>
<path d="M26.6365 35.9495L21.2668 27.8675L26.123 25.0596L31.1123 24.4841L35.0873 31.0548L26.6365 35.9495Z" fill="#BBE8FF"/>
<path d="M25.6791 22.1506L23.1179 8.11133L30.7889 19.6526L31.1122 21.436L25.6791 22.1506Z" fill="#BBE8FF"/>
<path d="M30.8204 41.3563L30.6366 41.0907C30.4147 40.7682 30.5161 40.3255 30.8585 40.1232L34.1361 38.2196C34.4848 38.0173 34.9349 38.1185 35.1631 38.4536L35.3469 38.7192C35.5688 39.0418 35.4674 39.4844 35.1251 39.6868L31.8475 41.5903C31.4988 41.7927 31.0487 41.6915 30.8204 41.3563Z" fill="white"/>
<path d="M3.12891 14.0371L4.58703 16.2315L21.9577 6.35974L20.4615 4.1084L3.12891 14.0371Z" fill="white"/>
<path d="M12.3787 7.91535C12.3787 8.23155 12.1251 8.48451 11.8081 8.48451C11.4911 8.48451 11.2375 8.23155 11.2375 7.91535C11.2375 7.59915 11.4911 7.34619 11.8081 7.34619C12.1188 7.34619 12.3787 7.60548 12.3787 7.91535Z" fill="#FF5E4C"/>
<path d="M17.0318 5.05065C17.0318 5.25302 16.867 5.41112 16.6704 5.41112C16.4739 5.41112 16.3091 5.2467 16.3091 5.05065C16.3091 4.84829 16.4739 4.69019 16.6704 4.69019C16.867 4.69019 17.0318 4.84829 17.0318 5.05065Z" fill="white"/>
<path d="M18.7371 4.10803C18.7371 4.31039 18.5723 4.46849 18.3758 4.46849C18.1792 4.46849 18.0144 4.30407 18.0144 4.10803C18.0144 3.90566 18.1792 3.74756 18.3758 3.74756C18.5723 3.74756 18.7371 3.90566 18.7371 4.10803Z" fill="white"/>
<path d="M4.91044 20.9365L2.76764 17.5974C2.71692 17.5152 2.60281 17.4899 2.52673 17.5468L2.46967 17.5848C2.38726 17.6353 2.3619 17.7492 2.41896 17.8251L4.56176 21.1641C4.61248 21.2463 4.72659 21.2716 4.80267 21.2147L4.85972 21.1768C4.94214 21.1262 4.96116 21.0187 4.91044 20.9365Z" fill="white"/>
<path d="M7.68705 25.2114L5.54425 21.8723C5.49353 21.7901 5.37942 21.7648 5.30334 21.8217L5.24628 21.8597C5.16387 21.9102 5.13851 22.0241 5.19557 22.1L7.33837 25.439C7.38909 25.5212 7.5032 25.5465 7.57928 25.4896L7.63634 25.4517C7.71875 25.4011 7.74411 25.2936 7.68705 25.2114Z" fill="white"/>
<path d="M19.1939 42.3621L17.6153 39.9084C17.5646 39.8262 17.4505 39.8009 17.3744 39.8578L17.3173 39.8958C17.2349 39.9464 17.2096 40.0602 17.2666 40.1361L18.8452 42.5898C18.8959 42.672 19.01 42.6973 19.0861 42.6404L19.1432 42.6025C19.2256 42.5582 19.2509 42.4444 19.1939 42.3621Z" fill="white"/>
<path d="M25.4191 25.6667C24.4745 24.1237 22.5599 23.5482 21.0891 24.383C19.6183 25.2177 19.1428 27.1529 19.9923 28.7528C20.0494 28.854 20.0621 28.873 20.0684 28.8856C22.0083 32.2057 26.0721 33.5401 26.389 33.6666C26.4398 33.3314 27.3654 29.1639 25.4952 25.8058C25.4888 25.7869 25.4761 25.7679 25.4191 25.6667Z" fill="#FF5E4C"/>
<path d="M24.8232 26.1348C25.5206 27.3617 25.1655 28.8795 24.0307 29.5245C22.8896 30.1696 21.3998 29.7016 20.7024 28.4747C20.005 27.2479 20.3601 25.7301 21.4949 25.0851C22.636 24.44 24.1258 24.908 24.8232 26.1348Z" fill="white"/>
<path d="M21.8309 8.00364C20.8863 6.46058 18.9718 5.8851 17.501 6.71987C16.0302 7.55463 15.5547 9.48977 16.4042 11.0897C16.4613 11.1909 16.4739 11.2099 16.4803 11.2225C18.4202 14.5426 22.4839 15.877 22.8009 16.0035C22.8516 15.6683 23.7772 11.5008 21.907 8.14276C21.9007 8.12379 21.8817 8.0985 21.8309 8.00364Z" fill="#6156B2"/>
<path d="M21.2348 8.47176C21.9322 9.69861 21.5772 11.2164 20.4424 11.8614C19.3012 12.5065 17.8114 12.0385 17.114 10.8116C16.4167 9.58478 16.7717 8.06702 17.9065 7.42197C19.0413 6.77693 20.5311 7.2449 21.2348 8.47176Z" fill="white"/>
<path d="M20.6391 8.56661L19.7008 7.87098C19.4916 7.7192 19.2127 7.70655 18.9908 7.83936L18.4773 8.14923L18.2173 8.30733L17.7102 8.61721C17.4883 8.75001 17.3678 9.00929 17.4122 9.26225L17.6024 10.4259C17.6087 10.4954 17.6341 10.5587 17.6721 10.6219L17.856 10.9191C17.9954 11.1531 18.2998 11.229 18.5343 11.0962L18.7245 11.4061C18.8006 11.5326 18.9654 11.5705 19.0859 11.4946C19.2127 11.4187 19.2507 11.2543 19.1746 11.1342L18.9908 10.8306L20.3665 9.99584L20.5503 10.2994C20.6264 10.4259 20.7912 10.4638 20.9117 10.3879C21.0385 10.312 21.0765 10.1476 21.0004 10.0275L20.8166 9.72391C21.0512 9.57845 21.1272 9.26858 20.9878 9.02827L20.8039 8.73104C20.7532 8.66147 20.7025 8.61088 20.6391 8.56661Z" fill="#6156B2"/>
<path d="M19.5614 8.16827C19.4346 8.07341 19.2634 8.06708 19.1239 8.1493L18.3885 8.5983L18.2871 8.66154L17.9194 8.8892C17.7863 8.97141 17.7102 9.12951 17.7356 9.28761L17.8433 9.95796L18.7372 9.41409L18.8387 9.35085L20.1003 8.57933L19.5614 8.16827Z" fill="white"/>
<path d="M18.4456 10.546C18.509 10.6472 18.4773 10.7863 18.3758 10.8433C18.2744 10.9065 18.1349 10.8749 18.0779 10.7737C18.0145 10.6725 18.0462 10.5334 18.1476 10.4765C18.249 10.4132 18.3822 10.4449 18.4456 10.546Z" fill="white"/>
<path d="M20.7217 9.16112C20.7851 9.26231 20.7534 9.40144 20.652 9.45835C20.5505 9.52159 20.4111 9.48997 20.354 9.38246C20.2906 9.28128 20.3223 9.14215 20.4237 9.08524C20.5252 9.02832 20.6583 9.05994 20.7217 9.16112Z" fill="white"/>
<path d="M19.8545 9.48815L18.7559 10.1567L18.9606 10.4915L20.0592 9.82288L19.8545 9.48815Z" fill="white"/>
<path d="M24.2272 28.854L23.2255 27.235L22.8388 26.609L23.5679 27.001C23.6249 27.0327 23.6947 27.0074 23.7264 26.9568L23.7644 26.8935C23.7961 26.8366 23.7707 26.7671 23.72 26.7354L22.4838 26.0714C22.4775 26.0651 22.4267 26.0398 22.4267 26.0398H22.4204C22.3316 26.0019 22.2239 26.0019 22.1351 26.0524L22.1224 26.0588L22.0147 25.888C22.1161 25.7742 22.1415 25.6098 22.059 25.477C21.9576 25.3125 21.7421 25.2619 21.5772 25.3631C21.4124 25.4643 21.3617 25.6793 21.4631 25.8438C21.5455 25.9766 21.704 26.0335 21.8498 25.9892L21.9576 26.16L21.9449 26.1663C21.8562 26.2232 21.8055 26.3181 21.7991 26.4129L21.8372 27.8864C21.8372 27.9496 21.8942 28.0002 21.9576 28.0002H22.0337C22.0971 28.0002 22.1478 27.9433 22.1478 27.8801L22.1224 27.0453L22.5092 27.6714L23.5108 29.2903C23.5362 29.3283 23.5869 29.3409 23.6313 29.3156L23.7517 29.2397C23.7898 29.2144 23.8024 29.1638 23.7771 29.1196L23.0036 27.8674L23.1938 27.7536L23.9673 29.0057C23.9926 29.0437 24.0434 29.0563 24.0877 29.031L24.2082 28.9552C24.2399 28.9488 24.2526 28.8919 24.2272 28.854Z" fill="#FF5E4C"/>
<path d="M45.871 29.8279C45.871 29.8279 36.0065 27.5955 34.0983 27.5512C32.19 27.5069 28.2151 27.8548 26.2117 28.0571C23.2448 28.3544 24.2401 31.2318 25.8567 32.1488C28.0946 33.4199 31.1313 34.027 32.488 33.5906C34.0983 35.0262 36.2094 36.038 39.7025 36.468C40.1273 41.3565 42.0926 46.3019 46.2894 47.9018C50.4863 49.5018 54.4042 42.7288 54.4042 42.7288L45.871 29.8279Z" fill="#FFC5B3"/>
<path d="M25.5586 28.1775C24.6267 28.5316 24.2526 30.0494 25.5586 30.9031C26.8646 31.7505 29.1595 31.3585 29.1595 31.3585C29.1595 31.3585 29.2356 30.1379 29.4892 28.9364C29.7428 27.7411 29.7428 27.7411 29.7428 27.7411C29.7428 27.7411 27.2196 27.5514 25.5586 28.1775Z" fill="#FFE1D9"/>
</svg>
