<svg width="65" height="58" viewBox="0 0 65 58" fill="none" xmlns="http://www.w3.org/2000/svg">
<g clip-path="url(#clip0_214_2)">
<path d="M54.0145 20.3928C54.0145 24.3883 56.4769 29.0324 59.5105 30.7578C62.5442 32.4896 65.0065 30.654 65.0065 26.6585C65.0065 22.6629 62.5442 18.0188 59.5105 16.2935C56.4769 14.5551 54.0145 16.3972 54.0145 20.3928Z" fill="#FFC5B3"/>
<path d="M39.1615 41.7325C39.1615 41.7325 43.0488 42.7573 41.1052 45.0081C38.6165 47.8944 36.6532 50.3657 33.9019 52.0846C30.9339 53.9461 25.9764 54.465 20.9203 56.6249C17.2825 58.1816 13.2574 58.2011 11.734 57.7276C10.1056 57.2217 10.9592 55.1007 10.9592 55.1007C10.9592 55.1007 6.69764 57.0206 4.88534 56.6379C3.23062 56.2877 4.09081 53.8294 4.09081 53.8294C4.09081 53.8294 2.51489 54.3742 1.43145 53.3624C-0.196996 51.8381 2.97454 49.1658 2.97454 49.1658C0.636927 49.3668 -0.0656697 49.5679 -6.52438e-06 47.9788C0.091922 45.6308 4.60298 42.446 8.1291 40.1758C9.53429 39.2677 14.3605 36.4851 15.6869 35.6549C16.291 34.9284 16.6916 33.6636 19.41 31.828C22.1285 29.9989 26.0223 28.2022 27.5129 27.3979C30.2313 25.9385 31.886 25.4585 34.2368 24.6867C36.9815 23.7786 38.0387 24.2132 41.184 23.5321C42.6154 23.2273 51.4208 18.5961 55.7349 16.0989C57.3699 19.0631 62.3406 26.9698 62.3406 26.9698L39.1615 41.7325Z" fill="#FFC5B3"/>
<path d="M32.2406 52.9276C30.9865 53.5114 26.9547 54.5946 26.9547 54.5946C26.9547 54.5946 26.6987 53.3428 26.1143 52.3309C25.4642 51.2153 25.2803 50.8261 25.3723 50.3526C25.7728 48.277 26.8037 47.5246 28.9772 45.6047C31.1506 43.6847 32.7528 43.114 32.7528 43.114C32.7528 43.114 33.8954 36.8936 35.7274 35.1943C37.5594 33.4949 40.2647 31.9122 42.2346 32.4246C44.2045 32.937 42.3725 37.0493 42.3725 37.0493C42.3725 37.0493 39.0565 47.8943 37.8483 48.997C36.6401 50.0932 34.9919 51.6434 32.2406 52.9276Z" fill="#FFA08D"/>
<path d="M62.6624 31.2377C62.6624 31.2377 49.4706 38.4699 47.4088 39.605C45.347 40.7336 43.9746 45.9356 42.3724 47.2977C40.7703 48.6533 35.9637 49.7041 32.9826 51.2154C30.0081 52.7267 28.3665 53.3558 28.3665 53.3558C28.3665 53.3558 27.2239 52.8759 26.6592 51.5721C26.2981 50.7484 26.5608 48.9322 28.1761 47.2393C29.7914 45.5464 32.2997 44.5021 33.4423 44.087C34.5848 43.6719 35.9375 37.7824 36.9552 36.3489C38.1503 34.6625 39.7459 33.1058 43.0028 32.1653C46.2597 31.2313 59.7732 23.5386 59.7732 23.5386L62.6624 31.2377Z" fill="#FFC5B3"/>
<path d="M22.1219 42.0178C21.3274 42.5302 17.2957 45.0988 14.8268 46.1625C13.5595 46.7139 9.96111 48.2706 8.12911 49.2176C7.10476 49.7429 4.31408 52.3958 4.09082 53.8293C4.09082 53.8293 5.25963 52.4996 7.43964 51.144C9.61966 49.7883 13.2902 48.0306 15.4571 46.9603C18.4908 45.715 22.2664 42.9518 22.8639 42.5043C22.6013 42.3746 22.3452 42.2189 22.1219 42.0178Z" fill="#FFA08D"/>
<path d="M2.98108 49.1592C2.98108 49.1592 5.91622 46.1625 7.676 45.2544C8.60842 44.7744 11.6092 43.1853 12.6598 42.7118C16.1531 41.1292 18.0442 39.2611 18.0442 39.2611L17.4138 38.8655C17.4138 38.8655 16.488 39.6633 14.5509 40.7335C11.537 42.394 6.90774 44.6901 5.96219 45.4296C4.74085 46.3895 4.17615 47.2198 2.98108 49.1592Z" fill="#FFA08D"/>
<path d="M27.1518 44.6838C26.6068 45.1768 24.6106 46.9281 23.2448 47.4664C21.183 48.2707 15.8052 50.3528 13.3953 51.9355C11.8916 52.9214 10.9592 55.1007 10.9592 55.1007C10.9592 55.1007 13.6186 52.5581 14.8268 52.0457C16.0284 51.5398 18.6484 50.5085 19.9223 49.9961C21.3012 49.4383 24.0787 48.3096 25.3395 47.5248C25.6744 47.3173 27.0467 46.0589 27.8544 45.313C27.5851 45.1379 27.3422 44.9303 27.1518 44.6838Z" fill="#FFA08D"/>
<path d="M29.9424 49.1787C29.6732 48.9388 28.5569 49.6976 28.0316 50.3203C27.2634 51.2154 27.5129 51.8316 27.7821 52.2403C28.2943 53.0316 28.3665 53.3624 28.3665 53.3624L31.1441 52.1754C31.1441 52.1754 31.4921 50.5473 29.9424 49.1787Z" fill="#FFD7CC"/>
<path d="M42.3987 24.2261C42.3987 24.2261 44.5065 25.692 45.058 26.1784C45.8132 26.84 48.1508 28.8054 48.1508 28.8054C48.1508 28.8054 46.8638 26.853 45.4914 25.7503C44.1125 24.6477 42.3987 24.2261 42.3987 24.2261Z" fill="#FFA08D"/>
<path d="M46.6931 40.1759C46.6931 40.1759 47.376 38.3921 48.5777 37.7111C49.7793 37.03 53.3317 36.3555 53.3317 36.3555C53.3317 36.3555 48.1574 39.5013 46.6931 40.1759Z" fill="#FFA08D"/>
<path d="M25.5692 33.6053C25.5692 33.6053 29.9752 33.8778 33.2781 32.8919C36.5809 31.9059 39.0039 30.012 39.0039 30.012C39.0039 30.012 35.156 31.4649 33.2912 31.8281C31.4198 32.1913 25.5692 33.6053 25.5692 33.6053Z" fill="#FFA08D"/>
<path d="M21.4127 35.0776C21.4127 35.0776 22.5027 36.0117 25.5626 38.2624C28.6225 40.5066 31.1703 42.5433 31.1703 42.5433C31.1703 42.5433 29.0822 39.605 26.5607 37.6786C24.0458 35.7587 21.4127 35.0776 21.4127 35.0776Z" fill="#FFA08D"/>
<path d="M12.5285 24.3234L10.8212 23.3505C10.749 23.3116 10.6833 23.3051 10.6242 23.318C10.6177 23.318 10.6242 23.3051 10.6177 23.3051C10.506 23.2921 10.2697 23.4867 10.2697 23.4867L10.4207 23.6164C10.4207 23.6294 10.4141 23.6423 10.4141 23.6618V24.492C10.4141 24.7904 10.598 25.1342 10.8212 25.2639L12.5285 26.2368C12.7517 26.3666 12.9356 26.2304 12.9356 25.932V25.1018C12.9356 24.7969 12.7517 24.4466 12.5285 24.3234Z" fill="#6156B2"/>
<path d="M12.4562 26.4054C12.4562 26.4054 12.7583 26.36 12.8371 26.2173C12.9159 26.0746 12.8633 25.9189 12.8633 25.9189C12.8633 25.9189 12.4431 26.107 12.4562 26.4054Z" fill="#9E8F92"/>
<path d="M12.2724 26.3601L10.5652 25.3872C10.3419 25.2575 10.1581 24.9137 10.1581 24.6153V23.7851C10.1581 23.4867 10.3419 23.3505 10.5652 23.4802L12.2724 24.4532C12.4957 24.5829 12.6795 24.9267 12.6795 25.225V26.0553C12.6795 26.3536 12.4957 26.4899 12.2724 26.3601Z" fill="#7B6BC6"/>
<path d="M49.3327 28.0336L44.3094 25.1277C44.3094 25.1277 45.1893 23.4348 47.3365 24.0251C49.4837 24.6153 50.705 25.3548 50.705 25.3548L49.3327 28.0336Z" fill="#514AA5"/>
<path d="M47.527 27.3524C47.527 29.0907 46.4567 31.1079 45.1368 31.8604C43.817 32.6128 42.7467 31.8149 42.7467 30.0766C42.7467 28.3383 43.817 26.3211 45.1368 25.5687C46.4567 24.8163 47.527 25.6141 47.527 27.3524Z" fill="#30193B"/>
<path d="M43.6398 32.0161L45.1894 32.9048L48.0917 26.2499L46.4764 25.3418L43.6398 32.0161Z" fill="#30193B"/>
<path d="M49.0766 28.2345C49.0766 29.9728 48.0063 31.9901 46.6799 32.7425C45.3601 33.4949 44.2898 32.6906 44.2898 30.9587C44.2898 29.2204 45.3601 27.2032 46.6799 26.4508C48.0063 25.6984 49.0766 26.5027 49.0766 28.2345Z" fill="#3B2B5A"/>
<path d="M48.4002 28.6173C48.4002 29.8691 47.632 31.3155 46.6799 31.8539C45.7343 32.3923 44.9661 31.8215 44.9661 30.5696C44.9661 29.3178 45.7343 27.8713 46.6864 27.333C47.6386 26.7946 48.4068 27.3719 48.4002 28.6173Z" fill="white"/>
<path d="M47.6517 29.0972C47.6517 29.7328 47.2577 30.4787 46.7718 30.7512C46.2859 31.0301 45.892 30.7317 45.8985 30.0961C45.8985 29.4604 46.2925 28.7145 46.7784 28.4421C47.2577 28.1696 47.6517 28.4615 47.6517 29.0972Z" fill="#3B2B5A"/>
<path d="M47.5007 29.1814C47.5007 29.7133 47.1724 30.3295 46.7718 30.563C46.3713 30.79 46.043 30.55 46.043 30.0181C46.043 29.4863 46.3713 28.8701 46.7718 28.6366C47.1789 28.4031 47.5073 28.6495 47.5007 29.1814Z" fill="#594989"/>
<path d="M28.9903 39.6114L24.0065 36.7186C24.0065 36.7186 24.8864 35.0256 27.0335 35.6159C29.1807 36.2061 30.4021 36.9456 30.4021 36.9456L28.9903 39.6114Z" fill="#514AA5"/>
<path d="M27.2239 38.9435C27.2239 40.6818 26.1536 42.699 24.8337 43.4514C23.5139 44.2038 22.4436 43.406 22.4436 41.6677C22.4436 39.9294 23.5139 37.9122 24.8337 37.1598C26.1601 36.4074 27.2239 37.2052 27.2239 38.9435Z" fill="#30193B"/>
<path d="M23.3431 43.6071L24.8862 44.4957L27.7885 37.8473L26.1798 36.9392L23.3431 43.6071Z" fill="#30193B"/>
<path d="M28.7736 39.832C28.7736 41.5703 27.7033 43.5875 26.3834 44.3399C25.0636 45.0923 23.9933 44.288 23.9933 42.5562C23.9933 40.8179 25.0636 38.8007 26.3834 38.0483C27.7098 37.2894 28.7801 38.0937 28.7736 39.832Z" fill="#3B2B5A"/>
<path d="M28.1037 40.2147C28.1037 41.4666 27.3355 42.913 26.3834 43.4513C25.4312 43.9897 24.6696 43.4189 24.6696 42.1671C24.6696 40.9152 25.4378 39.4688 26.3899 38.9304C27.3355 38.3856 28.1037 38.9629 28.1037 40.2147Z" fill="white"/>
<path d="M27.3486 40.6882C27.3486 41.3239 26.9546 42.0698 26.4687 42.3422C25.9828 42.6211 25.5889 42.3228 25.5954 41.6871C25.5954 41.0515 25.9894 40.3056 26.4753 40.0331C26.9612 39.7607 27.3486 40.0526 27.3486 40.6882Z" fill="#3B2B5A"/>
<path d="M27.2042 40.7725C27.2042 41.3043 26.8759 41.9205 26.4753 42.154C26.0748 42.3811 25.7465 42.1411 25.7465 41.6092C25.7465 41.0773 26.0748 40.4611 26.4753 40.2276C26.8759 39.9941 27.2042 40.2406 27.2042 40.7725Z" fill="#594989"/>
<path d="M37.5199 11.4482C38.0452 11.1564 38.472 10.9488 38.7413 11.0656L38.8201 11.111L53.2069 19.3744L46.2269 23.4024L34.1908 13.2839C35.55 12.5379 36.9093 11.792 37.5199 11.4482Z" fill="#8781D3"/>
<path d="M51.933 18.6414C51.933 18.6414 50.5672 19.1733 49.0766 19.9581C47.5861 20.743 46.043 21.5862 46.043 21.5862C46.6471 21.1321 47.6911 20.4316 49.4115 19.5625C50.5015 19.0176 51.7294 18.5247 51.7294 18.5247L51.933 18.6414Z" fill="#7B6BC6"/>
<path d="M39.9362 11.7725C39.9362 11.7725 38.4851 12.4017 36.988 13.1865C35.4974 13.9714 34.0397 14.7173 34.0397 14.7173C34.6438 14.2632 35.6878 13.5627 37.4082 12.6936C38.4982 12.1487 39.7261 11.6558 39.7261 11.6558L39.9362 11.7725Z" fill="#7B6BC6"/>
<path d="M12.0294 25.8608C12.3249 24.823 12.7714 23.3117 13.3296 21.5344C13.8483 19.874 14.3079 18.8945 14.8267 18.22L20.3293 21.3593L26.2127 24.7192L30.8813 27.385L27.4931 34.7339L18.1033 29.3569L12.0229 25.8737C12.0163 25.8673 12.0229 25.8608 12.0294 25.8608Z" fill="#8781D3"/>
<path d="M16.7703 16.6891C18.3265 15.8005 25.0504 11.9282 26.7708 10.9812C28.0381 10.2872 28.6816 10.1185 29.1018 10.3585L29.1412 10.378L43.528 18.635L31.597 27.8001L26.2061 24.7191L14.8201 18.2264C15.3651 17.5129 15.9692 17.1432 16.7703 16.6891Z" fill="#7B6BC6"/>
<path d="M12.0164 25.8735L26.4163 34.1305L15.3192 41.0513L0.945557 32.7619L12.0164 25.8735Z" fill="#7B6BC6"/>
<path d="M26.4163 34.1307C26.7118 33.0929 27.1583 31.5816 27.7164 29.8044C28.7802 26.3926 29.601 25.8413 31.1572 24.9526C32.7134 24.064 39.4373 20.1917 41.1577 19.2448C42.8781 18.2978 43.4559 18.3302 43.863 19.0177C44.1782 19.5431 45.5965 21.8133 46.2466 22.8446C47.9407 21.8911 50.9152 20.2696 51.9067 19.7118C52.8851 19.1604 53.5418 18.9075 53.4498 20.5355C53.3776 21.8522 52.9574 25.9191 52.9574 25.9191L49.4903 27.8974L48.7221 25.1472L46.4107 25.1083L43.9746 27.7936L42.8124 31.7048L29.1544 39.5208L28.7079 36.8744L26.4754 37.1014L23.6125 39.2354L22.8508 43.1336L15.3389 47.434C15.3389 47.434 15.2798 43.4709 15.3192 41.0515C17.7684 39.5791 24.1049 35.5382 26.4163 34.1307Z" fill="#6156B2"/>
<path d="M15.3389 47.4338L15.3192 41.0514L0.945506 32.762L0.932373 39.125L15.3389 47.4338Z" fill="#7B6BC6"/>
<path d="M11.5502 39.4363L14.9647 41.4081L14.9712 44.275L11.5502 42.2967V39.4363Z" fill="#3B2B5A"/>
<path d="M13.6053 40.9216L14.7151 41.5638L14.7216 43.8794L13.6053 43.2372V40.9216Z" fill="#FAC155"/>
<path d="M5.08228 35.7263L11.1758 39.2354L11.189 42.5628L5.08228 39.0408V35.7263Z" fill="#3B2B5A"/>
<path d="M5.31213 36.1868L10.9132 39.4104L10.9263 42.1476L5.31213 38.9045V36.1868Z" fill="#594989"/>
<path d="M5.31213 36.3555L10.9132 39.5856L10.9263 39.9229L5.31213 36.6863V36.3555Z" fill="#3B2B5A"/>
<path d="M5.31213 37.0625L10.9132 40.2926L10.9263 40.6299L5.31213 37.3868V37.0625Z" fill="#3B2B5A"/>
<path d="M5.31213 37.7046L10.9132 40.9347L10.9263 41.2655L5.31213 38.0289V37.7046Z" fill="#3B2B5A"/>
<path d="M5.31213 38.405L10.9132 41.6352L10.9263 41.9725L5.31213 38.7293V38.405Z" fill="#3B2B5A"/>
<path d="M1.2804 33.521L4.69488 35.4863L4.70801 38.3532L1.2804 36.3814V33.521Z" fill="#3B2B5A"/>
<path d="M43.9549 26.9567C44.5196 25.9189 45.4323 25.1795 46.2859 24.693C48.2361 23.5839 50.0944 25.0044 50.1075 27.5535C49.9696 27.6313 49.5953 27.8454 49.5953 27.8454C49.5953 25.7179 48.223 24.479 46.6076 25.3936C46.3319 25.5492 45.4388 26.7427 45.4388 26.7427L44.4473 28.1697L44.3226 28.241C43.9942 29.0518 43.8629 30.2647 43.8695 31.1144C43.5674 31.3479 42.8386 31.7047 42.7532 31.7566C42.6679 30.6474 42.9436 28.8248 43.9549 26.9567Z" fill="#7B6BC6"/>
<path d="M46.6339 25.3806C44.3094 26.7103 43.4624 29.0778 43.4492 31.3804C43.528 31.335 43.8629 31.1145 44.0468 31.0107C44.0468 30.9912 44.0468 30.9653 44.0468 30.9458C44.0468 29.0389 45.2221 26.827 46.6733 26.0033C48.1244 25.1795 49.2932 26.0552 49.2932 27.9621C49.2932 27.9816 49.2932 28.0011 49.2932 28.0205C49.464 27.9232 49.6347 27.8259 49.8054 27.7286C49.7923 25.439 48.374 24.3817 46.6339 25.3806Z" fill="#7B6BC6"/>
<path d="M23.6518 38.5478C24.2165 37.51 25.1292 36.7706 25.9828 36.2841C27.933 35.175 29.7913 36.5955 29.8044 39.1445C29.6665 39.2224 29.2923 39.4364 29.2923 39.4364C29.2923 37.3089 27.9199 36.0701 26.3046 36.9846C26.0288 37.1403 25.1358 38.3338 25.1358 38.3338L24.1443 39.7607L24.0195 39.8321C23.6912 40.6429 23.5599 41.8558 23.5664 42.7055C23.2644 42.939 22.5355 43.2957 22.4502 43.3476C22.3714 42.2385 22.6472 40.4159 23.6518 38.5478Z" fill="#7B6BC6"/>
<path d="M26.3374 36.9717C24.0129 38.3014 23.1593 40.6688 23.1527 42.9715C23.2315 42.9261 23.5664 42.7055 23.7502 42.6017C23.7502 42.5823 23.7502 42.5563 23.7502 42.5369C23.7502 40.6299 24.9256 38.4181 26.3768 37.5944C27.8279 36.7706 28.9967 37.6462 28.9967 39.5532C28.9967 39.5727 28.9967 39.5921 28.9967 39.6116C29.1675 39.5143 29.3382 39.417 29.5089 39.3197C29.4958 37.0301 28.0775 35.9728 26.3374 36.9717Z" fill="#7B6BC6"/>
<path d="M11.8784 41.0515C11.8784 41.5834 12.2067 42.1996 12.6073 42.4331C13.0078 42.6601 13.3361 42.4201 13.3361 41.8883C13.3361 41.3564 13.0078 40.7402 12.6073 40.5067C12.2067 40.2732 11.8784 40.5197 11.8784 41.0515Z" fill="white"/>
<path d="M1.54956 33.9749L2.6527 34.617L2.66584 36.9391L1.54956 36.2904V33.9749Z" fill="#FAC155"/>
<path d="M2.95483 35.9209C2.95483 36.4528 3.28315 37.069 3.6837 37.3025C4.08424 37.5295 4.41256 37.2895 4.41256 36.7576C4.41256 36.2258 4.08424 35.6096 3.6837 35.3761C3.27658 35.1426 2.95483 35.389 2.95483 35.9209Z" fill="white"/>
<path d="M15.3061 47.9008L15.3258 45.8058L0.24292 37.1272V39.2093L15.3061 47.9008Z" fill="#4D3C77"/>
<path d="M5.31213 40.4224L10.25 43.2633L10.2369 44.6125L5.31213 41.7715V40.4224Z" fill="white"/>
<path d="M19.4362 45.5206L15.306 47.901L15.3257 45.806L19.4362 43.4385V45.5206Z" fill="#3B2B5A"/>
<path d="M19.4363 43.4384L19.016 43.2567L15.3389 45.2545L0.932383 37.03V36.7251L0.24292 37.1272L15.3258 45.8058L19.4363 43.4384Z" fill="#594989"/>
<path d="M3.00732 33.3652L13.9205 39.6309C13.9205 39.6309 16.0283 37.9315 16.9608 37.231C17.8932 36.5305 24.3544 32.6063 24.3544 32.6063L13.4412 26.3276C13.4412 26.3276 7.70224 29.7199 6.61223 30.4918C4.69487 31.8604 3.00732 33.3652 3.00732 33.3652Z" fill="#A09EE5"/>
<path d="M24.3544 32.9308L13.9205 39.631C13.9205 39.631 14.8004 38.5997 17.5254 36.7447C20.3818 34.7988 24.3544 32.6064 24.3544 32.6064V32.9308Z" fill="#7B6BC6"/>
<path d="M27.3487 26.0812C28.1038 26.5936 27.8543 27.0931 27.4406 28.066C27.0269 29.0325 26.5607 30.5892 26.3244 31.5167C26.088 32.4442 25.9107 33.1318 24.5908 32.4637C23.3761 31.8475 13.914 26.3212 13.2442 25.8412C12.5876 25.3677 12.87 24.9915 13.0604 24.1678C13.3362 22.9873 14.3868 20.276 14.7151 19.8155C15.0434 19.355 15.6147 19.4588 16.186 19.8155C16.7638 20.1658 26.7118 25.6466 27.3487 26.0812Z" fill="#3B2B5A"/>
<path d="M13.7564 25.2379C13.7301 25.2185 13.6973 25.1925 13.6841 25.1795C13.1785 24.719 13.3558 24.4271 13.7564 23.1039C14.1963 21.664 14.9252 19.7051 15.5949 19.9841C15.9298 20.1268 16.3172 20.3603 17.1249 20.7948C18.0639 21.3008 19.4428 22.0078 20.0075 22.3321C20.8611 22.8315 25.8384 25.5882 26.4228 25.9644C27.0926 26.399 27.6047 26.6908 27.2108 27.6119C27.1582 27.7286 27.0991 27.8778 27.0335 28.0335C25.1555 27.067 21.6819 25.2833 19.6726 24.3039C17.0724 23.0521 15.4242 22.5786 13.7564 25.2379Z" fill="#594989"/>
<path d="M24.6893 31.575C23.2512 30.8291 20.211 29.1232 18.8912 28.2865C17.1511 27.1838 14.3604 25.692 13.7563 25.2315C15.4176 22.5721 17.0723 23.0521 19.666 24.3104C21.6753 25.2834 25.1489 27.0671 27.0269 28.04C26.5869 29.1103 25.8909 30.9134 25.7399 31.3804C25.6939 31.5296 25.5101 31.9966 24.6893 31.575Z" fill="#4D3C77"/>
<path d="M40.4485 20.8339C38.9711 21.7226 33.5933 24.583 31.9451 25.5689C30.1262 26.6586 29.4696 27.4434 28.9312 29.6552C28.4847 31.4908 28.2154 32.8011 28.1366 33.2162L27.7098 33.4627C27.7098 33.4627 27.9988 31.9254 28.57 29.5969C29.1347 27.2942 29.8176 26.477 31.7087 25.3419C33.4225 24.3106 39.017 21.3464 40.5536 20.4188C42.0901 19.4913 42.8846 19.1605 43.4624 19.9583C44.0403 20.7561 45.4586 23.3052 45.4586 23.3052L45.1172 23.4998C44.8545 23.0263 43.7448 21.0545 43.2589 20.3864C42.6942 19.621 41.9194 19.9388 40.4485 20.8339Z" fill="#3B2B5A"/>
<path d="M29.9686 31.7567C29.9358 31.9189 29.9095 32.0681 29.8898 32.2108L28.1366 33.2161C28.2154 32.801 28.4846 31.4908 28.9311 29.6552C29.4761 27.4434 30.1262 26.6585 31.9451 25.5688C33.5932 24.5829 38.971 21.7225 40.4484 20.8339C41.9259 19.9453 42.6941 19.6274 43.2457 20.3863C43.3311 20.5031 43.4361 20.6652 43.5543 20.8533C40.8556 22.2479 34.0332 25.9256 32.6871 26.8272C30.8682 28.0336 30.402 29.5968 29.9686 31.7567Z" fill="#594989"/>
<path d="M29.8832 32.2108C29.9094 32.0681 29.9291 31.9189 29.962 31.7568C30.4019 29.5969 30.8681 28.0337 32.6804 26.8208C34.0265 25.9192 40.8489 22.248 43.5477 20.8469C44.0927 21.7031 44.8807 23.1041 45.0973 23.4933L29.8832 32.2108Z" fill="#4D3C77"/>
<path d="M28.4912 36.6344L43.5281 28.0596C43.3114 28.5201 43.1801 29.013 43.075 29.519L29.2529 37.3998C29.0559 37.1014 28.7998 36.8419 28.4912 36.6344Z" fill="#7B6BC6"/>
<path d="M36.9027 28.1957L37.1982 28.027V22.4553L36.9027 22.6759V28.1957Z" fill="#3B2B5A"/>
<path d="M36.9027 35.0971L37.1982 34.9285V28.0271L36.9027 28.1957V35.0971Z" fill="#514AA5"/>
<path d="M29.3712 33.2615L30.6319 32.5415C30.7632 32.4637 30.8683 32.548 30.8683 32.7232C30.8683 32.8983 30.7632 33.0994 30.6319 33.1772L29.3712 33.8972C29.2398 33.975 29.1348 33.8907 29.1348 33.7156C29.1348 33.5404 29.2398 33.3394 29.3712 33.2615Z" fill="#3B2B5A"/>
<path d="M38.2947 28.0726L39.5555 27.3526C39.6868 27.2747 39.7919 27.3591 39.7919 27.5342C39.7919 27.7093 39.6868 27.9104 39.5555 27.9882L38.2947 28.7082C38.1634 28.786 38.0583 28.7017 38.0583 28.5331C38.0583 28.345 38.1634 28.1439 38.2947 28.0726Z" fill="#3B2B5A"/>
<path d="M41.3218 17.8955C41.3218 17.8955 37.8614 19.8868 35.5697 21.1127C33.2715 22.3451 29.3448 25.0044 29.3448 25.0044C29.3448 25.0044 32.1093 22.6175 35.3333 20.8532C38.5574 19.089 41.3218 17.8955 41.3218 17.8955Z" fill="#7B6BC6"/>
<path d="M29.0888 10.9033C29.0888 10.9033 25.6283 12.8946 23.3367 14.1205C21.0385 15.3529 17.1118 18.0122 17.1118 18.0122C17.1118 18.0122 19.8762 15.6253 23.1003 13.861C26.3244 12.0968 29.0888 10.9033 29.0888 10.9033Z" fill="#7B6BC6"/>
<path d="M29.8766 34.6365C29.8766 34.3382 29.6928 33.9944 29.4695 33.8647L27.7623 32.8917C27.69 32.8528 27.6244 32.8463 27.5653 32.8593C27.5587 32.8593 27.5653 32.8463 27.5587 32.8463C27.4471 32.8334 27.2107 33.0279 27.2107 33.0279L27.3617 33.1577C27.3617 33.1706 27.3552 33.1836 27.3552 33.2031V34.0333C27.3552 34.3317 27.539 34.6754 27.7623 34.8052L29.4432 35.7651C29.4104 35.8235 29.3907 35.8819 29.3907 35.9532C29.3907 35.9532 29.6534 35.9078 29.7519 35.7846C29.7584 35.7781 29.765 35.7716 29.7716 35.7651C29.7716 35.7586 29.7716 35.7522 29.7781 35.7522C29.8372 35.6938 29.8701 35.603 29.8701 35.4733V34.6365H29.8766Z" fill="#7B6BC6"/>
<path d="M29.2135 35.9014L27.5062 34.9285C27.283 34.7987 27.0991 34.455 27.0991 34.1566V33.3264C27.0991 33.028 27.283 32.8918 27.5062 33.0215L29.2135 33.9944C29.4367 34.1242 29.6206 34.4679 29.6206 34.7663V35.5965C29.6206 35.8949 29.4367 36.0311 29.2135 35.9014Z" fill="#8781D3"/>
<path d="M28.1694 0.50586C27.04 -0.136278 26.0223 -0.149251 25.2474 0.343704L23.5796 1.28421L23.9933 2.21823L24.0327 2.20526C23.9145 2.65929 23.8488 3.16522 23.8488 3.73601C23.8488 3.96303 23.8619 4.19653 23.8816 4.43004C24.1377 8.47097 26.5213 14.0621 27.6244 16.4491C27.2305 16.6372 27.7886 18.0382 27.7886 18.0382L29.4302 17.1042C29.4302 17.1042 32.0961 13.9972 32.4573 9.34661C32.477 9.13257 32.4901 8.90555 32.4901 8.67204C32.4967 5.52621 30.5596 1.86797 28.1694 0.50586Z" fill="#F03332"/>
<path d="M22.2401 5.3642C22.2204 5.13069 22.2073 4.89719 22.2073 4.67017C22.2073 1.52434 24.1443 0.0779095 26.5279 1.44002C28.9181 2.80213 30.8486 6.45389 30.8486 9.59972C30.8486 9.83322 30.8354 10.0602 30.8157 10.2743C30.4546 14.9314 27.7886 18.0318 27.7886 18.0318C27.7886 18.0318 22.575 10.6375 22.2401 5.3642Z" fill="#FF5E4C"/>
<path d="M23.4352 5.22146C23.4352 7.38138 24.7616 9.89156 26.4032 10.8256C28.0447 11.7596 29.3711 10.7672 29.3711 8.60728C29.3711 6.44736 28.0447 3.93719 26.4032 3.00317C24.7681 2.06915 23.4352 3.06154 23.4352 5.22146Z" fill="white"/>
<path d="M24.5186 5.61707L24.9848 4.37171C25.0898 4.0928 25.3328 4.01496 25.6086 4.17063L26.239 4.53386L26.5607 4.72196L27.1911 5.08519C27.4669 5.24086 27.7164 5.60409 27.8149 5.99975L28.3008 7.78347C28.327 7.88725 28.3467 7.99103 28.3467 8.08832V8.58128C28.3467 8.95748 28.1169 9.1391 27.8346 8.98991V9.48935C27.8346 9.69043 27.7098 9.78772 27.5588 9.69691C27.4078 9.61259 27.283 9.3726 27.283 9.17153V8.67209L25.5758 7.69915V8.19859C25.5758 8.39966 25.451 8.49696 25.3 8.40615C25.1489 8.32183 25.0242 8.08184 25.0242 7.88076V7.38132C24.7287 7.21268 24.4857 6.75864 24.4857 6.36947V5.87652C24.4726 5.77274 24.4923 5.68841 24.5186 5.61707Z" fill="#FF5E4C"/>
<path d="M25.2737 4.78042C25.3394 4.61177 25.4904 4.55988 25.6546 4.65718L26.5673 5.17608L26.6986 5.24743L27.1583 5.50687C27.329 5.60417 27.48 5.8247 27.5391 6.06469L27.8083 7.096L26.6986 6.46035L26.5673 6.389L25.0045 5.4939L25.2737 4.78042Z" fill="white"/>
<path d="M27.5981 8.13371C27.5981 8.30235 27.7032 8.49694 27.828 8.56829C27.9527 8.63964 28.0578 8.5618 28.0578 8.39316C28.0578 8.22452 27.9527 8.02993 27.828 7.95858C27.7032 7.88723 27.5981 7.96507 27.5981 8.13371Z" fill="white"/>
<path d="M24.7747 6.52507C24.7747 6.69371 24.8797 6.8883 25.0045 6.95965C25.1292 7.03099 25.2343 6.95316 25.2343 6.78452C25.2343 6.61588 25.1292 6.42129 25.0045 6.34994C24.8797 6.27859 24.7747 6.35643 24.7747 6.52507Z" fill="white"/>
<path d="M25.7399 7.37492L27.0991 8.15327V7.60843L25.7399 6.83008V7.37492Z" fill="white"/>
</g>
<defs>
<clipPath id="clip0_214_2">
<rect width="65" height="58" fill="white"/>
</clipPath>
</defs>
</svg>
