<svg width="67" height="40" viewBox="0 0 67 40" fill="none" xmlns="http://www.w3.org/2000/svg">
<path d="M15.7188 20.2141V21.1433L48.3775 40.0001V39.0708L15.7188 20.2141Z" fill="#48B7A1"/>
<path d="M66.3582 28.6887V29.6179L48.3772 39.9998V39.0706L66.3582 28.6887Z" fill="#18A09C"/>
<path d="M66.3585 28.689L48.3775 39.0709L15.7188 20.2142L33.6949 9.83228L66.3585 28.689Z" fill="#7FDBCE"/>
<path opacity="0.5" d="M63.4734 28.7084L48.2168 37.514L18.2825 20.2141L33.5342 11.4084L63.4734 28.7084Z" fill="white"/>
<path d="M41.4592 20.0874C37.178 20.0874 33.7092 22.0431 33.7092 24.4513C33.7092 26.8595 37.178 28.8152 41.4592 28.8152C45.7404 28.8152 49.214 26.8595 49.214 24.4513C49.214 22.0431 45.7452 20.0874 41.4592 20.0874Z" fill="#7FDBCE"/>
<path d="M51.0725 27.5798C48.854 27.5798 47.0588 28.5918 47.0588 29.8372C47.0588 31.0826 48.854 32.0946 51.0725 32.0946C53.2909 32.0946 55.0861 31.0826 55.0861 29.8372C55.0909 28.5918 53.2909 27.5798 51.0725 27.5798Z" fill="#7FDBCE"/>
<path opacity="0.5" d="M51.0724 28.6548C49.9145 28.6548 48.9756 29.1851 48.9756 29.837C48.9756 30.4889 49.9145 31.0192 51.0724 31.0192C52.2303 31.0192 53.1692 30.4889 53.1692 29.837C53.1741 29.1851 52.2351 28.6548 51.0724 28.6548Z" fill="white"/>
<path d="M30.6784 15.8162C28.46 15.8162 26.6648 16.8281 26.6648 18.0735C26.6648 19.319 28.46 20.3309 30.6784 20.3309C32.8969 20.3309 34.692 19.319 34.692 18.0735C34.692 16.8281 32.8969 15.8162 30.6784 15.8162Z" fill="#7FDBCE"/>
<path opacity="0.5" d="M30.6784 16.8962C29.5205 16.8962 28.5815 17.4265 28.5815 18.0784C28.5815 18.7303 29.5205 19.2606 30.6784 19.2606C31.8362 19.2606 32.7752 18.7303 32.7752 18.0784C32.7752 17.4265 31.8362 16.8962 30.6784 16.8962Z" fill="white"/>
<path d="M37.4651 26.1737C36.9348 25.8429 36.6137 25.5023 36.4483 25.0937L38.117 24.1304L39.0268 24.5634L38.3797 24.938C38.1803 25.0548 38.1268 25.1131 38.1997 25.2348C38.263 25.3369 38.3895 25.4488 38.5549 25.5413L40.6468 24.3347C40.1555 23.7266 39.8928 23.0747 41.1917 22.3255C42.3107 21.6784 43.6388 21.5811 44.6945 21.9995L45.721 21.406L46.3486 21.7709L45.3416 22.3547C45.7599 22.6369 46.0616 22.9628 46.2173 23.352L44.641 24.2618L43.7507 23.8239L44.354 23.4736C44.5534 23.3569 44.6069 23.2985 44.534 23.1769C44.4756 23.1039 44.3977 23.0212 44.3004 22.9531L42.3301 24.0915L42.3398 24.0963C42.7777 24.6947 43.1134 25.3953 41.7561 26.1786C40.5495 26.8743 39.1922 26.9326 38.1219 26.524L36.9689 27.1905L36.3413 26.8256L37.4651 26.1737ZM41.002 24.8553L39.2554 25.8623C39.6641 25.9548 40.136 25.9061 40.6614 25.6045C41.0895 25.3564 41.1333 25.1083 41.002 24.8553ZM41.9944 23.5563L43.6047 22.6271C43.2155 22.5444 42.7874 22.5931 42.3398 22.8509C41.9409 23.0844 41.8971 23.3034 41.9944 23.5563Z" fill="white"/>
<path d="M24.9378 22.6416L20.4084 20.0291L21.5225 19.3821L26.0518 21.9994L24.9378 22.6416Z" fill="white"/>
<path d="M48.0708 35.9182L43.5415 33.3057L44.6556 32.6587L49.1849 35.2761L48.0708 35.9182Z" fill="white"/>
<path d="M37.2024 16.0059L32.6731 13.3885L33.7872 12.7463L38.3165 15.3637L37.2024 16.0059Z" fill="white"/>
<path d="M60.3355 29.2823L55.8062 26.6649L56.9202 26.0227L61.4495 28.6401L60.3355 29.2823Z" fill="white"/>
<path d="M15.7188 18.3701V19.2993L48.3775 38.1561V37.2268L15.7188 18.3701Z" fill="#48B7A1"/>
<path d="M66.3582 26.8452V27.7744L48.3772 38.1563V37.2271L66.3582 26.8452Z" fill="#18A09C"/>
<path d="M66.3585 26.845L48.3775 37.2269L15.7188 18.3702L33.6949 7.98828L66.3585 26.845Z" fill="#7FDBCE"/>
<path opacity="0.5" d="M63.4734 26.8597L48.2168 35.6702L18.2825 18.3703L33.5342 9.55981L63.4734 26.8597Z" fill="white"/>
<path d="M41.4592 18.2439C37.178 18.2439 33.7092 20.1996 33.7092 22.6078C33.7092 25.016 37.178 26.9717 41.4592 26.9717C45.7404 26.9717 49.214 25.016 49.214 22.6078C49.214 20.1996 45.7452 18.2439 41.4592 18.2439Z" fill="#7FDBCE"/>
<path d="M51.0725 25.7358C48.854 25.7358 47.0588 26.7478 47.0588 27.9932C47.0588 29.2386 48.854 30.2506 51.0725 30.2506C53.2909 30.2506 55.0861 29.2386 55.0861 27.9932C55.0909 26.7429 53.2909 25.7358 51.0725 25.7358Z" fill="#7FDBCE"/>
<path opacity="0.5" d="M51.0724 26.811C49.9145 26.811 48.9756 27.3413 48.9756 27.9932C48.9756 28.6451 49.9145 29.1754 51.0724 29.1754C52.2303 29.1754 53.1692 28.6451 53.1692 27.9932C53.1741 27.3413 52.2351 26.811 51.0724 26.811Z" fill="white"/>
<path d="M30.6784 13.9722C28.46 13.9722 26.6648 14.9841 26.6648 16.2295C26.6648 17.475 28.46 18.4869 30.6784 18.4869C32.8969 18.4869 34.692 17.475 34.692 16.2295C34.692 14.9841 32.8969 13.9722 30.6784 13.9722Z" fill="#7FDBCE"/>
<path opacity="0.5" d="M30.6784 17.4166C31.8364 17.4166 32.7752 16.8873 32.7752 16.2344C32.7752 15.5815 31.8364 15.0522 30.6784 15.0522C29.5203 15.0522 28.5815 15.5815 28.5815 16.2344C28.5815 16.8873 29.5203 17.4166 30.6784 17.4166Z" fill="white"/>
<path d="M37.4649 24.3251C36.9346 23.9942 36.6135 23.6537 36.4481 23.245L38.1168 22.2818L39.0266 22.7148L38.3795 23.0894C38.1801 23.2061 38.1265 23.2645 38.1995 23.3861C38.2628 23.4883 38.3892 23.5953 38.5547 23.6926L40.6466 22.4861C40.1552 21.878 39.8925 21.2261 41.1915 20.4769C42.3104 19.8298 43.6386 19.7325 44.6943 20.1509L45.7257 19.5574L46.3532 19.9222L45.3462 20.506C45.7646 20.7882 46.0662 21.1142 46.2219 21.5034L44.6456 22.4131L43.7553 21.9753L44.3586 21.625C44.5581 21.5082 44.6116 21.4499 44.5386 21.3282C44.4802 21.2553 44.4024 21.1726 44.3051 21.1044L42.3348 22.2429L42.3445 22.2477C42.7823 22.8461 43.118 23.5467 41.7607 24.3299C40.5542 25.0256 39.1968 25.084 38.1265 24.6753L36.9735 25.3419L36.3459 24.977L37.4649 24.3251ZM41.0017 23.0115L39.2552 24.0186C39.6639 24.111 40.1358 24.0624 40.6612 23.7607C41.0893 23.5126 41.1331 23.2645 41.0017 23.0115ZM41.9942 21.7126L43.6045 20.7834C43.2153 20.7006 42.7872 20.7493 42.3396 21.0071C41.9407 21.2407 41.8969 21.4596 41.9942 21.7126Z" fill="white"/>
<path d="M24.9378 20.7979L20.4084 18.1854L21.5225 17.5383L26.0518 20.1557L24.9378 20.7979Z" fill="white"/>
<path d="M48.0708 34.0742L43.5415 31.4617L44.6556 30.8147L49.1849 33.4321L48.0708 34.0742Z" fill="white"/>
<path d="M37.2024 14.1619L32.6731 11.5445L33.7872 10.9023L38.3165 13.5148L37.2024 14.1619Z" fill="white"/>
<path d="M60.3355 27.4387L55.8062 24.8214L56.9202 24.1792L61.4495 26.7917L60.3355 27.4387Z" fill="white"/>
<path d="M15.7188 16.3074V17.2366L48.3775 36.0933V35.1641L15.7188 16.3074Z" fill="#48B7A1"/>
<path d="M66.3582 24.7871V25.7163L48.3772 36.0934V35.1641L66.3582 24.7871Z" fill="#18A09C"/>
<path d="M66.3585 24.7871L48.3775 35.1642L15.7188 16.3075L33.6949 5.93042L66.3585 24.7871Z" fill="#7FDBCE"/>
<path opacity="0.5" d="M63.4734 24.8016L48.2168 33.6073L18.2825 16.3074L33.5342 7.50171L63.4734 24.8016Z" fill="white"/>
<path d="M41.4592 16.1858C37.178 16.1858 33.7092 18.1415 33.7092 20.5497C33.7092 22.9579 37.178 24.9136 41.4592 24.9136C45.7404 24.9136 49.214 22.9579 49.214 20.5497C49.214 18.1367 45.7452 16.1858 41.4592 16.1858Z" fill="#7FDBCE"/>
<path d="M51.0725 23.6731C48.854 23.6731 47.0588 24.685 47.0588 25.9305C47.0588 27.1759 48.854 28.1878 51.0725 28.1878C53.2909 28.1878 55.0861 27.1759 55.0861 25.9305C55.0909 24.685 53.2909 23.6731 51.0725 23.6731Z" fill="#7FDBCE"/>
<path opacity="0.5" d="M51.0724 24.7532C49.9145 24.7532 48.9756 25.2835 48.9756 25.9354C48.9756 26.5873 49.9145 27.1176 51.0724 27.1176C52.2303 27.1176 53.1692 26.5873 53.1692 25.9354C53.1741 25.2786 52.2351 24.7532 51.0724 24.7532Z" fill="white"/>
<path d="M30.6784 11.9146C28.46 11.9146 26.6648 12.9265 26.6648 14.1719C26.6648 15.4173 28.46 16.4293 30.6784 16.4293C32.8969 16.4293 34.692 15.4173 34.692 14.1719C34.692 12.9265 32.8969 11.9146 30.6784 11.9146Z" fill="#7FDBCE"/>
<path opacity="0.5" d="M30.6784 12.9895C29.5205 12.9895 28.5815 13.5198 28.5815 14.1717C28.5815 14.8236 29.5205 15.3539 30.6784 15.3539C31.8362 15.3539 32.7752 14.8236 32.7752 14.1717C32.7752 13.5198 31.8362 12.9895 30.6784 12.9895Z" fill="white"/>
<path d="M37.4649 22.2672C36.9346 21.9364 36.6135 21.5958 36.4481 21.1872L38.1168 20.2239L39.0266 20.6569L38.3795 21.0315C38.1801 21.1483 38.1265 21.2066 38.1995 21.3283C38.2628 21.4304 38.3892 21.5375 38.5547 21.6348L40.6466 20.4282C40.1552 19.8201 39.8925 19.1682 41.1915 18.419C42.3104 17.772 43.6386 17.6747 44.6943 18.093L45.7257 17.4995L46.3532 17.8644L45.3462 18.4482C45.7646 18.7304 46.0662 19.0563 46.2219 19.4455L44.6456 20.3553L43.7553 19.9174L44.3586 19.5671C44.5581 19.4504 44.6116 19.392 44.5386 19.2704C44.4802 19.1974 44.4024 19.1147 44.3051 19.0466L42.3348 20.185L42.3445 20.1899C42.7823 20.7882 43.118 21.4888 41.7607 22.2721C40.5542 22.9678 39.1968 23.0261 38.1265 22.6175L36.9735 23.284L36.3459 22.9191L37.4649 22.2672ZM41.0017 20.9488L39.2552 21.9558C39.6639 22.0483 40.1358 21.9996 40.6612 21.698C41.0893 21.4548 41.1331 21.2066 41.0017 20.9488ZM41.9942 19.6498L43.6045 18.7206C43.2153 18.6379 42.7872 18.6866 42.3396 18.9444C41.9407 19.1779 41.8969 19.3969 41.9942 19.6498Z" fill="white"/>
<path d="M24.9378 18.7398L20.4084 16.1224L21.5225 15.4802L26.0518 18.0927L24.9378 18.7398Z" fill="white"/>
<path d="M48.0708 32.0166L43.5415 29.3993L44.6556 28.7571L49.1849 31.3696L48.0708 32.0166Z" fill="white"/>
<path d="M37.2024 12.0991L32.6731 9.48664L33.7872 8.8396L38.3165 11.457L37.2024 12.0991Z" fill="white"/>
<path d="M60.3355 25.376L55.8062 22.7635L56.9202 22.1165L61.4495 24.7338L60.3355 25.376Z" fill="white"/>
<path d="M15.7188 14.4636V15.3928L48.3775 34.2496V33.3203L15.7188 14.4636Z" fill="#48B7A1"/>
<path d="M66.3582 22.9434V23.8677L48.3772 34.2496V33.3204L66.3582 22.9434Z" fill="#18A09C"/>
<path d="M66.3585 22.9434L48.3775 33.3204L15.7188 14.4637L33.6949 4.08667L66.3585 22.9434Z" fill="#7FDBCE"/>
<path opacity="0.5" d="M63.4734 22.9579L48.2168 31.7635L18.2825 14.4636L33.5342 5.65796L63.4734 22.9579Z" fill="white"/>
<path d="M41.4592 14.3372C37.178 14.3372 33.7092 16.2929 33.7092 18.7011C33.7092 21.1092 37.178 23.065 41.4592 23.065C45.7404 23.065 49.214 21.1092 49.214 18.7011C49.214 16.2929 45.7452 14.3372 41.4592 14.3372Z" fill="#7FDBCE"/>
<path d="M51.0725 21.8291C48.854 21.8291 47.0588 22.841 47.0588 24.0865C47.0588 25.3319 48.854 26.3438 51.0725 26.3438C53.2909 26.3438 55.0861 25.3319 55.0861 24.0865C55.0909 22.841 53.2909 21.8291 51.0725 21.8291Z" fill="#7FDBCE"/>
<path opacity="0.5" d="M51.0724 22.9092C49.9145 22.9092 48.9756 23.4395 48.9756 24.0914C48.9756 24.7433 49.9145 25.2736 51.0724 25.2736C52.2303 25.2736 53.1692 24.7433 53.1692 24.0914C53.1741 23.4346 52.2351 22.9092 51.0724 22.9092Z" fill="white"/>
<path d="M30.6784 10.0657C28.46 10.0657 26.6648 11.0776 26.6648 12.323C26.6648 13.5685 28.46 14.5804 30.6784 14.5804C32.8969 14.5804 34.692 13.5685 34.692 12.323C34.692 11.0776 32.8969 10.0657 30.6784 10.0657Z" fill="#7FDBCE"/>
<path opacity="0.5" d="M30.6784 11.1455C29.5205 11.1455 28.5815 11.6758 28.5815 12.3277C28.5815 12.9796 29.5205 13.5099 30.6784 13.5099C31.8362 13.5099 32.7752 12.9796 32.7752 12.3277C32.7752 11.6758 31.8362 11.1455 30.6784 11.1455Z" fill="white"/>
<path d="M37.4649 20.4232C36.9346 20.0924 36.6135 19.7518 36.4481 19.3432L38.1168 18.3799L39.0266 18.8129L38.3795 19.1875C38.1801 19.3043 38.1265 19.3626 38.1995 19.4843C38.2628 19.5864 38.3892 19.6935 38.5547 19.7908L40.6466 18.5842C40.1552 17.9761 39.8925 17.3242 41.1915 16.575C42.3104 15.928 43.6386 15.8307 44.6943 16.249L45.7257 15.6555L46.3532 16.0204L45.3462 16.6042C45.7646 16.8864 46.0662 17.2123 46.2219 17.6015L44.6456 18.5113L43.7553 18.0734L44.3586 17.7231C44.5581 17.6064 44.6116 17.548 44.5386 17.4264C44.4802 17.3534 44.4024 17.2707 44.3051 17.2026L42.3348 18.341L42.3445 18.3459C42.7823 18.9443 43.118 19.6448 41.7607 20.4281C40.5542 21.1238 39.1968 21.1822 38.1265 20.7735L36.9735 21.44L36.3459 21.0751L37.4649 20.4232ZM41.0017 19.1048L39.2552 20.1119C39.6639 20.2043 40.1358 20.1556 40.6612 19.854C41.0893 19.6059 41.1331 19.3626 41.0017 19.1048ZM41.9942 17.8058L43.6045 16.8766C43.2153 16.7939 42.7872 16.8426 42.3396 17.1004C41.9407 17.3339 41.8969 17.5529 41.9942 17.8058Z" fill="white"/>
<path d="M24.9378 16.896L20.4084 14.2787L21.5225 13.6365L26.0518 16.249L24.9378 16.896Z" fill="white"/>
<path d="M48.0708 30.1678L43.5415 27.5553L44.6556 26.9131L49.1849 29.5256L48.0708 30.1678Z" fill="white"/>
<path d="M37.2024 10.2554L32.6731 7.63803L33.7872 6.99585L38.3165 9.61322L37.2024 10.2554Z" fill="white"/>
<path d="M60.3355 23.532L55.8062 20.9146L56.9202 20.2725L61.4495 22.8898L60.3355 23.532Z" fill="white"/>
<path d="M15.7188 12.2258V13.155L48.3775 32.0118V31.0826L15.7188 12.2258Z" fill="#48B7A1"/>
<path d="M66.3582 20.7004V21.6297L48.3772 32.0116V31.0823L66.3582 20.7004Z" fill="#18A09C"/>
<path d="M66.3585 20.7007L48.3775 31.0826L15.7188 12.2259L33.6949 1.84399L66.3585 20.7007Z" fill="#7FDBCE"/>
<path opacity="0.5" d="M63.4734 20.7152L48.2168 29.5257L18.2825 12.2258L33.5342 3.41528L63.4734 20.7152Z" fill="white"/>
<path d="M41.4592 12.0991C37.178 12.0991 33.7092 14.0548 33.7092 16.463C33.7092 18.8712 37.178 20.8269 41.4592 20.8269C45.7404 20.8269 49.214 18.8712 49.214 16.463C49.214 14.0548 45.7452 12.0991 41.4592 12.0991Z" fill="#7FDBCE"/>
<path d="M51.0725 19.5916C48.854 19.5916 47.0588 20.6035 47.0588 21.8489C47.0588 23.0943 48.854 24.1063 51.0725 24.1063C53.2909 24.1063 55.0861 23.0943 55.0861 21.8489C55.0909 20.6035 53.2909 19.5916 51.0725 19.5916Z" fill="#7FDBCE"/>
<path opacity="0.5" d="M51.0724 20.6665C49.9145 20.6665 48.9756 21.1968 48.9756 21.8487C48.9756 22.5006 49.9145 23.0309 51.0724 23.0309C52.2303 23.0309 53.1692 22.5006 53.1692 21.8487C53.1741 21.1968 52.2351 20.6665 51.0724 20.6665Z" fill="white"/>
<path d="M30.6784 7.82788C28.46 7.82788 26.6648 8.8398 26.6648 10.0852C26.6648 11.3307 28.46 12.3426 30.6784 12.3426C32.8969 12.3426 34.692 11.3307 34.692 10.0852C34.692 8.8398 32.8969 7.82788 30.6784 7.82788Z" fill="#7FDBCE"/>
<path opacity="0.5" d="M30.6784 8.90796C29.5205 8.90796 28.5815 9.43824 28.5815 10.0902C28.5815 10.7421 29.5205 11.2723 30.6784 11.2723C31.8362 11.2723 32.7752 10.7421 32.7752 10.0902C32.7752 9.43824 31.8362 8.90796 30.6784 8.90796Z" fill="white"/>
<path d="M37.4649 18.1805C36.9346 17.8497 36.6135 17.5092 36.4481 17.1005L38.1168 16.1372L39.0266 16.5702L38.3795 16.9448C38.1801 17.0616 38.1265 17.12 38.1995 17.2416C38.2628 17.3438 38.3892 17.4508 38.5547 17.5481L40.6466 16.3416C40.1552 15.7334 39.8925 15.0815 41.1915 14.3323C42.3104 13.6853 43.6386 13.588 44.6943 14.0064L45.7257 13.4128L46.3532 13.7777L45.3462 14.3615C45.7646 14.6437 46.0662 14.9696 46.2219 15.3588L44.6456 16.2686L43.7553 15.8307L44.3586 15.4805C44.5581 15.3637 44.6116 15.3053 44.5386 15.1837C44.4802 15.1107 44.4024 15.028 44.3051 14.9599L42.3348 16.0983L42.3445 16.1032C42.7823 16.7016 43.118 17.4021 41.7607 18.1854C40.5542 18.8811 39.1968 18.9395 38.1265 18.5308L36.9735 19.1973L36.3459 18.8324L37.4649 18.1805ZM41.0017 16.867L39.2552 17.874C39.6639 17.9665 40.1358 17.9178 40.6612 17.6162C41.0893 17.3681 41.1331 17.12 41.0017 16.867ZM41.9942 15.568L43.6045 14.6388C43.2153 14.5561 42.7872 14.6048 42.3396 14.8626C41.9407 15.0961 41.8969 15.3151 41.9942 15.568Z" fill="white"/>
<path d="M24.9378 14.6533L20.4084 12.0408L21.5225 11.3938L26.0518 14.0112L24.9378 14.6533Z" fill="white"/>
<path d="M48.0708 27.93L43.5415 25.3175L44.6556 24.6704L49.1849 27.2878L48.0708 27.93Z" fill="white"/>
<path d="M37.2024 8.0176L32.6731 5.40024L33.7872 4.75806L38.3165 7.37056L37.2024 8.0176Z" fill="white"/>
<path d="M60.3355 21.294L55.8062 18.6766L56.9202 18.0344L61.4495 20.6469L60.3355 21.294Z" fill="white"/>
<path d="M15.7188 10.3818V11.3062L48.3775 30.1629V29.2386L15.7188 10.3818Z" fill="#48B7A1"/>
<path d="M66.3582 18.8569V19.7861L48.3772 30.1632V29.2388L66.3582 18.8569Z" fill="#18A09C"/>
<path d="M66.3585 18.8567L48.3775 29.2386L15.7188 10.3819L33.6949 0L66.3585 18.8567Z" fill="#7FDBCE"/>
<path opacity="0.5" d="M63.4734 18.8715L48.2168 27.682L18.2825 10.382L33.5342 1.57153L63.4734 18.8715Z" fill="white"/>
<path d="M41.4592 10.2556C37.178 10.2556 33.7092 12.2113 33.7092 14.6195C33.7092 17.0277 37.178 18.9834 41.4592 18.9834C45.7404 18.9834 49.214 17.0277 49.214 14.6195C49.214 12.2113 45.7452 10.2556 41.4592 10.2556Z" fill="#7FDBCE"/>
<path d="M51.0725 17.7424C48.854 17.7424 47.0588 18.7544 47.0588 19.9998C47.0588 21.2452 48.854 22.2571 51.0725 22.2571C53.2909 22.2571 55.0861 21.2452 55.0861 19.9998C55.0909 18.7544 53.2909 17.7424 51.0725 17.7424Z" fill="#7FDBCE"/>
<path opacity="0.5" d="M51.0724 18.8225C49.9145 18.8225 48.9756 19.3528 48.9756 20.0047C48.9756 20.6566 49.9145 21.1869 51.0724 21.1869C52.2303 21.1869 53.1692 20.6566 53.1692 20.0047C53.1741 19.3528 52.2351 18.8225 51.0724 18.8225Z" fill="white"/>
<path d="M30.6784 5.98389C28.46 5.98389 26.6648 6.99581 26.6648 8.24125C26.6648 9.48668 28.46 10.4986 30.6784 10.4986C32.8969 10.4986 34.692 9.48668 34.692 8.24125C34.692 6.99581 32.8969 5.98389 30.6784 5.98389Z" fill="#7FDBCE"/>
<path opacity="0.5" d="M30.6784 7.06396C29.5205 7.06396 28.5815 7.59425 28.5815 8.24616C28.5815 8.89807 29.5205 9.42835 30.6784 9.42835C31.8362 9.42835 32.7752 8.89807 32.7752 8.24616C32.7752 7.58938 31.8362 7.06396 30.6784 7.06396Z" fill="white"/>
<path d="M37.4649 16.3365C36.9346 16.0057 36.6135 15.6652 36.4481 15.2565L38.1168 14.2932L39.0266 14.7262L38.3795 15.1008C38.1801 15.2176 38.1265 15.276 38.1995 15.3976C38.2628 15.4998 38.3892 15.6068 38.5547 15.7041L40.6466 14.4976C40.1552 13.8895 39.8925 13.2375 41.1915 12.4883C42.3104 11.8413 43.6386 11.744 44.6943 12.1624L45.7257 11.5688L46.3532 11.9337L45.3462 12.5175C45.7646 12.7997 46.0662 13.1256 46.2219 13.5148L44.6456 14.4246L43.7553 13.9868L44.3586 13.6365C44.5581 13.5197 44.6116 13.4613 44.5386 13.3397C44.4802 13.2667 44.4024 13.184 44.3051 13.1159L42.3348 14.2543L42.3445 14.2592C42.7823 14.8576 43.118 15.5581 41.7607 16.3414C40.5542 17.0371 39.1968 17.0955 38.1265 16.6868L36.9735 17.3533L36.3459 16.9885L37.4649 16.3365ZM41.0017 15.023L39.2552 16.03C39.6639 16.1225 40.1358 16.0738 40.6612 15.7722C41.0893 15.5241 41.1331 15.276 41.0017 15.023ZM41.9942 13.7192L43.6045 12.79C43.2153 12.7073 42.7872 12.7559 42.3396 13.0138C41.9407 13.2521 41.8969 13.4711 41.9942 13.7192Z" fill="white"/>
<path d="M24.9378 12.8096L20.4084 10.1922L21.5225 9.55005L26.0518 12.1674L24.9378 12.8096Z" fill="white"/>
<path d="M48.0708 26.086L43.5415 23.4686L44.6556 22.8264L49.1849 25.4438L48.0708 26.086Z" fill="white"/>
<path d="M37.2024 6.16875L32.6731 3.55624L33.7872 2.91406L38.3165 5.52657L37.2024 6.16875Z" fill="white"/>
<path d="M60.3355 19.4456L55.8062 16.8331L56.9202 16.1909L61.4495 18.8034L60.3355 19.4456Z" fill="white"/>
<path d="M26.4998 30.6641C25.303 29.9441 23.6051 29.4868 21.7175 29.4868C19.825 29.4868 18.1271 29.9393 16.9352 30.6641L15.1741 31.1944V33.1696C15.1741 33.7388 15.4125 34.2788 15.826 34.7605V31.102H16.3903V35.3005C16.6774 35.5243 17.0033 35.7335 17.3731 35.9135V32.2307H17.9374V36.1665C18.2828 36.3027 18.6525 36.4243 19.0466 36.5216V32.6004H19.6109V36.6432C20.0147 36.7211 20.438 36.7746 20.8758 36.8086V32.7658H21.4402V36.833C21.5375 36.833 21.6299 36.8427 21.7224 36.8427C22.0678 36.8427 22.4035 36.8232 22.7294 36.794V32.5177H23.2938V36.7308C23.7365 36.6676 24.1549 36.5848 24.5587 36.473V32.6928H25.123V36.3124C25.5365 36.1713 25.9257 36.001 26.276 35.8113V31.5982H26.8403V35.461C27.1857 35.2178 27.4776 34.9502 27.7063 34.6583V30.6593H26.4998V30.6641Z" fill="#FAB234"/>
<path d="M15.8262 31.1069V34.7654C15.9867 34.9551 16.1765 35.1352 16.3905 35.3054V31.1069H15.8262V31.1069Z" fill="#F79826"/>
<path d="M27.6965 34.6631C28.0565 34.2058 28.2609 33.7047 28.2609 33.1695V31.2235L27.6965 30.6641V34.6631Z" fill="#F79826"/>
<path d="M17.3682 32.2305V35.9133C17.5482 36.0057 17.733 36.0884 17.9325 36.1662V32.2305H17.3682V32.2305Z" fill="#F79826"/>
<path d="M26.2664 31.5981V35.8112C26.4658 35.6993 26.6556 35.5826 26.8307 35.461V31.5981H26.2664Z" fill="#F79826"/>
<path d="M19.0417 32.6101V36.5313C19.2266 36.5799 19.4115 36.6189 19.6061 36.6578V32.615H19.0417V32.6101Z" fill="#F79826"/>
<path d="M20.8708 32.7756V36.8184C21.0557 36.833 21.2455 36.8379 21.4352 36.8428V32.7756H20.8708Z" fill="#F79826"/>
<path d="M22.7246 32.5225V36.7988C22.9143 36.7842 23.1041 36.7599 23.2889 36.7355V32.5225H22.7246Z" fill="#F79826"/>
<path d="M24.5537 32.6929V36.4827C24.7483 36.4292 24.9332 36.3708 25.1181 36.3076V32.6929H24.5537Z" fill="#F79826"/>
<path d="M28.2609 31.2236C28.2609 33.2571 25.3322 34.9064 21.7175 34.9064C18.1028 34.9064 15.1741 33.2571 15.1741 31.2236C15.1741 29.19 18.1028 27.5408 21.7175 27.5408C25.3322 27.5408 28.2609 29.19 28.2609 31.2236Z" fill="#FFC36C"/>
<path d="M27.4144 31.0778C27.4144 32.6783 24.8846 33.9773 21.7613 33.9773C18.638 33.9773 16.1082 32.6783 16.1082 31.0778C16.1082 29.4772 18.638 28.1782 21.7613 28.1782C24.8846 28.1782 27.4144 29.4772 27.4144 31.0778Z" fill="#FAB234"/>
<path d="M26.7575 31.0874C26.7575 32.4837 24.5148 33.6124 21.7514 33.6124C18.9881 33.6124 16.7454 32.4837 16.7454 31.0874C16.7454 29.6912 18.9881 28.5625 21.7514 28.5625C24.5148 28.5625 26.7575 29.6912 26.7575 31.0874Z" fill="#FFC36C"/>
<path d="M26.3391 31.0192C26.3391 32.2792 24.3104 33.3058 21.8098 33.3058C19.3092 33.3058 17.2805 32.2841 17.2805 31.0192C17.2805 29.7592 19.3092 28.7327 21.8098 28.7327C24.3104 28.7327 26.3391 29.7543 26.3391 31.0192Z" fill="#FFCC88"/>
<path d="M21.7078 34.128C18.5504 34.128 15.9768 32.7706 15.9768 31.102C15.9768 29.4333 18.5455 28.0759 21.7078 28.0759C24.8652 28.0759 27.4387 29.4333 27.4387 31.102C27.4387 32.7706 24.87 34.128 21.7078 34.128ZM21.7078 28.3289C18.6866 28.3289 16.2298 29.5743 16.2298 31.102C16.2298 32.6344 18.6866 33.875 21.7078 33.875C24.7289 33.875 27.1858 32.6296 27.1858 31.102C27.1858 29.5743 24.7289 28.3289 21.7078 28.3289Z" fill="#F79826"/>
<path d="M23.8628 32.6637C23.4688 32.8534 23.0747 32.9605 22.5979 33.0043L21.5131 32.3183L22.0287 31.9875L22.452 32.2551C22.5834 32.3378 22.6515 32.3621 22.7925 32.3378C22.9093 32.3183 23.0407 32.2745 23.1526 32.2161L21.7904 31.355C21.0801 31.5156 20.3211 31.5837 19.4746 31.0485C18.7449 30.5864 18.6524 30.0707 19.1487 29.6815L18.4773 29.2582L18.9054 29.0344L19.5622 29.4479C19.893 29.2971 20.2773 29.1998 20.7298 29.156L21.7563 29.808L21.2406 30.129L20.8465 29.8809C20.7152 29.7982 20.6471 29.7739 20.506 29.7982C20.4233 29.8177 20.326 29.842 20.2433 29.8761L21.5276 30.6885L21.5325 30.6837C22.2331 30.5426 23.0455 30.4453 23.9261 31.0047C24.7142 31.501 24.758 32.0264 24.2666 32.4205L25.0158 32.8972L24.5877 33.121L23.8628 32.6637ZM20.9049 30.7956L19.8541 30.129C19.7519 30.275 19.8054 30.4404 20.0973 30.6253C20.36 30.7956 20.613 30.8199 20.9049 30.7956ZM22.3936 31.2383L23.532 31.9583C23.6488 31.8075 23.5953 31.6226 23.2547 31.4037C22.9774 31.2285 22.6904 31.1993 22.3936 31.2383Z" fill="white"/>
<path d="M11.3257 26.1832C10.1289 25.4632 8.43104 25.0059 6.54342 25.0059C4.65094 25.0059 2.95305 25.4583 1.76113 26.1832L0 26.7135V28.6887C0 29.2579 0.238385 29.7979 0.65191 30.2795V26.621H1.21625V30.8195C1.50328 31.0433 1.82924 31.2525 2.19898 31.4325V27.7497H2.76332V31.6855C3.10873 31.8217 3.47847 31.9433 3.87254 32.0406V28.1195H4.43688V32.1623C4.84067 32.2401 5.26393 32.2936 5.70178 32.3277V28.2849H6.26612V32.352C6.36342 32.352 6.45585 32.3617 6.54829 32.3617C6.8937 32.3617 7.22938 32.3423 7.55534 32.3131V28.0368H8.11968V32.2498C8.56239 32.1866 8.98078 32.1039 9.38458 31.992V28.2022H9.94892V31.8217C10.3624 31.6806 10.7516 31.5104 11.1019 31.3206V27.1075H11.6663V30.9703C12.0117 30.7271 12.3036 30.4595 12.5274 30.1676V26.1686H11.3257V26.1832Z" fill="#FAB234"/>
<path d="M0.651855 26.626V30.2845C0.8124 30.4742 1.00214 30.6542 1.21619 30.8245V26.626H0.651855Z" fill="#F79826"/>
<path d="M12.5225 30.1824C12.8825 29.7251 13.0868 29.224 13.0868 28.6888V26.7428L12.5225 26.1833V30.1824Z" fill="#F79826"/>
<path d="M2.19409 27.7546V31.4374C2.3741 31.5299 2.55897 31.6126 2.75843 31.6904V27.7546H2.19409Z" fill="#F79826"/>
<path d="M11.0923 27.1174V31.3305C11.2918 31.2186 11.4815 31.1019 11.6566 30.9802V27.1174H11.0923V27.1174Z" fill="#F79826"/>
<path d="M3.86768 28.1294V32.0506C4.05255 32.0992 4.23742 32.1382 4.43202 32.1771V28.1343H3.86768V28.1294Z" fill="#F79826"/>
<path d="M5.69189 28.2949V32.3377C5.87676 32.3523 6.0665 32.3572 6.25623 32.3621V28.2949H5.69189Z" fill="#F79826"/>
<path d="M7.55054 28.0466V32.323C7.74027 32.3084 7.93001 32.284 8.11488 32.2597V28.0466H7.55054V28.0466Z" fill="#F79826"/>
<path d="M9.37988 28.2121V32.002C9.57448 31.9485 9.75935 31.8901 9.94422 31.8268V28.2073H9.37988V28.2121Z" fill="#F79826"/>
<path d="M13.0868 26.7429C13.0868 28.7764 10.1581 30.4257 6.54342 30.4257C2.92873 30.4257 0 28.7764 0 26.7429C0 24.7093 2.92873 23.0601 6.54342 23.0601C10.1581 23.0601 13.0868 24.7093 13.0868 26.7429Z" fill="#FFC36C"/>
<path d="M12.2403 26.6017C12.2403 28.2023 9.71053 29.5012 6.58721 29.5012C3.46388 29.5012 0.934082 28.2023 0.934082 26.6017C0.934082 25.0011 3.46388 23.7021 6.58721 23.7021C9.71053 23.7021 12.2403 24.9962 12.2403 26.6017Z" fill="#FAB234"/>
<path d="M11.5834 26.6065C11.5834 28.0027 9.34067 29.1314 6.57735 29.1314C3.80917 29.1314 1.56641 28.0027 1.56641 26.6065C1.56641 25.2102 3.80917 24.0815 6.57735 24.0815C9.34067 24.0815 11.5834 25.2102 11.5834 26.6065Z" fill="#FFC36C"/>
<path d="M11.1653 26.5385C11.1653 27.7985 9.13661 28.8251 6.636 28.8251C4.13539 28.8251 2.10669 27.8034 2.10669 26.5385C2.10669 25.2785 4.13539 24.252 6.636 24.252C9.13661 24.2568 11.1653 25.2785 11.1653 26.5385Z" fill="#FFCC88"/>
<path d="M6.53346 29.6522C3.37607 29.6522 0.80249 28.2948 0.80249 26.6261C0.80249 24.9574 3.37121 23.6001 6.53346 23.6001C9.69084 23.6001 12.2644 24.9574 12.2644 26.6261C12.2644 28.2948 9.6957 29.6522 6.53346 29.6522ZM6.53346 23.8482C3.51229 23.8482 1.05547 25.0937 1.05547 26.6213C1.05547 28.1537 3.51229 29.3943 6.53346 29.3943C9.55462 29.3943 12.0114 28.1489 12.0114 26.6213C12.0114 25.0937 9.55462 23.8482 6.53346 23.8482Z" fill="#F79826"/>
<path d="M8.68389 28.1879C8.28983 28.3776 7.89576 28.4846 7.41899 28.5284L6.3341 27.8425L6.84979 27.5116L7.27304 27.7792C7.4044 27.8619 7.47251 27.8863 7.61359 27.8619C7.73035 27.8425 7.86171 27.7987 7.9736 27.7403L6.6114 26.8792C5.90111 27.0397 5.14217 27.1079 4.29566 26.5727C3.56591 26.1105 3.47348 25.5948 3.96971 25.2056L3.29834 24.7824L3.72646 24.5586L4.38323 24.9721C4.71405 24.8213 5.09839 24.724 5.55083 24.6802L6.57735 25.3321L6.05679 25.6532L5.66273 25.4051C5.53137 25.3224 5.46326 25.2981 5.32218 25.3224C5.23947 25.3419 5.14217 25.3662 5.05947 25.4002L6.34383 26.2127L6.34869 26.2078C7.04925 26.0667 7.86171 25.9694 8.74227 26.5289C9.5304 27.0251 9.57418 27.5506 9.08282 27.9446L9.83203 28.4214L9.40391 28.6452L8.68389 28.1879ZM5.73084 26.3149L4.68 25.6484C4.57783 25.7943 4.63135 25.9597 4.92325 26.1446C5.18596 26.3149 5.43894 26.344 5.73084 26.3149ZM7.21953 26.7576L8.35794 27.4776C8.4747 27.3268 8.42118 27.1419 8.08063 26.923C7.80333 26.7478 7.51629 26.7235 7.21953 26.7576Z" fill="white"/>
<path d="M11.3257 22.7926C10.1289 22.0725 8.43104 21.6152 6.54342 21.6152C4.65094 21.6152 2.95305 22.0677 1.76113 22.7926L0 23.3228V25.298C0 25.8672 0.238385 26.4073 0.65191 26.8889V23.2304H1.21625V27.4289C1.50328 27.6527 1.82924 27.8619 2.19898 28.0419V24.3591H2.76332V28.2949C3.10873 28.4311 3.47847 28.5527 3.87254 28.65V24.7288H4.43688V28.7716C4.84067 28.8495 5.26393 28.903 5.70178 28.9371V24.9088H6.26612V28.976C6.36342 28.976 6.45585 28.9857 6.54829 28.9857C6.8937 28.9857 7.22938 28.9662 7.55534 28.9371V24.6607H8.11968V28.8738C8.56239 28.8106 8.98078 28.7279 9.38458 28.616V24.8261H9.94892V28.4457C10.3624 28.3046 10.7516 28.1343 11.1019 27.9446V23.7315H11.6663V27.5943C12.0117 27.3511 12.3036 27.0835 12.5274 26.7916V22.7926H11.3257Z" fill="#FAB234"/>
<path d="M0.651855 23.2351V26.8936C0.8124 27.0833 1.00214 27.2633 1.21619 27.4336V23.2351H0.651855Z" fill="#F79826"/>
<path d="M12.5225 26.7915C12.8825 26.3342 13.0868 25.8331 13.0868 25.298V23.352L12.5225 22.7925V26.7915Z" fill="#F79826"/>
<path d="M2.19409 24.3638V28.0466C2.3741 28.139 2.55897 28.2217 2.75843 28.2995V24.3638H2.19409Z" fill="#F79826"/>
<path d="M11.0923 23.7266V27.9396C11.2918 27.8278 11.4815 27.711 11.6566 27.5894V23.7266H11.0923V23.7266Z" fill="#F79826"/>
<path d="M3.86768 24.7385V28.6597C4.05255 28.7084 4.23742 28.7473 4.43202 28.7862V24.7434H3.86768V24.7385Z" fill="#F79826"/>
<path d="M5.69189 24.9087V28.9515C5.87676 28.9661 6.0665 28.971 6.25623 28.9758V24.9087H5.69189Z" fill="#F79826"/>
<path d="M7.55054 24.6558V28.9321C7.74027 28.9175 7.93001 28.8932 8.11488 28.8688V24.6558H7.55054V24.6558Z" fill="#F79826"/>
<path d="M9.37988 24.8213V28.6111C9.57448 28.5576 9.75935 28.4992 9.94422 28.436V24.8164H9.37988V24.8213Z" fill="#F79826"/>
<path d="M13.0868 23.3566C13.0868 25.3902 10.1581 27.0394 6.54342 27.0394C2.92873 27.0394 0 25.3902 0 23.3566C0 21.3231 2.92873 19.6738 6.54342 19.6738C10.1581 19.6738 13.0868 21.3182 13.0868 23.3566Z" fill="#FFC36C"/>
<path d="M12.2403 23.2108C12.2403 24.8114 9.71053 26.1104 6.58721 26.1104C3.46388 26.1104 0.934082 24.8114 0.934082 23.2108C0.934082 21.6102 3.46388 20.3113 6.58721 20.3113C9.71053 20.3113 12.2403 21.6102 12.2403 23.2108Z" fill="#FAB234"/>
<path d="M11.5834 23.2156C11.5834 24.6119 9.34067 25.7405 6.57735 25.7405C3.80917 25.7405 1.56641 24.6119 1.56641 23.2156C1.56641 21.8194 3.80917 20.6907 6.57735 20.6907C9.34067 20.6907 11.5834 21.8242 11.5834 23.2156Z" fill="#FFC36C"/>
<path d="M11.1653 23.1476C11.1653 24.4077 9.13661 25.4342 6.636 25.4342C4.13539 25.4342 2.10669 24.4125 2.10669 23.1476C2.10669 21.8876 4.13539 20.8611 6.636 20.8611C9.13661 20.8659 11.1653 21.8876 11.1653 23.1476Z" fill="#FFCC88"/>
<path d="M6.53346 26.2613C3.37607 26.2613 0.80249 24.9039 0.80249 23.2353C0.80249 21.5666 3.37121 20.2092 6.53346 20.2092C9.69084 20.2092 12.2644 21.5666 12.2644 23.2353C12.2644 24.9039 9.6957 26.2613 6.53346 26.2613ZM6.53346 20.4622C3.51229 20.4622 1.05547 21.7076 1.05547 23.2353C1.05547 24.7677 3.51229 26.0083 6.53346 26.0083C9.55462 26.0083 12.0114 24.7629 12.0114 23.2353C12.0114 21.7028 9.55462 20.4622 6.53346 20.4622Z" fill="#F79826"/>
<path d="M8.68389 24.797C8.28983 24.9867 7.89576 25.0938 7.41899 25.1376L6.3341 24.4516L6.84979 24.1208L7.27304 24.3884C7.4044 24.4711 7.47251 24.4954 7.61359 24.4711C7.73035 24.4516 7.86171 24.4078 7.9736 24.3494L6.6114 23.4883C5.90111 23.6489 5.14217 23.717 4.29566 23.1818C3.56591 22.7197 3.47348 22.204 3.96971 21.8148L3.29834 21.3915L3.72646 21.1677L4.38323 21.5813C4.71405 21.4304 5.09839 21.3331 5.55083 21.2893L6.57735 21.9413L6.05679 22.2623L5.66273 22.0142C5.53137 21.9315 5.46326 21.9072 5.32218 21.9315C5.23947 21.951 5.14217 21.9753 5.05947 22.0094L6.34383 22.8218L6.34869 22.817C7.04925 22.6759 7.86171 22.5786 8.74227 23.138C9.5304 23.6343 9.57418 24.1597 9.08282 24.5538L9.83203 25.0305L9.40391 25.2543L8.68389 24.797ZM5.73084 22.924L4.68 22.2575C4.57783 22.4034 4.63135 22.5688 4.92325 22.7537C5.18596 22.924 5.43894 22.9532 5.73084 22.924ZM7.21953 23.3716L8.35794 24.0916C8.4747 23.9408 8.42118 23.7559 8.08063 23.537C7.80333 23.3618 7.51629 23.3326 7.21953 23.3716Z" fill="white"/>
</svg>
