<svg width="28" height="32" viewBox="0 0 28 32" fill="none" xmlns="http://www.w3.org/2000/svg">
<path d="M6 0C4.9 0 4 0.9 4 2V30C4 31.1 4.9 32 6 32H26C27.1 32 28 31.1 28 30V8L20 0H6Z" fill="#E2E5E7"/>
<path d="M22 8H28L20 0V6C20 7.1 20.9 8 22 8Z" fill="#B0B7BD"/>
<path d="M28 14L22 8H28V14Z" fill="#CAD1D8"/>
<path d="M24 26C24 26.55 23.55 27 23 27H1C0.45 27 0 26.55 0 26V16C0 15.45 0.45 15 1 15H23C23.55 15 24 15.45 24 16V26Z" fill="#50BEE8"/>
<path d="M3.78637 24C3.52237 24 3.23438 23.855 3.23438 23.504V18.963C3.23438 18.675 3.52237 18.467 3.78637 18.467H5.61737C9.27137 18.467 9.19038 24 5.68837 24H3.78637ZM4.29037 19.442V23.024H5.61737C7.77637 23.024 7.87138 19.442 5.61737 19.442H4.29037Z" fill="white"/>
<path d="M12.2513 24.0801C10.7723 24.1441 9.23633 23.1601 9.23633 21.2011C9.23633 19.2341 10.7713 18.2671 12.2513 18.2671C13.6503 18.3381 15.1133 19.3061 15.1133 21.2011C15.1133 23.0971 13.6503 24.0801 12.2513 24.0801ZM12.1633 19.3071C11.2673 19.3071 10.2923 19.9391 10.2923 21.2021C10.2923 22.4581 11.2683 23.0981 12.1633 23.0981C13.0833 23.0981 14.0663 22.4581 14.0663 21.2021C14.0663 19.9381 13.0833 19.3071 12.1633 19.3071Z" fill="white"/>
<path d="M16.0527 21.193C16.0527 19.65 17.0207 18.323 18.8597 18.323C19.5557 18.323 20.1077 18.531 20.6907 19.035C20.9067 19.234 20.9307 19.586 20.7147 19.81C20.4987 20.001 20.1707 19.978 19.9787 19.786C19.6517 19.442 19.3157 19.347 18.8597 19.347C17.6287 19.347 17.0377 20.219 17.0377 21.194C17.0377 22.186 17.6207 23.097 18.8597 23.097C19.3157 23.097 19.7397 22.912 20.1077 22.585C20.3547 22.393 20.6987 22.488 20.8427 22.681C20.9707 22.857 21.0337 23.153 20.7547 23.432C20.1947 23.953 19.5237 24.057 18.8587 24.057C16.9247 24.057 16.0527 22.736 16.0527 21.193Z" fill="white"/>
<path d="M23 27H4V28H23C23.55 28 24 27.55 24 27V26C24 26.55 23.55 27 23 27Z" fill="#CAD1D8"/>
</svg>
