<svg width="50" height="50" viewBox="0 0 50 50" fill="none" xmlns="http://www.w3.org/2000/svg">
<path d="M48.6437 27.5676L48.5807 35.6324C48.5807 36.1558 48.3723 36.6566 48.0012 37.0279L38.8486 46.1822C38.5203 46.5105 38.3359 46.9558 38.3359 47.4203V48.257H29.5146C29.5146 48.1822 29.5148 42.6836 29.5145 42.6088C29.5039 40.8177 30.2074 39.0863 31.4846 37.8092C35.6758 33.622 34.6869 34.6103 36.3031 32.9939C36.9492 32.3478 38.0068 32.3513 38.6477 33.0203C39.2766 33.6769 39.2199 34.7121 38.5969 35.3351L36.3172 37.6131C35.608 38.3258 35.6133 39.483 36.34 40.1851C37.0404 40.8644 38.2205 40.8121 38.9105 40.122L44.5275 34.5033C44.8182 34.2127 44.9811 33.8222 44.9811 33.4125L45.0441 27.5678C45.0441 26.5715 45.8514 25.766 46.8459 25.766C47.8383 25.7658 48.6437 26.5713 48.6437 27.5676V27.5676Z" fill="#FFB69F"/>
<path d="M21.0715 42.7975V48.2568H12.2502V47.4201C12.2502 46.9559 12.0658 46.5105 11.7375 46.182L2.58496 37.0277C2.21367 36.6564 2.00547 36.1557 2.00547 35.6322L1.94238 27.5674C1.94238 26.5711 2.74785 25.7656 3.74063 25.7656C4.73516 25.7656 5.54238 26.5711 5.54238 27.5674L5.60547 33.4121C5.60547 33.8219 5.76836 34.2123 6.05898 34.5029L11.676 40.1217C12.3658 40.8115 13.5461 40.8641 14.2465 40.1848C14.973 39.4826 14.9783 38.3252 14.2693 37.6127L11.9896 35.3348C11.3658 34.7109 11.3109 33.6758 11.9389 33.0199C12.5797 32.351 13.6373 32.3475 14.2834 32.9936C15.8994 34.6096 14.9105 33.6215 19.102 37.8088C20.4238 39.1309 21.1313 40.9395 21.0684 42.7973H21.0715V42.7975Z" fill="#FFB69F"/>
<path d="M36.4396 46.3986C36.2488 46.2078 36.2488 45.8988 36.4396 45.7082L36.8539 45.2939C37.0447 45.1031 37.3537 45.1031 37.5443 45.2939C37.735 45.4848 37.7352 45.7937 37.5443 45.9844L37.1301 46.3986C36.9395 46.5893 36.6305 46.5893 36.4396 46.3986ZM38.2352 44.6031C38.0443 44.4123 38.0443 44.1033 38.2352 43.9127L46.5424 35.6053L46.6055 27.5633C46.6076 27.2949 46.8258 27.0789 47.0937 27.0789H47.0977C47.3674 27.0811 47.5842 27.3014 47.582 27.5711L47.5187 35.6238C47.5187 35.8707 47.4232 36.1047 47.2494 36.2791L38.9256 44.6031C38.7348 44.7939 38.4258 44.7939 38.2352 44.6031V44.6031Z" fill="#FBE0E2"/>
<path d="M19.5217 47.5375C19.2521 47.5375 19.0336 47.3193 19.0334 47.0498L19.0328 46.4639C19.0326 46.1941 19.251 45.9752 19.5207 45.975H19.5211C19.7906 45.975 20.0092 46.1932 20.0094 46.4629L20.01 47.0488C20.0102 47.3184 19.7918 47.5373 19.5221 47.5375C19.5221 47.5375 19.5219 47.5375 19.5217 47.5375ZM19.5195 44.9984C19.25 44.9984 19.0314 44.7801 19.0313 44.5105L19.0297 42.7445C19.0676 41.3717 18.542 40.133 17.6602 39.2514L12.841 34.4353C12.6502 34.2445 12.6502 33.9353 12.8408 33.7447C13.0316 33.5539 13.3408 33.5541 13.5314 33.7445L18.3506 38.5607C19.4344 39.6443 20.0584 41.1746 20.0061 42.7602L20.0078 44.5098C20.008 44.7795 19.7896 44.9982 19.5199 44.9984C19.5199 44.9984 19.5197 44.9984 19.5195 44.9984V44.9984Z" fill="#FBE0E2"/>
<path d="M41.2324 22.8078L39.3982 21.7488C39.8777 19.6592 39.8961 17.4215 39.3982 15.2514L41.2324 14.1924C41.582 13.9906 41.7018 13.5436 41.5 13.1939L37.9918 7.11738C37.79 6.76777 37.343 6.64805 36.9934 6.8498L35.1555 7.91094C33.6447 6.50332 31.8328 5.41504 29.8266 4.75371V2.54238C29.8266 2.13867 29.4994 1.81152 29.0957 1.81152H21.4908C21.0871 1.81152 20.76 2.13867 20.76 2.54238V4.75391C18.7537 5.41523 16.9418 6.50352 15.4311 7.91113L13.5932 6.85C13.2436 6.64824 12.7965 6.76797 12.5947 7.11758L9.08613 13.1941C8.88437 13.5437 9.0041 13.9908 9.35371 14.1926L11.1879 15.2516C10.7084 17.3412 10.69 19.5789 11.1879 21.749L9.35371 22.808C9.0041 23.0098 8.88437 23.4568 9.08613 23.8064L12.5943 29.8828C12.7961 30.2324 13.2432 30.3521 13.5928 30.1504L15.4307 29.0893C16.9414 30.4969 18.7533 31.5852 20.7596 32.2465V34.458C20.7596 34.8617 21.0867 35.1889 21.4904 35.1889H29.0953C29.499 35.1889 29.8262 34.8617 29.8262 34.458V32.2465C31.8324 31.5852 33.6443 30.4969 35.1551 29.0893L36.993 30.1504C37.3426 30.3521 37.7896 30.2324 37.9914 29.8828L41.4996 23.8062C41.7018 23.4566 41.582 23.0098 41.2324 22.8078V22.8078Z" fill="#FD672D"/>
<path d="M25.293 27.7031C30.3756 27.7031 34.4959 23.5828 34.4959 18.5002C34.4959 13.4176 30.3756 9.29726 25.293 9.29726C20.2103 9.29726 16.09 13.4176 16.09 18.5002C16.09 23.5828 20.2103 27.7031 25.293 27.7031Z" fill="#EEEEEE"/>
<path d="M45.0107 21.0502C44.7813 20.0603 44.6295 19.4064 43.2879 18.9631C42.8418 18.8158 42.8428 18.1828 43.2879 18.0357C44.0666 17.7785 44.6293 17.5926 45.0107 15.9486C45.1273 15.4475 45.8451 15.4461 45.9621 15.9486C46.3527 17.6316 46.9387 17.7894 47.685 18.0359C48.1311 18.1832 48.1301 18.816 47.685 18.9631C46.9061 19.2205 46.3434 19.4066 45.9621 21.0502C45.8453 21.5537 45.1275 21.5537 45.0107 21.0502V21.0502Z" fill="#01113E"/>
<path d="M46.3418 18.5041C46.0234 18.7189 45.7383 19.0139 45.498 19.4592C45.3047 19.1154 45.0273 18.7912 44.6055 18.5119C44.9414 18.2912 45.2383 17.9865 45.4883 17.5158C45.7422 17.9943 46.0371 18.2971 46.3418 18.5041V18.5041Z" fill="#F0C020"/>
<path d="M4.62383 21.0502C4.39434 20.0603 4.24258 19.4064 2.90098 18.9631C2.45488 18.8158 2.45586 18.1828 2.90098 18.0357C3.67969 17.7785 4.24238 17.5926 4.62383 15.9486C4.74043 15.4475 5.4582 15.4461 5.5752 15.9486C5.96582 17.6316 6.55176 17.7894 7.29805 18.0359C7.74414 18.1832 7.74316 18.816 7.29805 18.9631C6.51914 19.2205 5.95645 19.4066 5.5752 21.0502C5.45859 21.5537 4.74063 21.5537 4.62383 21.0502V21.0502Z" fill="#01113E"/>
<path d="M5.95508 18.5041C5.63672 18.7189 5.35156 19.0139 5.11133 19.4592C4.91797 19.1154 4.64062 18.7912 4.21875 18.5119C4.55469 18.2912 4.85156 17.9865 5.10156 17.5158C5.35547 17.9943 5.65039 18.2971 5.95508 18.5041V18.5041Z" fill="#F0C020"/>
<path d="M25.293 19.8828C26.0566 19.8828 26.6756 19.2638 26.6756 18.5002C26.6756 17.7366 26.0566 17.1176 25.293 17.1176C24.5294 17.1176 23.9103 17.7366 23.9103 18.5002C23.9103 19.2638 24.5294 19.8828 25.293 19.8828Z" fill="#72C2E9"/>
<path d="M25.2916 30.9355C22.8865 30.9355 20.5545 30.251 18.5477 28.9555C18.3211 28.8092 18.2559 28.507 18.4021 28.2805C18.5486 28.0537 18.8512 27.9891 19.0771 28.135C26.6863 33.0461 36.7516 27.5693 36.7516 18.5004C36.7516 15.4348 35.5609 12.5557 33.3994 10.3937C33.2086 10.2029 33.2086 9.89375 33.3994 9.70332C33.5902 9.5125 33.8992 9.5125 34.0898 9.70332C36.4361 12.0496 37.7281 15.1738 37.7281 18.5004C37.7281 25.3834 32.1768 30.9355 25.2928 30.9355C25.2924 30.9355 25.292 30.9355 25.2916 30.9355V30.9355ZM16.9373 27.7176C16.7863 27.5805 16.6379 27.4389 16.4961 27.2973C16.3053 27.1064 16.3053 26.7975 16.4961 26.6068C16.6869 26.4162 16.9959 26.416 17.1865 26.6068C17.3174 26.7375 17.4543 26.8682 17.5937 26.9947C17.7934 27.1762 17.8084 27.485 17.6269 27.6844C17.4457 27.884 17.1369 27.8988 16.9373 27.7176V27.7176Z" fill="#FFCAC2"/>
<path d="M46.8457 25.2773C45.5859 25.2773 44.5586 26.3027 44.5549 27.5625L44.4924 33.4062V33.4119C44.4924 33.6932 44.3811 33.9568 44.1818 34.158L38.5646 39.7773C38.0613 40.2803 37.1852 40.3262 36.6799 39.834C36.1467 39.317 36.1453 38.4779 36.6623 37.957L38.9416 35.6797C39.7553 34.866 39.8119 33.5314 39.0002 32.6816C38.1906 31.8363 36.8168 31.7889 35.9572 32.6484C34.9617 33.6439 35.5086 33.099 34.8322 33.7754C34.6377 33.9656 34.641 34.2779 34.8322 34.4648C35.0139 34.6482 35.3342 34.6504 35.5197 34.4668H35.5219C35.5352 34.4535 36.6353 33.3531 36.6488 33.3398C37.1014 32.8873 37.8387 32.8846 38.2953 33.3574C38.7441 33.8279 38.6818 34.5592 38.2506 34.99L35.9732 37.2674C35.0553 38.1857 35.0914 39.6613 36.0006 40.535C36.9014 41.41 38.3855 41.3357 39.2545 40.4664L44.8738 34.8473C45.2566 34.4645 45.4676 33.9564 45.4695 33.4176L45.532 27.5719V27.5678C45.534 26.8432 46.1236 26.2553 46.8463 26.2535C47.567 26.2555 48.1549 26.8434 48.1568 27.5678L48.0924 35.6285C48.0924 36.027 47.9381 36.402 47.657 36.683L38.5047 45.8373C38.0809 46.2592 37.8486 46.8217 37.8486 47.4195V48.2553C37.8486 48.525 38.0672 48.7436 38.3369 48.7436C38.6064 48.7436 38.8252 48.525 38.8252 48.2553V47.4195C38.8252 47.0834 38.9561 46.765 39.1943 46.527L48.3467 37.3727C48.8135 36.9078 49.0691 36.2887 49.0691 35.6324L49.1316 27.5719C49.1309 26.3064 48.1055 25.2773 46.8457 25.2773V25.2773Z" fill="#01113E"/>
<path d="M32.7656 37.2187C32.957 37.0275 32.957 36.7188 32.7676 36.5273C32.582 36.3418 32.2598 36.3418 32.0762 36.5273C31.4482 37.1553 31.7703 36.8342 31.1387 37.4629C29.8176 38.784 29.0254 40.6037 29.0254 42.5686V48.2559C29.0254 48.5256 29.2463 48.7441 29.5137 48.7441C29.7834 48.7441 30.002 48.5256 30.002 48.2559C30.002 46.8555 30.002 44.0293 30.002 42.5686C30.002 40.9006 30.6504 39.3322 31.8301 38.1543C31.8301 38.1541 32.7654 37.2189 32.7656 37.2187V37.2187Z" fill="#01113E"/>
<path d="M33.457 35.1484C33.457 35.1484 33.4551 35.1484 33.4551 35.1504C33.2654 35.3398 33.2654 35.6506 33.4551 35.8398C33.6355 36.0242 33.95 36.0359 34.1465 35.8398C34.3355 35.6508 34.3371 35.341 34.1465 35.1504C33.9629 34.9648 33.6426 34.9648 33.457 35.1484Z" fill="#01113E"/>
<path d="M6.09355 33.407L6.03047 27.5678C6.03047 26.3051 5.00312 25.2777 3.74043 25.2777C2.47968 25.2777 1.4539 26.3051 1.4539 27.5715L1.51679 35.6324C1.51679 36.2891 1.77343 36.9072 2.23945 37.3732L11.3918 46.5273C11.6303 46.766 11.7617 47.083 11.7617 47.4201V48.2566C11.7617 48.5264 11.9803 48.7449 12.25 48.7449C12.5197 48.7449 12.7383 48.5264 12.7383 48.2566V47.4201C12.7383 46.8221 12.5055 46.26 12.0826 45.8369L2.93008 36.6828C2.64863 36.4014 2.49355 36.0281 2.49355 35.6287L2.43066 27.5678C2.43066 26.8435 3.01836 26.2543 3.74062 26.2543C4.46484 26.2543 5.0541 26.8435 5.0541 27.573L5.11718 33.4123C5.11718 33.9537 5.3289 34.4639 5.71367 34.8484L11.3309 40.4674C12.2186 41.3553 13.7096 41.3861 14.5857 40.5363C15.5047 39.6484 15.5221 38.1799 14.6143 37.2678L12.3346 34.99C11.8822 34.5377 11.8627 33.8057 12.2912 33.3584C12.7465 32.883 13.4893 32.891 13.9379 33.3394L18.7566 38.1545C19.9738 39.3719 20.6387 41.0582 20.5801 42.781C20.5801 42.781 20.5834 42.5922 20.5834 48.257C20.5834 48.5268 20.802 48.7453 21.0717 48.7453C21.3414 48.7453 21.56 48.5268 21.56 48.257V42.7976C21.56 40.5531 20.7729 38.7898 19.4471 37.4637L14.6285 32.6488C13.7967 31.8166 12.4242 31.808 11.5861 32.6826C10.7932 33.5105 10.8191 34.8555 11.6445 35.6807L13.9232 37.9576C14.4418 38.4785 14.4377 39.3215 13.9066 39.8346C13.4123 40.3142 12.5318 40.2869 12.0215 39.7769L6.40429 34.158C6.2039 33.9576 6.09355 33.693 6.09355 33.407V33.407Z" fill="#01113E"/>
<path d="M29.3127 14.4797C29.1223 14.2893 28.8129 14.2889 28.6223 14.4801L26.2244 16.8803C25.9498 16.7217 25.6322 16.6295 25.293 16.6295C24.2615 16.6295 23.4223 17.4687 23.4223 18.5002C23.4223 19.5318 24.2615 20.3711 25.293 20.3711C26.3244 20.3711 27.1637 19.5318 27.1637 18.5002C27.1637 18.1619 27.0721 17.8451 26.9143 17.5711L29.3129 15.1701C29.5037 14.9793 29.5037 14.6701 29.3127 14.4797V14.4797ZM25.293 19.3945C24.8 19.3945 24.3988 18.9934 24.3988 18.5002C24.3988 18.0072 24.8 17.606 25.293 17.606C25.7859 17.606 26.1871 18.0072 26.1871 18.5002C26.1871 18.9934 25.7859 19.3945 25.293 19.3945Z" fill="#01113E"/>
<path d="M28.7227 27.5664C32.4451 26.1578 34.9846 22.5857 34.9846 18.5C34.9846 13.1496 30.6488 8.80859 25.2932 8.80859C19.9523 8.80859 15.6018 13.134 15.6018 18.5C15.6018 23.7656 19.7385 27.8693 24.6877 28.1721C24.883 28.2096 25.1863 28.0275 25.2053 27.7148C25.2209 27.4475 25.0158 27.2148 24.7482 27.1975C22.7271 27.0734 20.9002 26.2598 19.4885 24.9955L20.3166 24.1674C20.5074 23.9766 20.5074 23.6676 20.3166 23.477C20.1258 23.2863 19.8168 23.2861 19.6262 23.477L18.7996 24.3035C17.5195 22.8711 16.7064 21.0176 16.5934 18.9885H17.7672C18.0369 18.9885 18.2555 18.7699 18.2555 18.5002C18.2555 18.2305 18.0369 18.0119 17.7672 18.0119H16.593C16.7018 16.0309 17.4711 14.1725 18.7961 12.6936L19.6262 13.5236C19.817 13.7145 20.126 13.7145 20.3166 13.5236C20.5074 13.333 20.5074 13.0238 20.3166 12.8332L19.4865 12.0029C20.9652 10.6779 22.8227 9.9082 24.8049 9.79961V10.974C24.8049 11.2438 25.0234 11.4623 25.2932 11.4623C25.5629 11.4623 25.7814 11.2438 25.7814 10.974V9.79961C27.7639 9.9084 29.6211 10.6779 31.0998 12.0029L30.2697 12.8332C30.0789 13.024 30.0789 13.3332 30.2697 13.5236C30.4605 13.7145 30.7697 13.7146 30.9602 13.5236L31.79 12.6936C33.1137 14.1723 33.8846 16.0295 33.9934 18.0117H32.8191C32.5494 18.0117 32.3309 18.2303 32.3309 18.5C32.3309 18.7697 32.5494 18.9883 32.8191 18.9883H33.9924C33.8789 20.982 33.0764 22.8502 31.785 24.3016L30.9602 23.4768C30.7693 23.2859 30.4603 23.2859 30.2697 23.4768C30.0791 23.6676 30.0789 23.9766 30.2697 24.1672L31.0963 24.9938C30.3121 25.699 29.3955 26.2686 28.3769 26.6541C28.1301 26.7459 27.9953 27.0252 28.0937 27.283C28.1855 27.5271 28.4766 27.6602 28.7227 27.5664V27.5664Z" fill="#01113E"/>
<path d="M26.5916 27.1191C26.3355 27.1541 26.1396 27.3971 26.1814 27.6738C26.2213 27.9428 26.4791 28.126 26.7361 28.0842C27.0018 28.0451 27.1854 27.7951 27.1465 27.5295C27.1074 27.2674 26.8535 27.0799 26.5916 27.1191Z" fill="#01113E"/>
<path d="M10.7246 26.6445C10.4902 26.7791 10.4102 27.0781 10.5469 27.3106C10.6818 27.5467 10.985 27.6221 11.2129 27.4902C11.4426 27.3557 11.5287 27.0576 11.3904 26.8223C11.2617 26.5977 10.9492 26.5137 10.7246 26.6445Z" fill="#01113E"/>
<path d="M8.66386 24.0508L9.56836 25.6191C9.69922 25.8436 10.0098 25.9297 10.2363 25.7988C10.4686 25.6641 10.5488 25.3652 10.4139 25.1309L9.50761 23.5625C9.44355 23.4463 9.47988 23.2969 9.59746 23.2305L11.4316 22.1719C11.615 22.0645 11.7109 21.8457 11.6639 21.6406C11.1881 19.5633 11.1973 17.3947 11.6639 15.3613C11.7107 15.1543 11.615 14.9355 11.4316 14.8283L9.59765 13.7695C9.48066 13.7035 9.44355 13.5541 9.50781 13.4375L13.0176 7.36133C13.0877 7.24043 13.2385 7.20879 13.3477 7.27148L15.1855 8.33398C15.3689 8.43945 15.6094 8.41016 15.7637 8.26758C17.2344 6.89824 19.0137 5.84375 20.9119 5.2168C21.1131 5.15039 21.248 4.96484 21.248 4.7539V2.54297C21.248 2.4084 21.3574 2.30098 21.4902 2.29883H29.0955C29.2283 2.30098 29.3377 2.4084 29.3377 2.54297V4.7539C29.3377 4.96484 29.4723 5.15039 29.6736 5.2168C31.5721 5.84375 33.3514 6.89824 34.8221 8.26758C34.9764 8.41191 35.2166 8.43945 35.4002 8.33398L37.2359 7.27148C37.3584 7.20449 37.5033 7.24941 37.568 7.36133L41.0758 13.4375C41.1434 13.5541 41.1047 13.7021 40.9879 13.7695L39.1539 14.8281C38.9705 14.9355 38.8746 15.1543 38.9217 15.3611C39.3953 17.4309 39.3951 19.5676 38.9217 21.6404C38.8729 21.8494 38.9664 22.0643 39.1539 22.1717L40.9879 23.2303C41.0969 23.2918 41.1469 23.4334 41.0758 23.5623L37.568 29.6385C37.5012 29.7568 37.3484 29.7934 37.2359 29.7264L35.4002 28.6656C35.2184 28.5602 34.9742 28.5895 34.8221 28.732C33.3514 30.1014 31.5701 31.1559 29.6736 31.7828C29.4725 31.8473 29.3377 32.0348 29.3377 32.2457V34.4586C29.3377 34.5914 29.2281 34.7008 29.0955 34.7008H21.4902C21.3572 34.7008 21.248 34.5912 21.248 34.4586V32.2461C21.248 32.0352 21.1133 31.8496 20.9119 31.7832C19.0154 31.1584 17.2344 30.1018 15.7637 28.7324C15.6094 28.5881 15.3689 28.5605 15.1855 28.666L13.3496 29.7268C13.2193 29.7979 13.0809 29.7479 13.0176 29.6389L12.3672 28.5139C12.2385 28.2893 11.9258 28.2053 11.7014 28.3361C11.4701 28.4678 11.3857 28.7672 11.5217 29.0021L12.1719 30.1271C12.5059 30.7045 13.2434 30.9113 13.8361 30.5744L15.3654 29.6896C16.8105 30.9728 18.4611 31.9494 20.2717 32.5959V34.4592C20.2717 35.1291 20.8186 35.676 21.4904 35.6779H29.0957C29.7676 35.676 30.3145 35.1289 30.3145 34.4592V32.5959C32.125 31.9494 33.7754 30.9728 35.2207 29.6896L36.7479 30.5727C37.3338 30.9117 38.0773 30.7061 38.4139 30.1291L41.9217 24.051C42.2625 23.4619 42.0521 22.7189 41.4764 22.385L39.951 21.5041C40.3502 19.5342 40.3535 17.4824 39.951 15.4963L41.4764 14.6154C42.0527 14.2811 42.2623 13.5381 41.9217 12.9494L38.4139 6.87324C38.0721 6.28223 37.3156 6.09433 36.7459 6.42812L35.2205 7.31094C33.7752 6.02773 32.1246 5.05117 30.3143 4.40469V2.54336C30.3143 1.87168 29.7674 1.3248 29.0955 1.32265H21.4902C20.8184 1.3248 20.2715 1.87168 20.2715 2.54336V4.40469C18.459 5.05117 16.8086 6.02773 15.3652 7.31094L13.8359 6.42812C13.2648 6.09375 12.5133 6.2834 12.1699 6.87539L8.66211 12.9492C8.33105 13.5271 8.52011 14.2732 9.10937 14.6152L10.635 15.4961C10.2342 17.4711 10.2336 19.5258 10.635 21.5039L9.10937 22.3848C8.52929 22.7184 8.3248 23.4646 8.66386 24.0508V24.0508Z" fill="#01113E"/>
</svg>
