<svg width="40" height="40" viewBox="0 0 40 40" fill="none" xmlns="http://www.w3.org/2000/svg">
<g clip-path="url(#clip0_456_1980)">
<path d="M5.36914 1.92151V22.5111C5.36914 22.6838 5.50922 22.8242 5.68225 22.8242H19.7359C19.9089 22.8242 20.049 22.6841 20.049 22.5111V1.92151C20.049 1.74878 19.9089 1.6084 19.7359 1.6084H5.68225C5.50922 1.6087 5.36914 1.74878 5.36914 1.92151Z" fill="#8CBAFA"/>
<path d="M8.23828 1.60864H11.0483V22.8241H8.23828V1.60864Z" fill="#575B7A"/>
<path d="M23.8271 0.719585L13.7764 15.0735C13.6773 15.2151 13.7114 15.4104 13.8533 15.5096L25.678 23.7896C25.8196 23.8888 26.0149 23.8543 26.1141 23.7127L36.1647 9.3588C36.2642 9.2172 36.2297 9.02188 36.0881 8.9227L24.2632 0.642681C24.1213 0.543804 23.9263 0.577984 23.8271 0.719585Z" fill="#009BFF"/>
<path d="M36.088 8.92273L34.6348 7.90527C34.7593 7.99255 34.78 8.1781 34.6805 8.3197L24.6299 22.6736C24.5307 22.8152 24.3494 22.8592 24.2246 22.7719L25.6779 23.7897C25.8195 23.8888 26.0148 23.8544 26.114 23.7128L36.1646 9.35882C36.2638 9.21722 36.2296 9.02191 36.088 8.92273Z" fill="#009BFF"/>
<path d="M26.6929 9.75733C25.1252 8.65962 22.6188 9.53486 21.0945 11.712C19.5701 13.8891 19.6049 16.5438 21.1726 17.6412C22.74 18.739 25.2464 17.8637 26.7707 15.6866C28.2954 13.5095 28.2603 10.8547 26.6929 9.75733V9.75733Z" fill="#FFEB96"/>
<path d="M3.78906 15.8792V33.5196C3.78906 34.7922 4.82056 35.8233 6.09283 35.8233H31.5503C32.8228 35.8233 33.854 34.7918 33.854 33.5196V15.8792C33.854 14.6066 32.8225 13.5754 31.5503 13.5754H6.09283C4.82056 13.5754 3.78906 14.6069 3.78906 15.8792V15.8792Z" fill="#FD672D"/>
<path d="M31.5504 13.5754H29.6055C30.8777 13.5754 31.9092 14.6069 31.9092 15.8792V33.5196C31.9092 34.7918 30.8777 35.8233 29.6055 35.8233H31.5504C32.8229 35.8233 33.8544 34.7918 33.8544 33.5196V15.8792C33.8541 14.6069 32.8229 13.5754 31.5504 13.5754V13.5754Z" fill="#FD672D"/>
<path d="M33.7449 28.3218H29.0736C27.0729 28.3218 25.4512 26.7001 25.4512 24.6993C25.4512 22.6986 27.0729 21.0769 29.0736 21.0769H33.7449C35.0837 21.0769 36.1689 22.1621 36.1689 23.5009V25.8978C36.1689 27.2366 35.0837 28.3218 33.7449 28.3218Z" fill="#FFD2C0"/>
<path d="M33.7449 26.5788H29.0736C27.3735 26.5788 25.9474 25.4072 25.5574 23.8276C25.4884 24.1069 25.4512 24.3986 25.4512 24.6992C25.4512 26.6999 27.0729 28.3217 29.0736 28.3217H33.7449C35.0837 28.3217 36.1689 27.2364 36.1689 25.8976V24.1545C36.1689 25.4936 35.0837 26.5788 33.7449 26.5788Z" fill="#EDAA9D"/>
<path d="M30.8102 24.6994C30.8102 25.5759 30.0998 26.286 29.2233 26.286C28.3472 26.286 27.6367 25.5759 27.6367 24.6994C27.6367 23.8232 28.3472 23.1128 29.2233 23.1128C30.0998 23.1128 30.8102 23.8232 30.8102 24.6994V24.6994Z" fill="#FD672D"/>
<path d="M25.3143 32.9211C25.3143 36.5069 22.4072 39.414 18.8213 39.414C15.2352 39.414 12.3281 36.5069 12.3281 32.9211C12.3281 29.335 15.2352 26.4282 18.8213 26.4282C22.4072 26.4282 25.3143 29.335 25.3143 32.9211Z" fill="#FFCD34"/>
<path d="M21.6833 27.0923C22.9217 28.2748 23.6947 29.9408 23.6947 31.7883C23.6947 35.3741 20.7876 38.2812 17.2018 38.2812C16.1743 38.2812 15.2032 38.0417 14.3398 37.6169C15.5053 38.7295 17.0828 39.414 18.8213 39.414C22.4072 39.414 25.3143 36.5069 25.3143 32.9211C25.3143 30.3625 23.8339 28.1503 21.6833 27.0923V27.0923Z" fill="#E69012"/>
<path d="M25.853 3.1539C25.7181 3.0593 25.5496 3.02573 25.3891 3.06174C25.2283 3.09775 25.0904 3.19968 25.0086 3.3425C25.0046 3.34952 24.9997 3.35593 24.9954 3.36233C24.8075 3.63089 24.4361 3.6962 24.1675 3.50851C23.9023 3.32297 23.537 3.38705 23.3515 3.65225L22.4976 4.87204C22.312 5.13724 22.3764 5.50253 22.6413 5.68808C22.7439 5.75979 22.8611 5.79428 22.977 5.79428C23.1617 5.79428 23.3435 5.707 23.4574 5.54434L24.0326 4.7225C24.5728 4.87295 25.1596 4.75699 25.6021 4.40848L26.4664 5.01364C26.7316 5.19919 27.0966 5.13479 27.2824 4.8699C27.468 4.6047 27.4036 4.23941 27.1384 4.05386L25.853 3.1539Z" fill="black"/>
<path d="M32.3334 10.5347L31.7581 11.3563C31.5726 11.6215 31.6369 11.9868 31.9018 12.1723C32.0044 12.244 32.1216 12.2782 32.2375 12.2782C32.4222 12.2782 32.604 12.1912 32.7179 12.0283L33.5721 10.8088C33.7576 10.5436 33.6932 10.1783 33.4283 9.99275C33.1598 9.80476 33.0942 9.43336 33.2824 9.1645C33.287 9.15809 33.2913 9.15168 33.2965 9.14588C33.4027 9.01985 33.4512 8.85536 33.4298 8.69209C33.4088 8.52882 33.32 8.38173 33.1851 8.28743L31.8997 7.38746C31.6345 7.20192 31.2692 7.26631 31.0837 7.53151C30.8978 7.7964 30.9625 8.162 31.2274 8.34755L32.0917 8.9524C31.9153 9.48768 32.0071 10.0785 32.3334 10.5347Z" fill="black"/>
<path d="M29.2233 23.6982C29.5016 23.6982 29.7601 23.8096 29.9512 24.0123C30.1733 24.2473 30.5441 24.2579 30.7794 24.0358C31.015 23.8136 31.0254 23.4428 30.8032 23.2075C30.3946 22.7748 29.8187 22.5264 29.2233 22.5264C28.0252 22.5264 27.0508 23.5011 27.0508 24.6992C27.0508 25.897 28.0252 26.8718 29.2233 26.8718C29.8038 26.8718 30.3494 26.6459 30.7596 26.2355C30.9885 26.0066 30.9885 25.6355 30.7596 25.4069C30.531 25.178 30.1599 25.178 29.931 25.4069C29.7421 25.5958 29.4907 25.6999 29.2233 25.6999C28.6716 25.6999 28.2227 25.251 28.2227 24.6992C28.2227 24.1472 28.6716 23.6982 29.2233 23.6982V23.6982Z" fill="black"/>
<path d="M34.4406 20.5719V15.8789C34.4406 14.2856 33.1442 12.9892 31.5509 12.9892H28.4414C28.6233 11.4182 28.1103 10.0363 27.0282 9.27858C26.1114 8.6368 24.9237 8.52175 23.6835 8.95449C22.5113 9.36373 21.4209 10.2237 20.614 11.3761C20.2566 11.886 19.9722 12.4268 19.7659 12.9892H15.9512L24.1507 1.27932L35.5285 9.24593L33.7951 11.7218C33.6096 11.987 33.674 12.3523 33.9389 12.5379C34.2041 12.7234 34.5694 12.659 34.7549 12.3938L36.6446 9.69515C36.9293 9.28957 36.8307 8.72774 36.4245 8.44271L24.5999 0.163297C24.4034 0.0253577 24.1647 -0.0277429 23.9282 0.013761C23.6917 0.0555701 23.4857 0.18649 23.3475 0.383328L20.6354 4.25692V1.92111C20.6354 1.4252 20.2319 1.02176 19.736 1.02176H5.68207C5.18616 1.02176 4.78271 1.4252 4.78271 1.92111V5.12881C4.78271 5.4526 5.04516 5.71474 5.36865 5.71474C5.69244 5.71474 5.95459 5.4526 5.95459 5.12881V2.19393H7.65228V12.9889H6.09283C6.04675 12.9889 6.00067 12.9901 5.95459 12.9923V7.47255C5.95459 7.14907 5.69244 6.88662 5.36865 6.88662C5.04516 6.88662 4.78271 7.14907 4.78271 7.47255V13.3035C3.84613 13.7821 3.20312 14.7568 3.20312 15.8789V33.5196C3.20312 35.1129 4.49951 36.4093 6.09283 36.4093H10.4678C10.7916 36.4093 11.0538 36.1471 11.0538 35.8234C11.0538 35.4999 10.7916 35.2374 10.4678 35.2374H6.09283C5.14557 35.2374 4.375 34.4668 4.375 33.5196V15.8789C4.375 15.1282 4.85901 14.4885 5.531 14.2554C5.54596 14.2511 5.56091 14.2462 5.57525 14.2407C5.73883 14.1889 5.91278 14.1608 6.09314 14.1608H31.5509C32.4981 14.1608 33.269 14.9317 33.269 15.8789V20.4907H29.0741C26.7535 20.4907 24.8654 22.3785 24.8654 24.6994C24.8654 27.02 26.7535 28.9078 29.0741 28.9078H33.269V33.5196C33.269 34.4668 32.4981 35.2374 31.5509 35.2374H27.0736C26.7499 35.2374 26.4877 35.4999 26.4877 35.8234C26.4877 36.1471 26.7499 36.4093 27.0736 36.4093H31.5509C33.1442 36.4093 34.4409 35.1129 34.4409 33.5196V28.8266C35.7666 28.512 36.7556 27.3181 36.7556 25.8978V23.501C36.7553 22.0804 35.7663 20.8865 34.4406 20.5719V20.5719ZM21.5738 12.0487C22.9101 10.1401 25.0555 9.32833 26.3562 10.2387C27.1054 10.7633 27.4353 11.7926 27.2598 12.9889H21.0324C21.181 12.6654 21.3617 12.3508 21.5738 12.0487ZM19.4635 5.9305L14.5209 12.9892H11.6336V2.19363H19.4635V5.9305ZM8.82415 2.19363H10.4617V12.9889H8.82415V2.19363ZM35.5835 25.8975C35.5835 26.9113 34.7589 27.7359 33.7451 27.7359H29.0741C27.3996 27.7359 26.0373 26.3736 26.0373 24.6991C26.0373 23.0249 27.3996 21.6626 29.0741 21.6626H33.7451C34.7589 21.6626 35.5835 22.4872 35.5835 23.501V25.8975Z" fill="black"/>
<path d="M18.822 25.8418C14.9188 25.8418 11.7432 29.0175 11.7432 32.921C11.7432 36.8241 14.9188 39.9998 18.822 39.9998C22.7255 39.9998 25.9012 36.8241 25.9012 32.921C25.9012 29.0175 22.7255 25.8418 18.822 25.8418V25.8418ZM18.822 38.8279C15.5649 38.8279 12.915 36.1781 12.915 32.921C12.915 29.6635 15.5649 27.0137 18.822 27.0137C22.0795 27.0137 24.7293 29.6635 24.7293 32.921C24.7293 36.1781 22.0795 38.8279 18.822 38.8279Z" fill="black"/>
<path d="M19.3216 32.3351H18.3221C18.0276 32.3351 17.7881 32.0956 17.7881 31.8011C17.7881 31.5066 18.0276 31.267 18.3221 31.267H20.2347C20.5582 31.267 20.8206 31.0046 20.8206 30.6811C20.8206 30.3576 20.5582 30.0952 20.2347 30.0952H19.5154V29.5999C19.5154 29.2764 19.2529 29.0139 18.9294 29.0139C18.606 29.0139 18.3435 29.2764 18.3435 29.5999V30.0952H18.3221C17.3816 30.0952 16.6162 30.8605 16.6162 31.8011C16.6162 32.7416 17.3816 33.507 18.3221 33.507H19.3216C19.6161 33.507 19.8553 33.7463 19.8553 34.0408C19.8553 34.3353 19.6161 34.5748 19.3216 34.5748H17.4091C17.0853 34.5748 16.8231 34.8373 16.8231 35.1608C16.8231 35.4842 17.0853 35.7467 17.4091 35.7467H18.3435V36.242C18.3435 36.5655 18.606 36.8279 18.9294 36.8279C19.2532 36.8279 19.5154 36.5655 19.5154 36.242V35.7357C20.365 35.639 21.0275 34.916 21.0275 34.0408C21.0272 33.1002 20.2621 32.3351 19.3216 32.3351Z" fill="black"/>
</g>
<defs>
<clipPath id="clip0_456_1980">
<rect width="40" height="40" fill="white"/>
</clipPath>
</defs>
</svg>
