<svg width="50" height="50" viewBox="0 0 50 50" fill="none" xmlns="http://www.w3.org/2000/svg">
<g clip-path="url(#clip0_300_121)">
<path d="M9.00598 49.2676L10.1383 28.1565C10.3247 24.6806 13.1976 21.9576 16.6786 21.9576H33.3213C36.8023 21.9576 39.6752 24.6806 39.8616 28.1565L40.9941 49.2676H9.00598Z" fill="#B1D8FC"/>
<path d="M39.8617 28.1565C39.6752 24.6806 36.8024 21.9576 33.3213 21.9576H30.3916C33.8727 21.9576 36.7455 24.6806 36.932 28.1565L38.0644 49.2676H40.9941L39.8617 28.1565Z" fill="#88C7FC"/>
<path d="M43.7922 49.0234V40.8715C43.7922 37.3036 41.375 34.189 37.9188 33.3034L31.2615 31.5977C30.3974 31.3763 29.7931 30.5977 29.7931 29.7057V26.7715H20.2071V29.7058C20.2071 30.5978 19.6028 31.3764 18.7387 31.5978L12.0814 33.3035C8.62513 34.1891 6.20795 37.3036 6.20795 40.8716V49.0234C6.20795 49.5628 6.64515 50 7.18451 50H42.8157C43.355 50 43.7922 49.5628 43.7922 49.0234Z" fill="#FD672D"/>
<path d="M37.9188 33.3034L31.2615 31.5977C30.3974 31.3763 29.7931 30.5977 29.7931 29.7057V26.7715H26.8634V31.1706C26.8634 32.0626 27.4677 32.8412 28.3318 33.0626L34.9891 34.7684C38.4453 35.6539 40.8625 38.7686 40.8625 42.3364V50H42.8157C43.355 50 43.7922 49.5628 43.7922 49.0234V40.8715C43.7922 37.3036 41.375 34.1891 37.9188 33.3034Z" fill="#EF7280"/>
<path d="M19.2355 31.3929C20.4978 33.2233 22.6083 34.4238 25 34.4238C27.3917 34.4238 29.5023 33.2233 30.7646 31.3929C30.1749 31.0498 29.7931 30.4141 29.7931 29.7058V26.7715H20.2071V29.7058C20.207 30.4141 19.8251 31.0498 19.2355 31.3929Z" fill="#FFDECF"/>
<path d="M28.3318 33.0626L28.9293 33.2157C29.648 32.7269 30.2713 32.1083 30.7647 31.393C30.175 31.0499 29.7932 30.4142 29.7932 29.7059V26.7715H26.8635V31.1706C26.8634 32.0626 27.4677 32.8412 28.3318 33.0626V33.0626Z" fill="#FFCDBE"/>
<path d="M31.0068 49.2676C32.5242 47.1165 34.073 44.7026 35.5765 42.0148C37.1041 39.2839 38.3692 36.6566 39.421 34.2011C39.6134 33.7519 39.3984 33.2327 38.9459 33.0484L35.672 31.7149C35.2369 31.5378 34.7405 31.7355 34.5461 32.1632C33.5043 34.4551 32.2982 36.869 30.8976 39.3642C28.7755 43.1445 26.5843 46.4403 24.4956 49.2676L23.9258 50H30.4688L31.0068 49.2676Z" fill="#3C6D91"/>
<path d="M38.9458 33.0484L35.6719 31.7149C35.2368 31.5378 34.7404 31.7355 34.546 32.1632C34.5097 32.2431 34.4716 32.3242 34.435 32.4044L36.0162 33.0484C36.4687 33.2327 36.6837 33.7519 36.4913 34.2011C35.4396 36.6567 34.1745 39.2839 32.6469 42.0148C31.1434 44.7026 29.5946 47.1165 28.0773 49.2676L27.5391 50H30.4688L31.0069 49.2676C32.5242 47.1165 34.0731 44.7026 35.5765 42.0148C37.1041 39.2839 38.3692 36.6566 39.4209 34.2011C39.6133 33.7519 39.3984 33.2327 38.9458 33.0484V33.0484Z" fill="#345E80"/>
<path d="M11.4492 49.2676C12.793 43.0195 18.3496 38.3359 25 38.3359C31.6504 38.3359 37.207 43.0195 38.5508 49.2676L38.6719 50H33.9844L33.791 49.2676C32.5625 45.5898 29.0859 42.9316 25 42.9316C20.9141 42.9316 17.4375 45.5898 16.209 49.2676L16.0156 50H11.3125L11.4492 49.2676Z" fill="#E9F5FF"/>
<path d="M22.0703 42.9316C17.9844 42.9316 14.5078 45.5898 13.2793 49.2676L13.0859 50H16.0156L16.209 49.2676C17.2876 46.0385 20.0996 43.5959 23.5352 43.048C23.0579 42.9718 22.5688 42.9316 22.0703 42.9316Z" fill="#FBF9FF"/>
<path d="M38.5508 49.2676C37.207 43.0195 31.6504 38.3359 25 38.3359C24.5052 38.3359 24.0166 38.3624 23.5352 38.413C29.5241 39.0421 34.3773 43.4844 35.6211 49.2676L35.7422 50H38.6719L38.5508 49.2676Z" fill="#FBF9FF"/>
<path d="M37.8106 46.7919L37.8104 46.792C37.0751 47.1129 36.2173 46.8214 35.8292 46.1193C35.4437 45.4219 35.0595 44.6432 34.7016 43.7838C34.458 43.1991 34.2503 42.6338 34.0727 42.094C33.8223 41.3334 34.1939 40.5077 34.9278 40.1873C36.2588 39.6063 37.813 40.172 38.4546 41.4749C38.5612 41.6912 38.6665 41.9142 38.7701 42.1437C38.9541 42.5513 39.1191 42.9499 39.2671 43.3373C39.7846 44.6912 39.1388 46.2122 37.8106 46.7919V46.7919Z" fill="#FFDECF"/>
<path d="M39.2671 43.3375C39.119 42.9501 38.954 42.5514 38.77 42.1438C38.6664 41.9144 38.561 41.6914 38.4546 41.475C37.813 40.1722 36.2587 39.6065 34.9277 40.1874C34.798 40.244 34.6802 40.3172 34.5745 40.4022C34.9695 40.6597 35.3023 41.0228 35.5249 41.475C35.6315 41.6913 35.7368 41.9143 35.8403 42.1438C36.0243 42.5515 36.1893 42.9501 36.3374 43.3375C36.7103 44.313 36.479 45.3751 35.8238 46.1096C35.8256 46.1128 35.8274 46.1162 35.8292 46.1194C36.2173 46.8215 37.0752 47.113 37.8104 46.7921L37.8105 46.792C39.1388 46.2122 39.7847 44.6912 39.2671 43.3375V43.3375Z" fill="#FFCDBE"/>
<path d="M12.1895 46.7919L12.1897 46.792C12.9249 47.1129 13.7827 46.8214 14.1708 46.1193C14.5564 45.4219 14.9405 44.6432 15.2986 43.7838C15.5421 43.1991 15.7498 42.6338 15.9275 42.094C16.1778 41.3334 15.8063 40.5077 15.0724 40.1873C13.7413 39.6063 12.1871 40.172 11.5455 41.4749C11.439 41.6912 11.3336 41.9142 11.23 42.1437C11.046 42.5513 10.8811 42.9499 10.733 43.3373C10.2154 44.6912 10.8612 46.2122 12.1895 46.7919V46.7919Z" fill="#FFDECF"/>
<path d="M15.0723 40.1874C14.2031 39.8081 13.2391 39.9179 12.4958 40.4022C12.9878 40.7983 13.2038 41.468 12.9977 42.0941C12.82 42.6339 12.6123 43.1992 12.3688 43.7839C12.0125 44.6392 11.6302 45.4145 11.2464 46.1096C11.5005 46.3944 11.8183 46.63 12.1895 46.792L12.1896 46.7921C12.9248 47.113 13.7826 46.8215 14.1707 46.1194C14.5563 45.422 14.9404 44.6433 15.2984 43.7839C15.5419 43.1992 15.7496 42.6339 15.9273 42.0941C16.1777 41.3334 15.8062 40.5077 15.0723 40.1874Z" fill="#FFCDBE"/>
<path d="M35.5684 14.7436H14.4317V6.81201C14.4317 3.45439 17.1536 0.732422 20.5113 0.732422H29.4888C32.8464 0.732422 35.5684 3.4543 35.5684 6.81201V14.7436Z" fill="#3C6D91"/>
<path d="M29.4888 0.732422H26.5591C29.9167 0.732422 32.6387 3.4543 32.6387 6.81201V14.7436H35.5684V6.81201C35.5684 3.4543 32.8464 0.732422 29.4888 0.732422V0.732422Z" fill="#345E80"/>
<path d="M25.0001 28.8132C23.2746 28.8132 21.6458 28.7496 20.2071 28.0146C16.7793 26.2635 14.4317 22.6926 14.4317 18.5722V13.1533C16.5823 13.1303 19.8131 12.8131 23.3666 11.3172C25.0048 10.6275 26.3792 9.82744 27.494 9.06426C27.7497 8.88926 28.0915 8.90948 28.3248 9.11328C29.0612 9.75664 29.9619 10.4483 31.0382 11.107C32.7255 12.1395 34.3119 12.7648 35.5683 13.1533V18.5722C35.5683 22.6743 33.2415 26.2318 29.8383 27.9912C28.3887 28.7408 26.7437 28.8132 25.0001 28.8132V28.8132Z" fill="#FFDECF"/>
<path d="M25.0001 28.8132C23.2746 28.8132 21.6458 28.7496 20.2071 28.0146C16.7793 26.2635 14.4317 22.6926 14.4317 18.5722V13.1533C16.5823 13.1303 19.8131 12.8131 23.3666 11.3172C25.0048 10.6275 26.3792 9.82744 27.494 9.06426C27.7497 8.88926 28.0915 8.90948 28.3248 9.11328C29.0612 9.75664 29.9619 10.4483 31.0382 11.107C32.7255 12.1395 34.3119 12.7648 35.5683 13.1533V18.5722C35.5683 22.6743 33.2415 26.2318 29.8383 27.9912C28.3887 28.7408 26.7437 28.8132 25.0001 28.8132V28.8132Z" fill="#FFDECF"/>
<path d="M35.5684 18.5723C35.5684 16.2777 35.5684 15.4479 35.5684 13.1534C34.7201 12.8911 33.7211 12.5202 32.6424 11.9895L32.6387 18.5723C32.6587 19.3025 32.6776 22.8029 30.0158 25.556C27.5676 28.088 23.7895 29.018 20.2071 28.0145C20.2073 28.0146 20.2076 28.0148 20.2078 28.0149C21.6463 28.7497 23.275 29.164 25.0002 29.164C26.7438 29.164 28.3888 28.7407 29.8385 27.9912C33.2416 26.2319 35.5684 22.6744 35.5684 18.5723Z" fill="#FFCDBE"/>
<path d="M35.9616 18.6186H35.5684V13.1659H35.9616C37.4673 13.1659 38.6879 14.3865 38.6879 15.8923C38.6879 17.3979 37.4672 18.6186 35.9616 18.6186Z" fill="#FFDECF"/>
<path d="M14.0385 18.6186H14.4317V13.1659H14.0385C12.5327 13.1659 11.3121 14.3865 11.3121 15.8923C11.3121 17.3979 12.5328 18.6186 14.0385 18.6186Z" fill="#FFCDBE"/>
<path d="M25 42.1992C23.46 42.1992 21.9819 42.5417 20.6065 43.2171C20.2433 43.3954 20.0936 43.8343 20.2718 44.1974C20.45 44.5604 20.8889 44.7103 21.2521 44.5319C22.4248 43.9561 23.6858 43.6641 25 43.6641C25.7798 43.6641 26.5402 43.7706 27.266 43.9701C26.1962 45.6274 25.0688 47.2596 23.9062 48.8322C23.6657 49.1575 23.7345 49.6161 24.0598 49.8566C24.3823 50.0951 24.842 50.0306 25.0841 49.703C26.3282 48.02 27.5323 46.2698 28.6705 44.4935C29.8569 45.0587 30.901 45.8928 31.7162 46.9334C31.2827 47.5867 30.8444 48.2284 30.4087 48.845C30.1752 49.1754 30.2538 49.6324 30.5842 49.8658C30.9115 50.0971 31.3698 50.0232 31.605 49.6902C31.9294 49.2311 32.2552 48.7577 32.5795 48.277C32.7806 48.6662 32.9542 49.0742 33.0963 49.4996C33.2259 49.8876 33.6477 50.0877 34.023 49.9623C34.4067 49.8342 34.6138 49.4192 34.4856 49.0355C33.1136 44.9286 29.25 42.1992 25 42.1992V42.1992ZM17.6068 45.4729C16.6609 46.512 15.9569 47.7106 15.5144 49.0355C15.3863 49.4192 15.5934 49.8341 15.977 49.9623C16.3509 50.0872 16.774 49.8879 16.9036 49.4996C17.2812 48.3693 17.8823 47.3463 18.6899 46.459C18.9622 46.1599 18.9404 45.6966 18.6413 45.4243C18.3423 45.152 17.879 45.1737 17.6068 45.4729ZM29.1412 15.2824C28.7366 15.2824 28.4088 15.6104 28.4088 16.0148V17.6713C28.4088 18.0758 28.7366 18.4037 29.1412 18.4037C29.5458 18.4037 29.8737 18.0758 29.8737 17.6713V16.0148C29.8737 15.6104 29.5458 15.2824 29.1412 15.2824ZM26.3043 22.7214C26.0171 22.8788 25.5386 23.0619 24.9716 23.056C24.4107 23.0501 23.9681 22.8708 23.6957 22.7214C23.3409 22.527 22.8958 22.6567 22.7013 23.0114C22.5068 23.3661 22.6366 23.8112 22.9913 24.0058C23.5926 24.3355 24.2721 24.5136 24.9564 24.5207C25.8304 24.5299 26.5768 24.2427 27.0088 24.0058C27.3635 23.8112 27.4933 23.3661 27.2989 23.0114C27.1044 22.6567 26.6591 22.527 26.3043 22.7214ZM40.9022 33.8854L40.5927 28.1171C40.4355 25.1816 38.5693 22.6844 35.8658 21.6841C36.0631 20.993 36.1968 20.2753 36.2593 19.5374C38.0275 19.3858 39.4202 17.899 39.4202 16.0923C39.4202 14.2996 38.0492 12.8214 36.3008 12.6504V6.81201C36.3008 3.05586 33.2449 0 29.4888 0H20.5113C16.7551 0 13.6992 3.05586 13.6992 6.81201V12.6505C11.9507 12.8215 10.5798 14.2997 10.5798 16.0924C10.5798 17.8991 11.9726 19.3859 13.7407 19.5375C13.8031 20.2753 13.9369 20.9931 14.1343 21.6842C11.4309 22.6844 9.56458 25.1816 9.40735 28.1171L9.09778 33.8876C6.87678 35.4531 5.47571 38.029 5.47571 40.8712V49.2677C5.47571 49.6722 5.80354 50.0001 6.20813 50.0001C6.61272 50.0001 6.94055 49.6722 6.94055 49.2677V40.8712C6.94055 37.6365 9.12922 34.8165 12.263 34.0133C12.3233 33.9979 18.9344 32.3046 18.9906 32.286C20.4534 34.093 22.658 35.1563 25 35.1563C27.342 35.1563 29.5466 34.093 31.0096 32.2858C31.0894 32.3112 33.3143 32.8816 33.3976 32.901C32.4801 34.8555 31.4913 36.7868 30.4499 38.6607C28.7307 37.9686 26.8814 37.6035 25 37.6035C21.899 37.6035 18.8844 38.5937 16.3972 40.4097C16.1603 40.0271 15.8093 39.71 15.3653 39.5161C13.6705 38.7767 11.7042 39.4948 10.8883 41.1515C10.776 41.3797 10.6662 41.6122 10.5623 41.8425C10.38 42.2466 10.2072 42.6615 10.0487 43.076C9.47239 44.5835 10.0241 46.2491 11.3085 47.136C11.0713 47.7776 10.8783 48.4401 10.7331 49.1132C10.648 49.5086 10.8993 49.8982 11.2948 49.9835C11.6801 50.0666 12.0791 49.8211 12.1652 49.4219C12.295 48.8191 12.4675 48.2262 12.6793 47.652C13.5363 47.704 14.3722 47.2689 14.8117 46.4735C15.2417 45.6954 15.6329 44.8852 15.9743 44.0653C16.2116 43.4959 16.4298 42.9097 16.623 42.323C16.6553 42.2249 16.6782 42.1262 16.6968 42.0274C19.0342 40.1172 21.9712 39.0683 24.9998 39.0683C28.0284 39.0683 30.9655 40.1172 33.3029 42.0274C33.3215 42.1262 33.3445 42.2249 33.3767 42.3231C33.5698 42.9098 33.788 43.496 34.0252 44.0653C34.3667 44.8852 34.7579 45.6954 35.188 46.4736C35.6273 47.2686 36.4636 47.7041 37.3203 47.652C37.5322 48.2261 37.7046 48.8191 37.8346 49.4219C37.9204 49.8202 38.3175 50.067 38.7049 49.9835C39.1004 49.8982 39.3518 49.5086 39.2666 49.1132C39.1215 48.4401 38.9284 47.7776 38.6912 47.136C39.9757 46.2491 40.5274 44.5834 39.9511 43.076C39.7926 42.6615 39.6198 42.2466 39.4374 41.8426C39.3336 41.6122 39.2238 41.3797 39.1114 41.1514C38.7855 40.4896 38.2756 39.978 37.6731 39.6489C38.4572 38.1147 39.199 36.5446 39.8867 34.9664C41.8619 36.2672 43.0592 38.4609 43.0592 40.8711V49.2676C43.0592 49.6721 43.387 50 43.7916 50C44.1962 50 44.524 49.6721 44.524 49.2676V40.8711C44.5244 38.0475 43.1628 35.4698 40.9022 33.8854V33.8854ZM36.3008 14.1273C37.2392 14.2889 37.9554 15.1086 37.9554 16.0924C37.9554 17.0763 37.2392 17.8959 36.3008 18.0575V14.1273ZM13.6992 18.0574C12.7609 17.8959 12.0447 17.0762 12.0447 16.0923C12.0447 15.1085 12.7609 14.2888 13.6992 14.1272V18.0574ZM15.2318 41.865C15.0503 42.4164 14.8452 42.9672 14.6224 43.5022C14.3016 44.2725 13.934 45.0338 13.5299 45.7649C13.324 46.1374 12.8756 46.2906 12.4854 46.1219C11.5077 45.6992 11.0389 44.5883 11.4171 43.599C11.5654 43.2113 11.727 42.823 11.8976 42.445C11.9948 42.2296 12.0975 42.012 12.2026 41.7985C12.6719 40.8456 13.804 40.433 14.7794 40.8587C15.1699 41.0292 15.3645 41.4618 15.2318 41.865V41.865ZM19.4746 29.7061C19.4746 30.2635 19.097 30.7495 18.5565 30.8882L11.8992 32.5942C11.4527 32.7087 11.0227 32.8582 10.6104 33.0374L10.8701 28.1954C10.9954 25.8568 12.4781 23.8664 14.6276 23.0633C15.6143 25.3434 17.3282 27.2365 19.4746 28.4475V29.7061ZM25 33.6914C23.1637 33.6914 21.4315 32.8845 20.2465 31.5054C20.6809 31.0244 20.9395 30.3898 20.9395 29.7061V29.1397C22.2003 29.6279 23.5694 29.8965 25 29.8965C26.4307 29.8965 27.7997 29.628 29.0606 29.1397V29.7061C29.0606 30.3898 29.3192 31.0244 29.7535 31.5054C28.5686 32.8845 26.8364 33.6914 25 33.6914ZM25 28.4316C19.5765 28.4316 15.1641 24.0087 15.1641 18.5723V13.8676C17.3673 13.7805 19.5301 13.4041 21.6034 12.7462C21.989 12.6238 22.2024 12.2121 22.08 11.8266C21.9577 11.441 21.5457 11.2277 21.1604 11.35C19.2302 11.9625 17.2163 12.3146 15.1641 12.4008V6.81201C15.1641 3.86357 17.5628 1.46484 20.5113 1.46484H29.4888C32.4372 1.46484 34.836 3.86357 34.836 6.81201V12.131C33.6454 11.694 32.4997 11.1428 31.4206 10.4824C30.5 9.91904 29.6205 9.27295 28.8068 8.56192C28.3218 8.13818 27.6119 8.09619 27.0803 8.45996C26.174 9.08037 25.2168 9.63828 24.2352 10.1183C23.8718 10.296 23.7212 10.7347 23.899 11.0979C24.0766 11.4613 24.5152 11.6117 24.8787 11.4342C25.9116 10.9291 26.9192 10.343 27.8738 9.6919C28.7409 10.4465 29.6769 11.1327 30.656 11.7319C31.9693 12.5355 33.3731 13.1917 34.8359 13.6862V18.5724C34.836 24.0088 30.4236 28.4316 25 28.4316V28.4316ZM37.7976 41.7985C37.9027 42.0121 38.0053 42.2296 38.1026 42.4451C38.2732 42.8231 38.4348 43.2113 38.583 43.599C38.9613 44.5883 38.4925 45.6994 37.5148 46.122C37.1246 46.2906 36.6761 46.1375 36.4703 45.7651C36.0661 45.0339 35.6987 44.2726 35.3778 43.5023C35.155 42.9673 34.9499 42.4165 34.7685 41.8652C34.6358 41.462 34.8303 41.0293 35.2209 40.8588C35.481 40.7452 35.7521 40.6914 36.0189 40.6914C36.7602 40.6913 37.4558 41.1041 37.7976 41.7985V41.7985ZM38.7477 33.9128C37.9788 35.7074 37.1356 37.4944 36.2392 39.2331C35.7064 39.199 35.1576 39.288 34.6347 39.5161C34.1906 39.71 33.8397 40.0271 33.6028 40.4097C33.0231 39.9864 32.4144 39.6086 31.7829 39.2772C33.004 37.0718 34.1619 34.7708 35.2126 32.466C35.2444 32.3964 35.3247 32.3643 35.3954 32.3931L38.6706 33.7274C38.7509 33.7627 38.7817 33.8334 38.7477 33.9128V33.9128ZM35.9478 31.0363C35.2569 30.7555 34.488 30.9859 34.059 31.5584L31.4437 30.8883C30.9031 30.7496 30.5254 30.2635 30.5254 29.7062V28.4476C32.6719 27.2366 34.3858 25.3435 35.3725 23.0634C37.522 23.8665 39.0046 25.8569 39.1299 28.1956L39.3573 32.4332C39.2402 32.37 36.0825 31.0911 35.9478 31.0363V31.0363ZM20.8588 15.2824C20.4542 15.2824 20.1264 15.6104 20.1264 16.0148V17.6713C20.1264 18.0758 20.4542 18.4037 20.8588 18.4037C21.2634 18.4037 21.5912 18.0758 21.5912 17.6713V16.0148C21.5912 15.6104 21.2633 15.2824 20.8588 15.2824Z" fill="#01113E"/>
</g>
<defs>
<clipPath id="clip0_300_121">
<rect width="50" height="50" fill="white"/>
</clipPath>
</defs>
</svg>
