<svg width="40" height="40" viewBox="0 0 40 40" fill="none" xmlns="http://www.w3.org/2000/svg">
<g clip-path="url(#clip0_456_1952)">
<path d="M37.692 31.013L37.4022 30.3942L28.706 11.8253C28.4943 11.3721 28.102 11.0283 27.6247 10.8775L22.2375 9.17266L19.7325 8.38039C19.0973 8.17961 16.6862 9.24845 16.3455 9.96962C16.3408 9.97978 16.3361 9.98993 16.3322 10.0009L13.3569 17.561C13.1765 18.0189 13.1929 18.5306 13.4015 18.976L19.6302 32.2773L22.3929 38.1778C22.8125 39.0732 23.8783 39.4592 24.7737 39.0396L36.8295 33.3938C37.7248 32.9741 38.1108 31.9084 37.692 31.013ZM20.1349 13.4379C19.4371 13.7637 18.6074 13.4637 18.2816 12.7667C17.955 12.069 18.255 11.2392 18.9528 10.9135C19.6497 10.5869 20.4795 10.8869 20.8053 11.5846C21.1318 12.2815 20.8318 13.1113 20.1349 13.4379Z" fill="#00C3FF"/>
<path d="M37.692 31.0131L37.4022 30.3943L25.9214 35.7706C25.4651 35.9838 24.9213 35.787 24.708 35.3307L23.2188 32.1515L27.4684 21.8973C27.6606 21.4348 27.6497 20.9137 27.4395 20.4597L22.2375 9.17266L19.7325 8.38039C19.0973 8.17961 16.6862 9.24845 16.3455 9.96962C16.3408 9.97978 16.3361 9.98994 16.3322 10.0009L13.3569 17.561C13.1765 18.0189 13.1929 18.5306 13.4015 18.976L19.6302 32.2773L22.3929 38.1778C22.8125 39.0732 23.8783 39.4592 24.7737 39.0396L36.8295 33.3938C37.7248 32.9742 38.1108 31.9085 37.692 31.0131ZM20.1349 13.438C19.4371 13.7638 18.6074 13.4638 18.2816 12.7668C17.955 12.0691 18.255 11.2393 18.9528 10.9135C19.6497 10.587 20.4795 10.887 20.8053 11.5847C21.1318 12.2816 20.8318 13.1114 20.1349 13.438Z" fill="#009BFF"/>
<path d="M25.9656 17.2984L22.488 9.78637C21.8786 8.46996 20.354 7.85011 18.999 8.36785L11.4093 11.2677C10.9498 11.4433 10.5827 11.8002 10.3945 12.2546L2.27652 31.8413C1.898 32.7546 2.33152 33.802 3.24488 34.1807L15.543 39.2778C16.4564 39.6563 17.5037 39.2228 17.8824 38.3094L25.9948 18.7361C26.1863 18.2737 26.1757 17.7524 25.9656 17.2984ZM19.0245 13.4929C18.3134 13.1982 17.9759 12.3829 18.2706 11.6718C18.5653 10.9607 19.3806 10.6232 20.0917 10.9179C20.8028 11.2125 21.1403 12.0279 20.8456 12.739C20.5509 13.4501 19.7356 13.7876 19.0245 13.4929Z" fill="#FD672D"/>
<path d="M25.9657 17.2987L25.0422 15.3048L22.488 9.78629C21.8786 8.47057 20.3543 7.85018 18.9986 8.36815L11.4096 11.2676C10.9494 11.4434 10.5829 11.8005 10.3947 12.2544L2.27673 31.8415C1.89782 32.7549 2.33142 33.8026 3.24478 34.1808L14.967 39.039L15.5428 39.2781C16.4562 39.6562 17.5039 39.2226 17.8821 38.3093L25.9946 18.7363C26.186 18.2738 26.1759 17.7527 25.9657 17.2987ZM18.2704 11.6716C18.5649 10.9606 19.3807 10.6231 20.0917 10.9184C20.8027 11.2129 21.1402 12.0279 20.8457 12.7389C20.5511 13.4507 19.7354 13.7882 19.0244 13.4929C18.3134 13.1983 17.9759 12.3834 18.2704 11.6716Z" fill="#FD672D"/>
<path d="M25.9954 18.736L17.8829 38.309C17.5048 39.2223 16.457 39.6559 15.5436 39.2778L14.9678 39.0387L25.0429 15.3044L25.9664 17.2984C26.1767 17.7523 26.1868 18.2734 25.9954 18.736Z" fill="#ED3E74"/>
<path d="M14.5932 30.48C17.8904 30.48 20.5633 27.8071 20.5633 24.5099C20.5633 21.2127 17.8904 18.5398 14.5932 18.5398C11.296 18.5398 8.62305 21.2127 8.62305 24.5099C8.62305 27.8071 11.296 30.48 14.5932 30.48Z" fill="#FEDC63"/>
<path d="M38.2234 30.7644L31.9353 17.3382C31.7982 17.0451 31.4492 16.919 31.1561 17.0561C30.8631 17.1934 30.7367 17.5423 30.874 17.8353L37.162 31.2612C37.4433 31.8627 37.183 32.5813 36.5817 32.863L24.5257 38.5089C23.9245 38.7906 23.2062 38.5305 22.9244 37.9293L20.6704 33.1151L26.537 18.9603C26.7905 18.3485 26.7763 17.6531 26.4982 17.0523L23.2892 10.1204L27.4488 11.4364C27.7689 11.5375 28.0339 11.7696 28.1761 12.074L29.7169 15.3626C29.8165 15.5753 30.0276 15.7001 30.2479 15.7001C30.3311 15.7001 30.4157 15.6822 30.4961 15.6447C30.7892 15.5074 30.9154 15.1584 30.7781 14.8654L29.2375 11.5773C28.9572 10.9771 28.4338 10.5185 27.802 10.3189L22.7855 8.73189C23.8197 7.2211 24.9092 5.20086 25.2841 4.2964C26.267 1.92482 25.4737 0.605909 24.4035 0.162313C23.3333 -0.281127 21.8396 0.0898907 20.8566 2.46147C20.4339 3.48147 20.046 5.70289 19.7701 7.60861C19.4418 7.629 19.1118 7.69775 18.7904 7.82064L11.2008 10.7205C10.5936 10.9525 10.1026 11.43 9.85365 12.0304L1.7361 31.6169C1.49306 32.2033 1.4929 32.8491 1.73571 33.4356C1.97845 34.0221 2.43509 34.4789 3.02142 34.7219L5.39566 35.7059C5.69464 35.8298 6.03754 35.6879 6.16136 35.3889C6.28527 35.0899 6.1434 34.7471 5.84441 34.6232L3.47018 33.6392C3.17307 33.516 2.94158 33.2845 2.81853 32.9873C2.69549 32.6901 2.69556 32.3627 2.81877 32.0656L10.9366 12.4789C11.0628 12.1746 11.3116 11.9325 11.6194 11.815L19.209 8.9151C19.3394 8.86526 19.472 8.82916 19.6052 8.80565C19.5328 9.35604 19.474 9.83737 19.4315 10.1982C19.183 10.2124 18.9368 10.2737 18.7046 10.3825C18.2257 10.6067 17.8628 11.004 17.6828 11.5012C17.5027 11.9985 17.5271 12.536 17.7513 13.0149C18.0874 13.7329 18.8023 14.1549 19.5472 14.1549C19.8279 14.1549 20.1131 14.0949 20.3837 13.9682C20.8626 13.744 21.2255 13.3465 21.4056 12.8494C21.5856 12.3522 21.5613 11.8146 21.3371 11.3357C21.17 10.9792 20.9068 10.6871 20.5782 10.4867C20.6218 10.1136 20.6882 9.56338 20.7726 8.92283C21.2798 9.12049 21.7134 9.50573 21.9572 10.0324L25.4347 17.5444C25.5757 17.8488 25.5828 18.2014 25.4543 18.5114L17.3419 38.0849C17.2188 38.382 16.9873 38.6135 16.69 38.7365C16.3928 38.8597 16.0655 38.8595 15.7683 38.7364L8.51833 35.7316C8.2195 35.6075 7.87653 35.7496 7.75262 36.0485C7.6288 36.3475 7.77059 36.6903 8.06958 36.8142L15.3195 39.819C15.616 39.9419 15.9236 40.0001 16.2263 40.0001C17.159 40.0001 18.0458 39.4475 18.4245 38.5336L20.0627 34.5811L21.863 38.4263C22.2667 39.2879 23.1247 39.7944 24.0186 39.7944C24.3556 39.7944 24.698 39.7224 25.0228 39.5701L37.0788 33.9242C38.265 33.3684 38.7785 31.9512 38.2234 30.7644ZM20.3036 12.4504C20.2302 12.6532 20.0821 12.8153 19.8868 12.9068C19.4835 13.0957 19.0016 12.9212 18.8127 12.5179C18.7212 12.3226 18.7113 12.1032 18.7847 11.9004C18.8582 11.6975 19.0062 11.5354 19.2016 11.4439C19.3105 11.3929 19.4268 11.3673 19.5436 11.3673C19.6364 11.3673 19.7293 11.3835 19.8191 11.416C20.0219 11.4894 20.184 11.6375 20.2756 11.8329C20.3671 12.0282 20.3772 12.2475 20.3036 12.4504ZM21.9397 2.90999C22.2055 2.26834 22.9342 0.821926 23.9551 1.24482C24.9758 1.66795 24.4676 3.20592 24.2016 3.84749C23.8413 4.71695 22.7788 6.68165 21.78 8.12634C21.5174 7.95986 21.2329 7.83056 20.9354 7.74189C21.1997 5.91313 21.5622 3.82101 21.9397 2.90999Z" fill="black"/>
<path d="M19.9794 24.5132C19.9791 24.8368 20.2412 25.0995 20.5649 25.0998C20.565 25.0998 20.5652 25.0998 20.5654 25.0998C20.8888 25.0998 21.1511 24.8378 21.1514 24.5143C21.1527 23.1383 20.7051 21.7649 19.8912 20.6471C19.0492 19.4909 17.8793 18.6584 16.5078 18.2397C13.0501 17.1842 9.37841 19.1384 8.32301 22.596C7.81168 24.271 7.98324 26.0448 8.80614 27.5908C9.62895 29.1367 11.0044 30.2697 12.6794 30.781C13.3054 30.9721 13.9506 31.0669 14.5947 31.0669C15.5106 31.0669 16.4234 30.8749 17.272 30.4948C18.703 29.8537 19.8573 28.7232 20.5223 27.3115C20.6603 27.0188 20.5347 26.6696 20.242 26.5317C19.9493 26.3936 19.6 26.5193 19.4621 26.812C18.3318 29.2115 15.5632 30.436 13.0217 29.66C11.6462 29.2401 10.5165 28.3097 9.84075 27.0401C9.16505 25.7706 9.02411 24.3138 9.44411 22.9382C9.86396 21.5627 10.7945 20.433 12.064 19.7573C13.3335 19.0816 14.7902 18.9405 16.1659 19.3606C18.4489 20.0577 19.9816 22.1285 19.9794 24.5132Z" fill="black"/>
<path d="M16.1983 24.1565C16.5079 24.251 16.8354 24.0767 16.9299 23.7672C17.0171 23.4816 16.9878 23.1791 16.8475 22.9156C16.7073 22.652 16.4728 22.4587 16.1871 22.3716L15.9209 22.2904L16.1018 21.6979C16.1962 21.3883 16.0219 21.0607 15.7125 20.9663C15.4028 20.872 15.0754 21.0461 14.9809 21.3556L14.796 21.9615C14.0153 21.8268 13.2356 22.2905 12.9985 23.0676C12.8739 23.4754 12.9157 23.9075 13.1161 24.2839C13.3164 24.6603 13.6515 24.9363 14.0593 25.0608L14.797 25.2859C14.9055 25.3191 14.9946 25.3924 15.0478 25.4926C15.1011 25.5926 15.1122 25.7076 15.0791 25.8161C15.046 25.9245 14.9726 26.0136 14.8725 26.0669C14.7724 26.1202 14.6575 26.1313 14.549 26.0981L14.1803 25.9855L13.4029 25.7483C13.4639 25.4551 13.2922 25.1583 13.0001 25.0691C12.6904 24.9748 12.363 25.149 12.2685 25.4585C12.0886 26.048 12.4217 26.6741 13.0113 26.8541L13.2776 26.9354L13.0967 27.5279C13.0023 27.8374 13.1766 28.165 13.486 28.2595C13.5431 28.2769 13.6007 28.2852 13.6573 28.2852C13.9082 28.2852 14.1405 28.1227 14.2176 27.8701L14.4024 27.2648C14.493 27.2805 14.5841 27.2894 14.675 27.2894C14.9331 27.2894 15.1889 27.2261 15.4232 27.1014C15.7996 26.9011 16.0756 26.566 16.2 26.1582C16.4571 25.3162 15.9812 24.422 15.1392 24.165L14.4015 23.9398C14.2931 23.9067 14.204 23.8333 14.1507 23.7332C14.0974 23.6331 14.0863 23.5182 14.1195 23.4097C14.1878 23.1858 14.4254 23.059 14.6496 23.1276L15.0182 23.2401C15.0182 23.2401 15.0183 23.2401 15.0184 23.2401C15.0185 23.2401 15.0185 23.2401 15.0185 23.2401L15.7957 23.4774C15.7345 23.7706 15.9062 24.0674 16.1983 24.1565Z" fill="black"/>
<path d="M33.8124 31.5693C33.896 31.5693 33.9809 31.5513 34.0615 31.5133C34.3543 31.3755 34.4799 31.0264 34.3422 30.7337L30.5919 22.7642C30.454 22.4713 30.1048 22.3456 29.8122 22.4835C29.5194 22.6213 29.3937 22.9704 29.5315 23.2631L33.2818 31.2326C33.3817 31.4448 33.5924 31.5693 33.8124 31.5693Z" fill="black"/>
<path d="M27.1921 23.8846C26.8992 24.0224 26.7736 24.3715 26.9114 24.6643L30.6617 32.6338C30.7615 32.846 30.9723 32.9704 31.1923 32.9704C31.2759 32.9704 31.3608 32.9524 31.4414 32.9145C31.7342 32.7767 31.8598 32.4275 31.7221 32.1348L27.9717 24.1653C27.8339 23.8724 27.4846 23.7467 27.1921 23.8846Z" fill="black"/>
</g>
<defs>
<clipPath id="clip0_456_1952">
<rect width="40" height="40" fill="white"/>
</clipPath>
</defs>
</svg>
