<svg width="40" height="40" viewBox="0 0 40 40" fill="none" xmlns="http://www.w3.org/2000/svg">
<g clip-path="url(#clip0_456_1920)">
<path d="M8.28354 29.7682L2.51245 25.2289C2.19721 24.9918 2.09401 24.5731 2.28323 24.2992C3.20815 22.9596 4.99002 22.5021 6.74081 23.1546L11.9602 26.1153L8.28354 29.7682Z" fill="#FD672D"/>
<path d="M10.2207 31.705L14.7719 37.488C15.009 37.8033 15.4277 37.9065 15.7016 37.7172L16.0457 37.4797C17.1787 36.6973 17.5657 35.1902 17.0138 33.7093L13.8854 28.0403L10.2207 31.705Z" fill="#FD672D"/>
<path d="M8.62062 24.2207L5.35547 27.4647L8.28391 29.7681L11.9606 26.1153L8.62062 24.2207Z" fill="#FD672D"/>
<path d="M9.84753 11.9902C9.12542 11.2681 9.06199 10.1154 9.70683 9.32357C10.6339 8.18514 11.7978 6.91561 12.4953 6.21811C13.5213 5.19217 13.5384 5.40365 14.8019 4.59717L17.2406 7.03584C16.4341 8.29943 16.6456 8.31647 15.6196 9.3424C14.9221 10.0399 13.6526 11.2038 12.5142 12.1309C11.7224 12.7758 10.5696 12.7123 9.84753 11.9902Z" fill="#009BFF"/>
<path d="M28.0106 30.1533C27.2885 29.4312 27.2251 28.2785 27.8699 27.4867C28.797 26.3482 29.9609 25.0787 30.6584 24.3812C31.6844 23.3553 31.7015 23.5667 32.965 22.7603L35.4037 25.1989C34.5972 26.4625 34.8087 26.4796 33.7827 27.5055C33.0852 28.203 31.8157 29.3669 30.6773 30.294C29.8855 30.9388 28.7327 30.8754 28.0106 30.1533Z" fill="#009BFF"/>
<path d="M18.9323 18.8505L26.0524 11.7304L3.99606 4.80054C3.54192 4.6846 3.09036 4.795 2.78989 5.09546L0.926454 6.9589C0.302391 7.58296 0.570282 8.72695 1.45122 9.2L18.9323 18.8505Z" fill="#FD672D"/>
<path d="M21.0691 10.1646L14.7129 16.5209L18.9327 18.8504L26.0528 11.7304L21.0691 10.1646Z" fill="#FD672D"/>
<path d="M21.1494 21.0678L28.2695 13.9478L35.1994 36.0041C35.3154 36.4582 35.205 36.9098 34.9045 37.2103L33.0411 39.0737C32.417 39.6978 31.273 39.4299 30.8 38.5489L21.1494 21.0678Z" fill="#FD672D"/>
<path d="M34.5883 10.9545L22.6269 22.9159C20.6197 24.923 18.486 26.795 16.252 28.5088L10.561 32.8745C9.24349 33.8852 7.67654 34.0075 6.83443 33.1653C5.99224 32.3231 6.11451 30.7563 7.12521 29.4388L11.491 23.7477C13.2047 21.5138 15.0768 19.38 17.0839 17.3729L29.0453 5.41141C30.6805 3.77618 32.5584 2.41383 34.5424 1.47852C36.2509 0.673052 38.0669 0.168443 38.9491 1.05063C39.8313 1.93282 39.3267 3.74876 38.5212 5.45735C37.5859 7.44126 36.2235 9.31922 34.5883 10.9545Z" fill="#E0F3FC"/>
<path d="M38.9496 1.05078C38.6391 0.740313 38.2126 0.602187 37.7161 0.587891C37.7518 1.50656 37.3535 2.67172 36.8259 3.79078C35.8906 5.77477 34.5282 7.65273 32.893 9.28789L20.9315 21.2494C18.9244 23.2565 16.7907 25.1285 14.5567 26.8423L8.86566 31.208C8.02762 31.8509 7.08895 32.1338 6.2998 32.0382C6.3591 32.4762 6.5359 32.8666 6.8348 33.1655C7.67699 34.0077 9.24387 33.8855 10.5614 32.8748L16.2524 28.509C18.4864 26.7952 20.6201 24.9232 22.6272 22.9161L34.5886 10.9547C36.2239 9.31945 37.5862 7.44156 38.5215 5.45758C39.3272 3.74891 39.8318 1.93289 38.9496 1.05078Z" fill="#009BFF"/>
<path d="M35.5801 8.66372L35.1716 9.07216C34.7923 9.45145 30.5489 5.20809 30.9283 4.8288L31.3367 4.42036C31.5942 4.16286 31.9721 4.08177 32.2798 4.21786C33.8131 4.89614 35.1042 6.18731 35.7825 7.72059C35.9187 8.02841 35.8375 8.4063 35.5801 8.66372Z" fill="#009BFF"/>
<path d="M33.3823 22.3442C33.1878 22.1498 32.8846 22.1169 32.6528 22.2647C32.2572 22.5172 31.9867 22.667 31.7693 22.7874C31.7392 22.8041 31.71 22.8204 31.681 22.8365L29.734 16.6392L31.3729 15.0003C31.6017 14.7715 31.6017 14.4004 31.3729 14.1716C31.1441 13.9428 30.773 13.9428 30.5442 14.1716C30.5432 14.1726 30.5452 14.1705 30.5442 14.1716L22.2157 22.5C20.2317 24.484 18.106 26.349 15.898 28.0428L10.5679 32.1316C10.566 32.1331 10.5639 32.1343 10.5621 32.1358C10.5609 32.1367 10.56 32.1377 10.5588 32.1387L10.2064 32.409C9.14253 33.225 7.87175 33.3717 7.25042 32.7504C6.62901 32.129 6.77581 30.8583 7.5919 29.7945L7.86167 29.4429C7.86308 29.4412 7.86464 29.4397 7.86597 29.438C7.86847 29.4348 7.87042 29.4315 7.87284 29.4283L11.9581 24.1029C12.2431 23.7315 12.5358 23.3586 12.828 22.9947C13.0307 22.7423 12.9903 22.3735 12.7381 22.1708C12.4857 21.9681 12.1169 22.0084 11.9142 22.2608C11.6166 22.6314 11.3185 23.0112 11.0282 23.3896L10.2153 24.4492L7.03112 22.6434C7.00417 22.6282 6.97612 22.6151 6.94714 22.6042C6.35948 22.3847 5.75979 22.2734 5.16456 22.2734C3.76948 22.2734 2.54378 22.8899 1.8019 23.9645C1.43667 24.4926 1.59558 25.2658 2.1555 25.6915L6.5894 29.1794C5.46722 30.7139 5.3912 32.5486 6.42183 33.5792C6.90815 34.0656 7.57362 34.3056 8.30206 34.3056C9.11698 34.3056 10.0107 34.0043 10.8207 33.412L14.3095 37.8454C14.5803 38.2017 14.9919 38.3956 15.3913 38.3956C15.6196 38.3956 15.844 38.3322 16.0357 38.1996L16.3808 37.9617C17.7339 37.0267 18.2098 35.2354 17.5649 33.5044C17.5548 33.4773 17.5428 33.4511 17.5289 33.4258L15.5298 29.8025L16.6114 28.9727C18.5472 27.4877 20.42 25.8732 22.1927 24.1639L27.7062 34.1502C27.8131 34.3437 28.0133 34.4531 28.2197 34.4531C28.3155 34.4531 28.4126 34.4296 28.5025 34.38C28.7857 34.2236 28.8886 33.867 28.7322 33.5837L23.0611 23.312L28.7992 17.574L30.7871 23.9018C30.7875 23.9032 30.788 23.9045 30.7884 23.9058L34.639 36.1625C34.6983 36.4091 34.6445 36.6451 34.4944 36.7956L32.631 38.659C32.4476 38.8424 32.2043 38.8379 32.0757 38.819C31.7667 38.7735 31.4771 38.5636 31.3167 38.2651L29.94 35.7713C29.7835 35.488 29.4269 35.3852 29.1437 35.5415C28.8604 35.698 28.7575 36.0545 28.9139 36.3378L30.2875 38.8256C30.6216 39.4476 31.2263 39.8785 31.9049 39.9785C32.0026 39.9929 32.0996 40 32.1954 40C32.6775 40 33.1271 39.8204 33.4597 39.4877L35.3237 37.6237C35.7721 37.1742 35.9393 36.5141 35.771 35.8579C35.7684 35.8479 35.7656 35.8379 35.7625 35.8279L33.4924 28.6022C33.7584 28.3523 33.9996 28.1194 34.2004 27.9186C34.9207 27.1983 35.0821 26.9312 35.3786 26.396C35.4991 26.1785 35.649 25.9078 35.9014 25.5121C36.0492 25.2803 36.016 24.9769 35.8216 24.7826L33.3823 22.3442ZM2.86581 24.7594C2.79753 24.708 2.77675 24.6437 2.77511 24.6177C3.29628 23.8725 4.16612 23.4455 5.16456 23.4455C5.60518 23.4455 6.05245 23.5265 6.49472 23.6866L9.49511 25.3881L7.30112 28.2481L2.87573 24.767C2.87245 24.7644 2.86917 24.7619 2.86581 24.7594ZM16.4809 33.9526C16.9145 35.1597 16.6091 36.3794 15.715 36.9972L15.3833 37.2258C15.3573 37.2243 15.2929 37.2035 15.2414 37.1351C15.2389 37.1318 15.2364 37.1284 15.2337 37.1251L11.752 32.7004L14.5892 30.524L16.4809 33.9526ZM34.3534 25.8283C34.1075 26.2722 34.0057 26.456 33.3717 27.0901C33.2887 27.1731 33.1975 27.2626 33.1009 27.3563L32.0407 23.9815C32.1284 23.9287 32.2225 23.8762 32.3373 23.8126C32.4876 23.7294 32.6617 23.6329 32.8819 23.5011L34.665 25.2835C34.5332 25.5038 34.4367 25.678 34.3534 25.8283Z" fill="black"/>
<path d="M39.3676 0.632626C38.4304 -0.30464 36.7242 -0.19964 34.2962 0.944891C32.2996 1.88614 30.3417 3.2863 28.6341 4.99388L23.361 10.267L17.1637 8.32005C17.1798 8.29106 17.196 8.26184 17.2128 8.23169C17.3331 8.01427 17.483 7.74372 17.7355 7.34825C17.8834 7.11653 17.8503 6.81309 17.656 6.61872L15.2174 4.17942C15.023 3.98497 14.7197 3.95192 14.4879 4.09966C14.0923 4.352 13.8215 4.50192 13.604 4.62239C13.0688 4.91888 12.8017 5.08028 12.0814 5.80059C11.8806 6.00145 11.6478 6.24263 11.3978 6.50864L4.17213 4.23848C4.16221 4.23536 4.15221 4.23247 4.14205 4.22997C3.4858 4.06169 2.8258 4.22888 2.37572 4.67778L0.512206 6.54114C0.113534 6.93989 -0.0653723 7.50661 0.0215027 8.09598C0.121425 8.77458 0.55244 9.37927 1.16846 9.71013L15.8356 17.8079C15.0435 18.6296 14.2695 19.4747 13.526 20.3306C13.3137 20.575 13.3397 20.945 13.5841 21.1573C13.695 21.2537 13.8319 21.3009 13.9681 21.3009C14.132 21.3009 14.2949 21.2325 14.4108 21.0992C15.396 19.965 16.4355 18.85 17.5003 17.7851L23.9306 11.3548C23.9321 11.3533 23.9336 11.3518 23.9352 11.3502L29.4629 5.82247C29.7446 5.54083 30.0337 5.26864 30.3284 5.00559C30.3886 5.38825 30.7017 5.78661 30.9203 6.06427C31.2731 6.51263 31.7823 7.07442 32.354 7.64614C32.9258 8.21786 33.4875 8.72708 33.9359 9.07989C34.2137 9.29856 34.6122 9.6113 34.9949 9.6713C34.7318 9.96614 34.4596 10.2554 34.1777 10.5372L32.3113 12.4036C32.0824 12.6324 32.0824 13.0034 32.3113 13.2322C32.54 13.4611 32.9111 13.4611 33.1399 13.2322L35.0063 11.3659C36.7139 9.65825 38.1141 7.70036 39.0553 5.7038C40.1999 3.27614 40.3049 1.56989 39.3676 0.632626ZM12.9101 6.62919C13.5442 5.99513 13.7279 5.89341 14.1718 5.64755C14.3221 5.56427 14.4963 5.46778 14.7166 5.33606L16.499 7.11911C16.3672 7.33934 16.2707 7.51341 16.1874 7.66372C16.1239 7.77849 16.0715 7.87263 16.0186 7.96036L12.6438 6.90013C12.7376 6.80341 12.827 6.71223 12.9101 6.62919ZM16.6881 16.9399L1.729 8.68091C1.43642 8.5238 1.2265 8.23419 1.18096 7.9252C1.16197 7.79653 1.1576 7.55325 1.34096 7.36989L3.20392 5.507C3.35486 5.35638 3.59096 5.30263 3.8376 5.36184L16.0625 9.20255C16.0645 9.20325 16.0664 9.20372 16.0685 9.20442L22.4262 11.2018L16.6881 16.9399ZM33.1827 6.81755C32.3417 5.97661 31.8074 5.3277 31.5884 4.99677L31.7538 4.83138C31.8381 4.747 31.9608 4.71302 32.0455 4.75044C33.4365 5.36583 34.6344 6.56372 35.2498 7.95466C35.2873 8.03934 35.2531 8.16208 35.1688 8.24645L35.0035 8.41184C34.6725 8.19286 34.0236 7.65848 33.1827 6.81755ZM37.9953 5.20419C37.5687 6.10888 37.0399 7.00591 36.4267 7.87348C36.4117 7.73903 36.3773 7.60645 36.3216 7.48052C35.5805 5.80536 34.1948 4.41966 32.5196 3.67856C32.3937 3.62286 32.2612 3.58848 32.1267 3.57341C32.9942 2.9602 33.8913 2.43145 34.796 2.00489C36.6475 1.13208 38.0117 0.934032 38.5389 1.46122C39.0662 1.98864 38.868 3.35286 37.9953 5.20419Z" fill="black"/>
<path d="M7.71361 31.4579C7.48479 31.6867 7.48479 32.0577 7.71361 32.2866C7.82807 32.401 7.97799 32.4583 8.12799 32.4583C8.27799 32.4583 8.42791 32.401 8.54236 32.2866L13.5099 27.3191C13.7387 27.0903 13.7387 26.7193 13.5099 26.4905C13.281 26.2616 12.91 26.2616 12.6812 26.4905L7.71361 31.4579Z" fill="black"/>
</g>
<defs>
<clipPath id="clip0_456_1920">
<rect width="40" height="40" fill="white"/>
</clipPath>
</defs>
</svg>
