<svg width="50" height="50" viewBox="0 0 50 50" fill="none" xmlns="http://www.w3.org/2000/svg">
<g clip-path="url(#clip0_300_223)">
<path d="M6.34375 22.3L11.4063 15.7203C11.9899 14.9617 12.7399 14.3473 13.5985 13.9244C14.4572 13.5015 15.4015 13.2815 16.3586 13.2813H28.8148C29.8097 13.2812 30.7902 13.5187 31.6748 13.9739C32.5594 14.4291 33.3225 15.0889 33.9008 15.8984L38.3391 22.1094C38.8166 22.7777 39.4212 23.3453 40.1183 23.7797C40.8154 24.2142 41.5912 24.507 42.4016 24.6414L44 24.9078C45.4592 25.1519 46.7844 25.9057 47.74 27.0351C48.6956 28.1646 49.2196 29.5963 49.2188 31.0758V35.1562C49.2188 35.5707 49.0541 35.9681 48.7611 36.2611C48.4681 36.5541 48.0707 36.7188 47.6562 36.7188H2.34375C1.92935 36.7188 1.53192 36.5541 1.2389 36.2611C0.94587 35.9681 0.78125 35.5707 0.78125 35.1562V29.5867C0.781372 28.4433 1.09987 27.3224 1.70107 26.3498C2.30227 25.3771 3.16242 24.5911 4.18516 24.0797C5.02979 23.657 5.76776 23.0485 6.34375 22.3V22.3Z" fill="#FD672D"/>
<path d="M10.257 34.375C8.3655 34.375 6.55144 33.6236 5.21392 32.2861C3.87641 30.9486 3.125 29.1345 3.125 27.243C3.12826 26.1875 3.4038 25.1507 3.925 24.2328C2.97318 24.7661 2.18037 25.5431 1.62792 26.4839C1.07546 27.4248 0.783248 28.4957 0.78125 29.5867V35.1562C0.78125 35.5706 0.94587 35.9681 1.2389 36.2611C1.53192 36.5541 1.92935 36.7187 2.34375 36.7187H47.6562C48.0707 36.7187 48.4681 36.5541 48.7611 36.2611C49.0541 35.9681 49.2188 35.5706 49.2188 35.1562V34.375H10.257Z" fill="#FD672D"/>
<path d="M28.8414 15.625H23.4375V23.4375H35.9375L31.4016 16.9578C31.1134 16.5462 30.7303 16.2101 30.2846 15.9781C29.8389 15.7461 29.3439 15.625 28.8414 15.625V15.625Z" fill="#A7D0E1"/>
<path d="M31.2969 20.3125C31.171 20.3127 31.047 20.2824 30.9353 20.2244C30.8236 20.1663 30.7276 20.0821 30.6555 19.9789L29.5617 18.4164C29.4454 18.2465 29.4008 18.0376 29.4376 17.835C29.4745 17.6324 29.5898 17.4526 29.7586 17.3346C29.9273 17.2166 30.1358 17.17 30.3388 17.2049C30.5417 17.2398 30.7226 17.3535 30.8422 17.5211L31.936 19.0836C32.0178 19.2006 32.0659 19.3378 32.0753 19.4803C32.0846 19.6227 32.0547 19.765 31.9888 19.8917C31.9229 20.0184 31.8236 20.1246 31.7016 20.1987C31.5797 20.2729 31.4397 20.3123 31.2969 20.3125V20.3125Z" fill="white"/>
<path d="M25.7812 17.9688V15.625H23.4375V23.4375H35.9375L34.2969 21.0938H28.9062C28.0774 21.0938 27.2826 20.7645 26.6965 20.1785C26.1105 19.5924 25.7812 18.7976 25.7812 17.9688Z" fill="#80BBCE"/>
<path d="M8.59375 23.4375H20.3125V15.625H16.3453C15.8769 15.6251 15.4145 15.7304 14.9924 15.9332C14.5702 16.1361 14.199 16.4312 13.9062 16.7969L8.59375 23.4375Z" fill="#A7D0E1"/>
<path d="M15.3125 18.5555L17.6563 15.625H16.3453C15.8769 15.6251 15.4145 15.7304 14.9924 15.9332C14.5702 16.1361 14.199 16.4312 13.9062 16.7969L8.59375 23.4375H20.3125V21.0938H16.532C16.2378 21.0936 15.9496 21.0104 15.7006 20.8537C15.4516 20.6969 15.2519 20.4731 15.1245 20.2079C14.9971 19.9427 14.9471 19.6469 14.9804 19.3546C15.0136 19.0623 15.1288 18.7853 15.3125 18.5555Z" fill="#80BBCE"/>
<path d="M44.5313 27.3438C44.5307 27.7543 44.6112 28.1609 44.7681 28.5402C44.9249 28.9196 45.1551 29.2643 45.4454 29.5546C45.7357 29.8449 46.0804 30.0751 46.4598 30.2319C46.8391 30.3888 47.2457 30.4693 47.6563 30.4688H49.1875C49.0816 29.3336 48.6593 28.2509 47.9688 27.3438H44.5313Z" fill="#A7D0E1"/>
<path d="M42.9688 35.9375C42.9725 35.2866 42.8407 34.642 42.5817 34.0449C42.3226 33.4477 41.942 32.9111 41.4642 32.4691C40.9863 32.0271 40.4217 31.6895 39.8062 31.4778C39.1906 31.266 38.5378 31.1848 37.8891 31.2393C37.2405 31.2937 36.6103 31.4827 36.0387 31.7941C35.4672 32.1055 34.9667 32.5326 34.5692 33.048C34.1718 33.5635 33.886 34.1561 33.7302 34.7881C33.5743 35.4201 33.5518 36.0776 33.6641 36.7187H42.8984C42.9437 36.4607 42.9672 36.1994 42.9688 35.9375V35.9375Z" fill="#FD672D"/>
<path d="M39.8438 39.8438C42.4326 39.8438 44.5312 37.7451 44.5312 35.1562C44.5312 32.5674 42.4326 30.4688 39.8438 30.4688C37.2549 30.4688 35.1562 32.5674 35.1562 35.1562C35.1562 37.7451 37.2549 39.8438 39.8438 39.8438Z" fill="#7A838B"/>
<path d="M39.8438 36.7188C40.7067 36.7188 41.4062 36.0192 41.4062 35.1562C41.4062 34.2933 40.7067 33.5938 39.8438 33.5938C38.9808 33.5938 38.2812 34.2933 38.2812 35.1562C38.2812 36.0192 38.9808 36.7188 39.8438 36.7188Z" fill="#A7D0E1"/>
<path d="M10.1562 39.8438C12.7451 39.8438 14.8438 37.7451 14.8438 35.1562C14.8438 32.5674 12.7451 30.4688 10.1562 30.4688C7.56742 30.4688 5.46875 32.5674 5.46875 35.1562C5.46875 37.7451 7.56742 39.8438 10.1562 39.8438Z" fill="#7A838B"/>
<path d="M12.5 37.5C11.7166 37.5009 10.9456 37.3053 10.2574 36.931C9.56924 36.5567 8.98599 36.0157 8.56108 35.3575C8.13617 34.6994 7.88319 33.9452 7.82529 33.164C7.7674 32.3828 7.90645 31.5995 8.2297 30.8859C7.53725 31.1971 6.93073 31.6717 6.46228 32.2691C5.99383 32.8664 5.67746 33.5686 5.54039 34.3153C5.40332 35.0619 5.44965 35.8307 5.67538 36.5555C5.90111 37.2803 6.2995 37.9394 6.83629 38.4762C7.37307 39.013 8.0322 39.4114 8.757 39.6371C9.4818 39.8629 10.2506 39.9092 10.9972 39.7721C11.7439 39.635 12.4461 39.3187 13.0434 38.8502C13.6408 38.3818 14.1154 37.7752 14.4266 37.0828C13.8214 37.3574 13.1646 37.4997 12.5 37.5V37.5Z" fill="#5D6972"/>
<path d="M42.1875 37.5C41.4041 37.5009 40.6331 37.3053 39.9449 36.931C39.2567 36.5567 38.6735 36.0157 38.2486 35.3575C37.8237 34.6994 37.5707 33.9452 37.5128 33.164C37.4549 32.3828 37.5939 31.5995 37.9172 30.8859C37.2248 31.1971 36.6182 31.6717 36.1498 32.2691C35.6813 32.8664 35.365 33.5686 35.2279 34.3153C35.0908 35.0619 35.1371 35.8307 35.3629 36.5555C35.5886 37.2803 35.987 37.9394 36.5238 38.4762C37.0606 39.013 37.7197 39.4114 38.4445 39.6371C39.1693 39.8629 39.9381 39.9092 40.6847 39.7721C41.4314 39.635 42.1336 39.3187 42.7309 38.8502C43.3283 38.3818 43.8029 37.7752 44.1141 37.0828C43.5089 37.3574 42.8521 37.4997 42.1875 37.5V37.5Z" fill="#5D6972"/>
<path d="M10.1562 36.7188C11.0192 36.7188 11.7188 36.0192 11.7188 35.1562C11.7188 34.2933 11.0192 33.5938 10.1562 33.5938C9.29331 33.5938 8.59375 34.2933 8.59375 35.1562C8.59375 36.0192 9.29331 36.7188 10.1562 36.7188Z" fill="#A7D0E1"/>
<path d="M2.34375 27.3438H1.21797C0.933037 28.0574 0.784889 28.8183 0.78125 29.5867V32.0312H2.34375C2.75815 32.0312 3.15558 31.8666 3.4486 31.5736C3.74163 31.2806 3.90625 30.8832 3.90625 30.4688V28.9062C3.90625 28.4918 3.74163 28.0944 3.4486 27.8014C3.15558 27.5084 2.75815 27.3438 2.34375 27.3438V27.3438Z" fill="#A7D0E1"/>
<path d="M3.90625 30.4758C3.44683 29.5728 3.18629 28.5817 3.14219 27.5695C2.90167 27.4227 2.62552 27.3447 2.34375 27.3438H1.21797C1.10448 27.6369 1.01257 27.938 0.942969 28.2445C0.917969 28.3562 0.892969 28.468 0.874219 28.5812C0.857031 28.6812 0.841406 28.7813 0.828906 28.882C0.799714 29.1153 0.783803 29.3501 0.78125 29.5852V32.0312H2.34375C2.75694 32.0313 3.1533 31.8676 3.44613 31.5761C3.73895 31.2846 3.90439 30.889 3.90625 30.4758V30.4758Z" fill="#80BBCE"/>
<path d="M24.2188 10.1562H19.5312L17.9688 13.2812H25.7812L24.2188 10.1562Z" fill="#7A838B"/>
<path d="M19.5312 10.1562L17.9688 13.2812H20.3125L21.875 10.1562H19.5312Z" fill="#5D6972"/>
<path d="M44.1242 24.1406L42.5258 23.875C41.8168 23.7588 41.138 23.5031 40.5285 23.1228C39.919 22.7425 39.391 22.2451 38.975 21.6594L34.5367 15.4453C33.8854 14.5353 33.0267 13.7934 32.0317 13.2813C31.0367 12.7691 29.934 12.5013 28.8149 12.5H26.2641L24.9219 9.80703C24.8567 9.67656 24.7563 9.56695 24.632 9.4906C24.5078 9.41424 24.3646 9.3742 24.2188 9.375H19.5313C19.3861 9.37493 19.2438 9.41532 19.1202 9.49163C18.9967 9.56794 18.8969 9.67716 18.832 9.80703L17.486 12.5H16.3586C15.2822 12.5033 14.2208 12.7522 13.2551 13.2277C12.2894 13.7032 11.4449 14.3927 10.7859 15.2437L5.72501 21.8234C5.22018 22.4777 4.57452 23.0098 3.83595 23.3805C2.68047 23.9531 1.70861 24.8381 1.03059 25.9351C0.352575 27.0321 -0.00445119 28.2971 1.0799e-05 29.5867V35.1562C1.0799e-05 35.7778 0.246941 36.374 0.686479 36.8135C1.12602 37.2531 1.72216 37.5 2.34376 37.5H5.22267C5.66452 38.4347 6.36283 39.2247 7.23627 39.7779C8.10972 40.3312 9.12235 40.6249 10.1563 40.6249C11.1902 40.6249 12.2028 40.3312 13.0763 39.7779C13.9497 39.2247 14.648 38.4347 15.0899 37.5H34.9102C35.352 38.4347 36.0503 39.2247 36.9238 39.7779C37.7972 40.3312 38.8099 40.6249 39.8438 40.6249C40.8777 40.6249 41.8903 40.3312 42.7638 39.7779C43.6372 39.2247 44.3355 38.4347 44.7774 37.5H47.6563C48.2779 37.5 48.874 37.2531 49.3135 36.8135C49.7531 36.374 50 35.7778 50 35.1562V31.0758C50.0041 29.4102 49.4151 27.7976 48.3385 26.5268C47.2618 25.2561 45.7678 24.4101 44.1242 24.1406V24.1406ZM47.5735 28.125C47.8825 28.6066 48.1137 29.1339 48.2586 29.6875H47.6563C47.0365 29.6873 46.4418 29.4425 46.0016 29.0062C45.7543 28.7567 45.5649 28.4559 45.4469 28.125H47.5735ZM20.0141 10.9375H23.736L24.5172 12.5H19.2328L20.0141 10.9375ZM2.34376 28.125C2.55096 28.125 2.74968 28.2073 2.89619 28.3538C3.0427 28.5003 3.12501 28.699 3.12501 28.9062V30.4687C3.12501 30.6759 3.0427 30.8747 2.89619 31.0212C2.74968 31.1677 2.55096 31.25 2.34376 31.25H1.56251V29.5867C1.5626 29.0926 1.63042 28.6007 1.76407 28.125H2.34376ZM10.1563 39.0625C9.38368 39.0625 8.62844 38.8334 7.98606 38.4042C7.34369 37.9749 6.84301 37.3649 6.54736 36.6511C6.2517 35.9373 6.17434 35.1519 6.32507 34.3942C6.47579 33.6364 6.84783 32.9404 7.39413 32.3941C7.94042 31.8478 8.63645 31.4758 9.39419 31.3251C10.1519 31.1743 10.9373 31.2517 11.6511 31.5473C12.3649 31.843 12.975 32.3437 13.4042 32.986C13.8334 33.6284 14.0625 34.3837 14.0625 35.1562C14.0613 36.1919 13.6493 37.1847 12.917 37.917C12.1847 38.6493 11.1919 39.0613 10.1563 39.0625V39.0625ZM39.8438 39.0625C39.0712 39.0625 38.3159 38.8334 37.6736 38.4042C37.0312 37.9749 36.5305 37.3649 36.2349 36.6511C35.9392 35.9373 35.8618 35.1519 36.0126 34.3942C36.1633 33.6364 36.5353 32.9404 37.0816 32.3941C37.6279 31.8478 38.324 31.4758 39.0817 31.3251C39.8394 31.1743 40.6248 31.2517 41.3386 31.5473C42.0524 31.843 42.6625 32.3437 43.0917 32.986C43.5209 33.6284 43.75 34.3837 43.75 35.1562C43.7488 36.1919 43.3368 37.1847 42.6045 37.917C41.8722 38.6493 40.8794 39.0613 39.8438 39.0625V39.0625ZM47.6563 35.9375H45.25C45.3688 35.1586 45.3179 34.3633 45.1007 33.6059C44.8836 32.8486 44.5054 32.1471 43.992 31.5495C43.4786 30.9518 42.8421 30.4722 42.1262 30.1434C41.4102 29.8145 40.6316 29.6443 39.8438 29.6443C39.0559 29.6443 38.2773 29.8145 37.5614 30.1434C36.8454 30.4722 36.2089 30.9518 35.6955 31.5495C35.1821 32.1471 34.8039 32.8486 34.5868 33.6059C34.3697 34.3633 34.3187 35.1586 34.4375 35.9375H15.5625C15.6813 35.1586 15.6304 34.3633 15.4132 33.6059C15.1961 32.8486 14.8179 32.1471 14.3045 31.5495C13.7911 30.9518 13.1546 30.4722 12.4387 30.1434C11.7227 29.8145 10.9441 29.6443 10.1563 29.6443C9.36839 29.6443 8.58983 29.8145 7.87386 30.1434C7.15789 30.4722 6.52142 30.9518 6.00802 31.5495C5.49462 32.1471 5.11641 32.8486 4.89928 33.6059C4.68216 34.3633 4.63124 35.1586 4.75001 35.9375H2.34376C2.13656 35.9375 1.93785 35.8552 1.79133 35.7087C1.64482 35.5622 1.56251 35.3634 1.56251 35.1562V32.8125H2.34376C2.96536 32.8125 3.5615 32.5656 4.00104 32.126C4.44058 31.6865 4.68751 31.0903 4.68751 30.4687V28.9062C4.68491 28.3118 4.45656 27.7406 4.04869 27.3082C3.64081 26.8758 3.08388 26.6146 2.49064 26.5773C3.00594 25.8122 3.71022 25.1933 4.53517 24.7805C5.48421 24.3035 6.31401 23.6195 6.96329 22.7789L12.0242 16.1992C12.5365 15.5367 13.1932 14.9998 13.9443 14.6296C14.6954 14.2593 15.5212 14.0653 16.3586 14.0625H28.8149C29.6857 14.0629 30.5438 14.2708 31.3183 14.669C32.0927 15.0672 32.7611 15.6443 33.268 16.3523L37.7063 22.5664C38.2403 23.3189 38.9183 23.9581 39.7008 24.447C40.4834 24.9359 41.3552 25.2649 42.2656 25.4148L43.8649 25.6812C44.6526 25.8114 45.4024 26.1122 46.0617 26.5625H44.5313C44.3241 26.5625 44.1253 26.6448 43.9788 26.7913C43.8323 26.9378 43.75 27.1365 43.75 27.3437C43.7495 27.8569 43.8502 28.3651 44.0463 28.8392C44.2424 29.3134 44.5302 29.7442 44.893 30.107C45.2558 30.4699 45.6866 30.7576 46.1608 30.9537C46.635 31.1498 47.1431 31.2505 47.6563 31.25H48.4375V35.1562C48.4375 35.3634 48.3552 35.5622 48.2087 35.7087C48.0622 35.8552 47.8635 35.9375 47.6563 35.9375V35.9375Z" fill="#01113E"/>
<path d="M32.0422 16.5102C31.682 15.9955 31.203 15.5753 30.6458 15.2852C30.0886 14.9951 29.4696 14.8437 28.8414 14.8438H23.4375C23.2303 14.8438 23.0316 14.9261 22.8851 15.0726C22.7386 15.2191 22.6562 15.4178 22.6562 15.625V23.4375C22.6562 23.6447 22.7386 23.8434 22.8851 23.9899C23.0316 24.1364 23.2303 24.2188 23.4375 24.2188H35.9375C36.0803 24.2187 36.2204 24.1794 36.3425 24.1053C36.4646 24.0312 36.5641 23.925 36.63 23.7983C36.696 23.6716 36.726 23.5292 36.7167 23.3867C36.7074 23.2442 36.6592 23.1069 36.5773 22.9898L32.0422 16.5102ZM24.2188 22.6562V16.4062H28.8414C29.2182 16.4062 29.5895 16.4969 29.9238 16.6709C30.2581 16.8448 30.5455 17.0968 30.7617 17.4055L34.4375 22.6562H24.2188Z" fill="#01113E"/>
<path d="M20.3125 14.8437H16.3453C15.7599 14.843 15.1819 14.9744 14.6543 15.2281C14.1267 15.4819 13.6633 15.8515 13.2985 16.3094L12.986 16.7C12.9218 16.7801 12.8741 16.8721 12.8455 16.9707C12.817 17.0692 12.8081 17.1725 12.8194 17.2745C12.8307 17.3765 12.862 17.4752 12.9115 17.5651C12.961 17.655 13.0277 17.7343 13.1078 17.7984C13.2697 17.9279 13.4763 17.9878 13.6823 17.965C13.8883 17.9421 14.0768 17.8384 14.2063 17.6766L14.5188 17.2859C14.7373 17.0112 15.0151 16.7894 15.3314 16.6371C15.6477 16.4847 15.9943 16.4058 16.3453 16.4062H19.5313V22.6562H10.2196L12.3289 20.0195C12.393 19.9394 12.4408 19.8474 12.4693 19.7489C12.4979 19.6503 12.5068 19.5471 12.4955 19.4451C12.4842 19.3431 12.4529 19.2443 12.4034 19.1544C12.3539 19.0645 12.2872 18.9852 12.2071 18.9211C12.1269 18.857 12.035 18.8093 11.9364 18.7807C11.8378 18.7521 11.7346 18.7432 11.6326 18.7545C11.5306 18.7659 11.4318 18.7971 11.3419 18.8466C11.252 18.8961 11.1727 18.9628 11.1086 19.043L7.98361 22.9492C7.8916 23.0641 7.83394 23.2027 7.81726 23.349C7.80058 23.4952 7.82556 23.6432 7.88933 23.7759C7.9531 23.9086 8.05306 24.0206 8.17769 24.0989C8.30232 24.1773 8.44656 24.2188 8.59377 24.2187H20.3125C20.5197 24.2187 20.7184 24.1364 20.8649 23.9899C21.0115 23.8434 21.0938 23.6447 21.0938 23.4375V15.625C21.0938 15.4178 21.0115 15.2191 20.8649 15.0726C20.7184 14.9261 20.5197 14.8437 20.3125 14.8437V14.8437Z" fill="#01113E"/>
<path d="M26.5625 25H25C24.7928 25 24.5941 25.0823 24.4476 25.2288C24.3011 25.3753 24.2188 25.574 24.2188 25.7812C24.2188 25.9885 24.3011 26.1872 24.4476 26.3337C24.5941 26.4802 24.7928 26.5625 25 26.5625H26.5625C26.7697 26.5625 26.9684 26.4802 27.1149 26.3337C27.2614 26.1872 27.3438 25.9885 27.3438 25.7812C27.3438 25.574 27.2614 25.3753 27.1149 25.2288C26.9684 25.0823 26.7697 25 26.5625 25V25Z" fill="#01113E"/>
<path d="M11.7188 25H10.1562C9.94905 25 9.75034 25.0823 9.60382 25.2288C9.45731 25.3753 9.375 25.574 9.375 25.7812C9.375 25.9885 9.45731 26.1872 9.60382 26.3337C9.75034 26.4802 9.94905 26.5625 10.1562 26.5625H11.7188C11.926 26.5625 12.1247 26.4802 12.2712 26.3337C12.4177 26.1872 12.5 25.9885 12.5 25.7812C12.5 25.574 12.4177 25.3753 12.2712 25.2288C12.1247 25.0823 11.926 25 11.7188 25V25Z" fill="#01113E"/>
<path d="M39.8438 32.8125C39.3802 32.8125 38.9271 32.95 38.5416 33.2075C38.1562 33.465 37.8558 33.8311 37.6784 34.2593C37.501 34.6876 37.4546 35.1588 37.545 35.6135C37.6355 36.0681 37.8587 36.4858 38.1865 36.8135C38.5142 37.1413 38.9319 37.3645 39.3865 37.455C39.8412 37.5454 40.3124 37.499 40.7407 37.3216C41.1689 37.1442 41.535 36.8438 41.7925 36.4584C42.05 36.0729 42.1875 35.6198 42.1875 35.1562C42.1875 34.5346 41.9406 33.9385 41.501 33.499C41.0615 33.0594 40.4654 32.8125 39.8438 32.8125ZM39.8438 35.9375C39.6892 35.9375 39.5382 35.8917 39.4097 35.8058C39.2812 35.72 39.1811 35.598 39.122 35.4552C39.0628 35.3125 39.0474 35.1554 39.0775 35.0038C39.1077 34.8523 39.1821 34.7131 39.2913 34.6038C39.4006 34.4946 39.5398 34.4202 39.6913 34.39C39.8429 34.3599 40 34.3753 40.1427 34.4345C40.2855 34.4936 40.4075 34.5937 40.4933 34.7222C40.5792 34.8507 40.625 35.0017 40.625 35.1562C40.625 35.3635 40.5427 35.5622 40.3962 35.7087C40.2497 35.8552 40.051 35.9375 39.8438 35.9375Z" fill="#01113E"/>
<path d="M10.1563 32.8125C9.6927 32.8125 9.23956 32.95 8.85413 33.2075C8.46871 33.465 8.1683 33.8311 7.99091 34.2593C7.81352 34.6876 7.7671 35.1588 7.85754 35.6135C7.94797 36.0681 8.17119 36.4858 8.49897 36.8135C8.82675 37.1413 9.24437 37.3645 9.69901 37.455C10.1537 37.5454 10.6249 37.499 11.0532 37.3216C11.4814 37.1442 11.8475 36.8438 12.105 36.4584C12.3625 36.0729 12.5 35.6198 12.5 35.1562C12.5 34.5346 12.2531 33.9385 11.8135 33.499C11.374 33.0594 10.7779 32.8125 10.1563 32.8125ZM10.1563 35.9375C10.0017 35.9375 9.85069 35.8917 9.72221 35.8058C9.59374 35.72 9.4936 35.598 9.43447 35.4552C9.37534 35.3125 9.35987 35.1554 9.39001 35.0038C9.42016 34.8523 9.49456 34.7131 9.60382 34.6038C9.71308 34.4946 9.85229 34.4202 10.0038 34.39C10.1554 34.3599 10.3125 34.3753 10.4552 34.4345C10.598 34.4936 10.72 34.5937 10.8058 34.7222C10.8917 34.8507 10.9375 35.0017 10.9375 35.1562C10.9375 35.3635 10.8552 35.5622 10.7087 35.7087C10.5622 35.8552 10.3635 35.9375 10.1563 35.9375Z" fill="#01113E"/>
</g>
<defs>
<clipPath id="clip0_300_223">
<rect width="50" height="50" fill="white"/>
</clipPath>
</defs>
</svg>
