<svg xmlns="http://www.w3.org/2000/svg" xmlns:xlink="http://www.w3.org/1999/xlink" width="50" zoomAndPan="magnify" viewBox="0 0 37.5 37.499999" height="50" preserveAspectRatio="xMidYMid meet" version="1.2"><defs><clipPath id="bbcf300d8b"><path d="M 1.65625 1.570312 L 35.699219 1.570312 L 35.699219 35.617188 L 1.65625 35.617188 Z M 1.65625 1.570312 "/></clipPath></defs><g id="4543a749b6"><g clip-rule="nonzero" clip-path="url(#bbcf300d8b)"><path style=" stroke:none;fill-rule:nonzero;fill:#09afef;fill-opacity:1;" d="M 35.1875 34.59375 C 35.167969 34.523438 35.152344 34.453125 35.125 34.390625 C 33.898438 31.542969 31.855469 29.613281 28.835938 28.769531 C 28.496094 28.675781 28.152344 28.597656 27.785156 28.503906 C 27.699219 28.304688 27.617188 28.109375 27.523438 27.921875 C 27.363281 27.609375 27.222656 27.273438 27.023438 26.984375 C 26.097656 25.65625 24.820312 25.003906 23.195312 25.082031 C 22.773438 25.101562 22.351562 25.1875 21.9375 25.289062 C 21.65625 25.355469 21.460938 25.289062 21.269531 25.097656 C 20.433594 24.25 19.382812 23.855469 18.230469 23.683594 C 18.089844 23.660156 17.949219 23.652344 17.808594 23.628906 C 17.671875 23.609375 17.546875 23.476562 17.53125 23.347656 C 17.527344 23.308594 17.515625 23.277344 17.515625 23.242188 C 17.523438 21.570312 17.53125 19.898438 17.546875 18.226562 C 17.546875 18.039062 17.679688 17.914062 17.886719 17.890625 C 18.804688 17.777344 19.722656 17.675781 20.625 17.476562 C 22.695312 17.023438 24.644531 16.28125 26.410156 15.097656 C 28.761719 13.519531 30.410156 11.390625 31.351562 8.71875 C 32.09375 6.609375 32.324219 4.429688 32.210938 2.207031 C 32.203125 2.109375 32.136719 2.015625 32.085938 1.886719 C 31.667969 1.824219 31.25 1.738281 30.828125 1.707031 C 29.726562 1.621094 28.625 1.59375 27.519531 1.648438 C 26.558594 1.695312 25.613281 1.851562 24.683594 2.105469 C 21.746094 2.910156 19.566406 4.664062 18.164062 7.371094 C 17.65625 8.355469 17.292969 9.394531 17.035156 10.46875 C 16.953125 10.808594 16.863281 11.148438 16.777344 11.488281 C 16.535156 11.4375 16.472656 11.261719 16.390625 11.105469 C 15.902344 10.1875 15.285156 9.367188 14.53125 8.652344 C 13.589844 7.757812 12.515625 7.082031 11.324219 6.574219 C 9.40625 5.753906 7.394531 5.355469 5.316406 5.261719 C 5.246094 5.257812 5.175781 5.265625 5.105469 5.269531 C 4.976562 5.273438 4.8125 5.390625 4.789062 5.511719 C 4.757812 5.648438 4.71875 5.785156 4.707031 5.925781 C 4.609375 7.246094 4.632812 8.558594 4.894531 9.859375 C 5.472656 12.746094 7.015625 14.941406 9.628906 16.347656 C 10.574219 16.855469 11.578125 17.214844 12.617188 17.457031 C 13.625 17.695312 14.644531 17.84375 15.675781 17.886719 C 15.820312 17.894531 15.960938 17.902344 16.101562 17.914062 C 16.28125 17.929688 16.40625 18.070312 16.421875 18.269531 C 16.425781 18.304688 16.429688 18.339844 16.429688 18.378906 C 16.421875 20.011719 16.417969 21.648438 16.40625 23.285156 C 16.402344 23.386719 16.355469 23.488281 16.320312 23.613281 C 15.980469 23.699219 15.640625 23.785156 15.296875 23.863281 C 14.351562 24.082031 13.472656 24.457031 12.679688 25.019531 C 11.847656 25.605469 11.195312 26.339844 10.832031 27.308594 C 10.757812 27.503906 10.652344 27.6875 10.558594 27.890625 C 10.144531 27.898438 9.757812 27.90625 9.367188 27.910156 C 8.613281 27.917969 7.878906 28.042969 7.167969 28.292969 C 4.191406 29.324219 2.433594 31.441406 1.703125 34.464844 C 1.679688 34.566406 1.679688 34.675781 1.671875 34.78125 C 1.65625 35.074219 1.882812 35.355469 2.167969 35.371094 C 2.488281 35.394531 2.808594 35.398438 3.128906 35.398438 C 13.335938 35.398438 23.542969 35.398438 33.753906 35.398438 C 34.039062 35.398438 34.324219 35.394531 34.605469 35.386719 C 34.976562 35.378906 35.34375 35.132812 35.1875 34.59375 Z M 30.75 3.640625 C 30.945312 3.519531 31.125 3.59375 31.128906 3.796875 C 31.132812 3.832031 31.136719 3.867188 31.136719 3.902344 C 31.136719 4.042969 31.136719 4.183594 31.136719 4.238281 C 31.003906 6.003906 30.679688 7.632812 30.003906 9.179688 C 29.117188 11.214844 27.753906 12.859375 25.917969 14.113281 C 24.253906 15.253906 22.410156 15.96875 20.453125 16.398438 C 19.828125 16.535156 19.207031 16.683594 18.558594 16.667969 C 18.421875 16.664062 18.316406 16.488281 18.386719 16.363281 C 18.542969 16.085938 18.695312 15.804688 18.867188 15.535156 C 20.175781 13.453125 21.707031 11.546875 23.410156 9.777344 C 25.507812 7.59375 27.816406 5.65625 30.304688 3.933594 C 30.449219 3.835938 30.597656 3.734375 30.75 3.640625 Z M 17.632812 14.144531 C 17.707031 12.351562 17.972656 10.816406 18.511719 9.335938 C 18.71875 8.773438 18.953125 8.210938 19.238281 7.679688 C 20.4375 5.4375 22.277344 3.960938 24.707031 3.226562 C 26.289062 2.746094 27.914062 2.628906 29.554688 2.738281 C 29.644531 2.746094 29.703125 2.78125 29.703125 2.863281 C 29.699219 2.921875 29.683594 3.003906 29.640625 3.039062 C 29.421875 3.214844 29.191406 3.382812 28.960938 3.550781 C 27.660156 4.484375 26.410156 5.480469 25.214844 6.542969 C 22.539062 8.910156 20.171875 11.542969 18.210938 14.535156 C 18.097656 14.707031 18.023438 14.917969 17.808594 14.996094 C 17.78125 15.007812 17.722656 14.988281 17.710938 14.964844 C 17.675781 14.910156 17.636719 14.839844 17.636719 14.777344 C 17.628906 14.492188 17.632812 14.207031 17.632812 14.144531 Z M 15.675781 16.753906 C 15.621094 16.789062 15.539062 16.792969 15.472656 16.789062 C 14.121094 16.671875 12.789062 16.464844 11.511719 15.992188 C 10.875 15.761719 10.261719 15.476562 9.683594 15.125 C 7.9375 14.058594 6.785156 12.53125 6.191406 10.582031 C 5.96875 9.851562 5.765625 8.539062 5.746094 7.644531 C 5.75 7.566406 5.761719 7.386719 5.777344 7.210938 C 5.785156 7.132812 5.957031 7.074219 6.039062 7.125 C 6.15625 7.207031 6.28125 7.277344 6.390625 7.363281 C 8.199219 8.804688 9.976562 10.28125 11.660156 11.871094 C 13.03125 13.167969 14.328125 14.535156 15.457031 16.050781 C 15.582031 16.21875 15.675781 16.410156 15.769531 16.601562 C 15.785156 16.632812 15.726562 16.726562 15.675781 16.753906 Z M 16.402344 15.011719 C 16.371094 15.0625 16.328125 15.109375 16.277344 15.144531 C 16.261719 15.160156 16.203125 15.152344 16.183594 15.132812 C 16.105469 15.0625 16.027344 14.988281 15.960938 14.90625 C 14.636719 13.230469 13.144531 11.707031 11.550781 10.289062 C 10.4375 9.300781 9.285156 8.351562 8.152344 7.382812 C 7.9375 7.199219 7.738281 7 7.539062 6.800781 C 7.519531 6.78125 7.519531 6.730469 7.527344 6.699219 C 7.535156 6.675781 7.574219 6.660156 7.597656 6.652344 C 7.632812 6.640625 7.667969 6.628906 7.703125 6.632812 C 8.96875 6.855469 10.191406 7.207031 11.34375 7.78125 C 11.847656 8.035156 12.34375 8.324219 12.804688 8.648438 C 14.535156 9.859375 15.632812 11.515625 16.167969 13.546875 C 16.28125 13.992188 16.351562 14.449219 16.402344 14.707031 C 16.40625 14.941406 16.417969 14.984375 16.402344 15.011719 Z M 33.640625 34.273438 C 33.546875 34.285156 33.441406 34.3125 33.339844 34.3125 C 23.304688 34.3125 13.273438 34.308594 3.242188 34.300781 C 3.175781 34.300781 3.105469 34.265625 3.019531 34.242188 C 3.007812 34.148438 2.953125 34.035156 2.984375 33.945312 C 3.78125 31.546875 5.371094 29.949219 7.804688 29.234375 C 8.953125 28.898438 10.125 28.914062 11.296875 29.113281 C 12.105469 29.253906 12.886719 29.484375 13.648438 29.792969 C 13.878906 29.886719 14.113281 29.964844 14.351562 30.039062 C 14.523438 30.09375 14.78125 29.9375 14.867188 29.746094 C 14.957031 29.554688 14.914062 29.257812 14.765625 29.15625 C 14.621094 29.054688 14.472656 28.949219 14.3125 28.890625 C 13.710938 28.671875 13.101562 28.46875 12.496094 28.265625 C 12.328125 28.207031 12.15625 28.167969 11.984375 28.113281 C 11.859375 28.074219 11.789062 27.90625 11.84375 27.765625 C 11.90625 27.597656 11.964844 27.429688 12.046875 27.273438 C 12.355469 26.695312 12.808594 26.246094 13.34375 25.882812 C 14.335938 25.203125 15.441406 24.839844 16.628906 24.742188 C 17.304688 24.6875 17.976562 24.699219 18.644531 24.871094 C 19.5 25.089844 20.234375 25.472656 20.769531 26.199219 C 20.832031 26.285156 20.898438 26.367188 20.976562 26.441406 C 21.113281 26.566406 21.28125 26.632812 21.464844 26.585938 C 21.671875 26.535156 21.871094 26.460938 22.070312 26.382812 C 22.542969 26.195312 23.039062 26.164062 23.539062 26.167969 C 24.527344 26.179688 25.324219 26.597656 25.941406 27.355469 C 26.097656 27.546875 26.222656 27.765625 26.351562 27.980469 C 26.488281 28.207031 26.394531 28.417969 26.148438 28.449219 C 25.832031 28.488281 25.511719 28.527344 25.195312 28.554688 C 24.480469 28.613281 23.792969 28.792969 23.117188 29.007812 C 23.015625 29.042969 22.921875 29.09375 22.828125 29.144531 C 22.660156 29.234375 22.558594 29.496094 22.605469 29.703125 C 22.652344 29.90625 22.871094 30.09375 23.066406 30.074219 C 23.277344 30.054688 23.488281 30.023438 23.691406 29.964844 C 24.449219 29.746094 25.214844 29.605469 26 29.578125 C 26.859375 29.550781 27.707031 29.589844 28.539062 29.816406 C 30.828125 30.4375 32.507812 31.820312 33.667969 33.867188 C 33.738281 33.996094 33.746094 34.132812 33.640625 34.273438 Z M 33.640625 34.273438 "/></g><path style=" stroke:none;fill-rule:nonzero;fill:#09afef;fill-opacity:1;" d="M 7.453125 31.410156 C 7.167969 31.433594 6.964844 31.691406 6.996094 31.992188 C 7.023438 32.285156 7.285156 32.46875 7.589844 32.417969 C 7.824219 32.378906 8.027344 32.132812 8.015625 31.90625 C 7.996094 31.636719 7.714844 31.386719 7.453125 31.410156 Z M 7.453125 31.410156 "/><path style=" stroke:none;fill-rule:nonzero;fill:#09afef;fill-opacity:1;" d="M 20.84375 27.324219 C 20.5625 27.292969 20.289062 27.523438 20.269531 27.804688 C 20.25 28.074219 20.503906 28.34375 20.78125 28.351562 C 21.023438 28.355469 21.246094 28.164062 21.289062 27.914062 C 21.335938 27.628906 21.132812 27.355469 20.84375 27.324219 Z M 20.84375 27.324219 "/><path style=" stroke:none;fill-rule:nonzero;fill:#09afef;fill-opacity:1;" d="M 29.304688 32.003906 C 29.0625 32.011719 28.839844 32.214844 28.804688 32.453125 C 28.765625 32.730469 28.984375 33.003906 29.273438 33.035156 C 29.546875 33.0625 29.820312 32.816406 29.828125 32.535156 C 29.839844 32.253906 29.585938 32 29.304688 32.003906 Z M 29.304688 32.003906 "/><path style=" stroke:none;fill-rule:nonzero;fill:#09afef;fill-opacity:1;" d="M 14.449219 26.261719 C 14.207031 26.269531 13.976562 26.484375 13.949219 26.730469 C 13.914062 27.007812 14.167969 27.285156 14.457031 27.289062 C 14.714844 27.289062 14.925781 27.09375 14.949219 26.828125 C 14.972656 26.523438 14.734375 26.253906 14.449219 26.261719 Z M 14.449219 26.261719 "/></g></svg>