<svg xmlns="http://www.w3.org/2000/svg" xmlns:xlink="http://www.w3.org/1999/xlink" width="50" zoomAndPan="magnify" viewBox="0 0 37.5 37.499999" height="50" preserveAspectRatio="xMidYMid meet" version="1.2"><defs><clipPath id="abdd272959"><path d="M 0.925781 2.332031 L 36.453125 2.332031 L 36.453125 34.898438 L 0.925781 34.898438 Z M 0.925781 2.332031 "/></clipPath></defs><g id="1468ea4fc8"><g clip-rule="nonzero" clip-path="url(#abdd272959)"><path style=" stroke:none;fill-rule:nonzero;fill:#09afef;fill-opacity:1;" d="M 18.457031 2.347656 C 18.265625 2.351562 18.097656 2.421875 17.964844 2.5625 C 17.828125 2.699219 17.765625 2.867188 17.765625 3.0625 L 17.765625 12.59375 L 14.753906 9.582031 C 14.617188 9.441406 14.453125 9.367188 14.253906 9.367188 C 14.058594 9.363281 13.890625 9.433594 13.75 9.570312 C 13.613281 9.710938 13.542969 9.878906 13.546875 10.074219 C 13.546875 10.273438 13.621094 10.4375 13.761719 10.574219 L 17.972656 14.785156 C 18.109375 14.921875 18.273438 14.988281 18.46875 14.988281 C 18.660156 14.988281 18.828125 14.921875 18.964844 14.785156 L 23.175781 10.574219 C 23.316406 10.4375 23.386719 10.273438 23.390625 10.074219 C 23.390625 9.878906 23.324219 9.710938 23.183594 9.570312 C 23.046875 9.433594 22.878906 9.363281 22.679688 9.367188 C 22.484375 9.367188 22.320312 9.441406 22.183594 9.582031 L 19.171875 12.59375 L 19.171875 3.0625 C 19.171875 2.863281 19.105469 2.695312 18.964844 2.554688 C 18.824219 2.414062 18.65625 2.347656 18.457031 2.347656 Z M 10.757812 10.777344 C 10.667969 10.777344 10.585938 10.792969 10.503906 10.824219 L 4.890625 12.929688 C 4.671875 13.003906 4.527344 13.144531 4.449219 13.359375 L 1.03125 18.828125 C 0.976562 18.917969 0.941406 19.015625 0.929688 19.121094 C 0.917969 19.226562 0.929688 19.328125 0.964844 19.425781 C 0.996094 19.527344 1.050781 19.613281 1.125 19.691406 C 1.199219 19.765625 1.285156 19.820312 1.382812 19.859375 L 4.433594 20.980469 L 4.433594 29.023438 C 4.433594 29.351562 4.585938 29.570312 4.894531 29.683594 L 18.226562 34.59375 C 18.386719 34.652344 18.550781 34.652344 18.710938 34.59375 L 32.042969 29.683594 C 32.347656 29.570312 32.503906 29.351562 32.503906 29.023438 L 32.503906 20.980469 L 35.550781 19.859375 C 35.652344 19.820312 35.738281 19.765625 35.8125 19.691406 C 35.882812 19.613281 35.9375 19.527344 35.972656 19.425781 C 36.007812 19.328125 36.019531 19.226562 36.007812 19.121094 C 35.992188 19.015625 35.960938 18.917969 35.90625 18.828125 L 32.488281 13.367188 C 32.417969 13.164062 32.28125 13.023438 32.082031 12.945312 C 32.074219 12.941406 32.066406 12.9375 32.058594 12.933594 C 32.054688 12.933594 32.050781 12.929688 32.046875 12.929688 L 26.433594 10.824219 C 26.34375 10.789062 26.253906 10.773438 26.160156 10.777344 C 25.988281 10.78125 25.84375 10.839844 25.714844 10.953125 C 25.589844 11.0625 25.515625 11.203125 25.488281 11.367188 C 25.460938 11.535156 25.488281 11.6875 25.574219 11.835938 C 25.660156 11.980469 25.78125 12.082031 25.941406 12.136719 L 29.789062 13.582031 L 18.46875 17.75 L 7.148438 13.582031 L 10.996094 12.136719 C 11.15625 12.082031 11.28125 11.976562 11.367188 11.828125 C 11.453125 11.683594 11.480469 11.523438 11.449219 11.355469 C 11.421875 11.1875 11.339844 11.046875 11.210938 10.9375 C 11.078125 10.828125 10.925781 10.773438 10.757812 10.777344 Z M 5.429688 14.441406 L 17.417969 18.859375 L 14.667969 23.257812 L 2.679688 18.839844 Z M 31.507812 14.441406 L 34.257812 18.839844 L 22.269531 23.257812 L 19.519531 18.859375 Z M 17.765625 20.945312 L 17.765625 32.929688 L 5.835938 28.535156 L 5.835938 21.5 L 14.71875 24.769531 C 14.871094 24.828125 15.03125 24.828125 15.1875 24.777344 C 15.34375 24.722656 15.464844 24.625 15.554688 24.484375 Z M 19.171875 20.945312 L 21.382812 24.484375 C 21.46875 24.625 21.59375 24.722656 21.75 24.777344 C 21.90625 24.828125 22.0625 24.828125 22.21875 24.769531 L 31.097656 21.5 L 31.097656 28.535156 L 19.171875 32.929688 Z M 19.171875 20.945312 "/></g></g></svg>