<svg xmlns="http://www.w3.org/2000/svg" xmlns:xlink="http://www.w3.org/1999/xlink" width="50" zoomAndPan="magnify" viewBox="0 0 37.5 37.499999" height="50" preserveAspectRatio="xMidYMid meet" version="1.2"><defs><clipPath id="96a0463616"><path d="M 8 7.953125 L 36.300781 7.953125 L 36.300781 26 L 8 26 Z M 8 7.953125 "/></clipPath><clipPath id="6076c09e3f"><path d="M 10 21 L 19 21 L 19 29.417969 L 10 29.417969 Z M 10 21 "/></clipPath><clipPath id="b9a3a768ac"><path d="M 25 21 L 34 21 L 34 29.417969 L 25 29.417969 Z M 25 21 "/></clipPath><clipPath id="e1066102df"><path d="M 22 7.953125 L 34 7.953125 L 34 18 L 22 18 Z M 22 7.953125 "/></clipPath><clipPath id="39d7309661"><path d="M 0.773438 16 L 10 16 L 10 18 L 0.773438 18 Z M 0.773438 16 "/></clipPath></defs><g id="68182b6694"><path style=" stroke:none;fill-rule:nonzero;fill:#09afef;fill-opacity:1;" d="M 10.949219 25.507812 L 7.285156 25.507812 C 7.121094 25.507812 6.980469 25.449219 6.867188 25.332031 C 6.75 25.21875 6.691406 25.078125 6.691406 24.910156 C 6.691406 24.746094 6.75 24.605469 6.867188 24.492188 C 6.980469 24.375 7.121094 24.316406 7.285156 24.316406 L 10.949219 24.316406 C 11.113281 24.316406 11.253906 24.375 11.371094 24.492188 C 11.488281 24.605469 11.546875 24.746094 11.546875 24.910156 C 11.546875 25.078125 11.488281 25.21875 11.371094 25.332031 C 11.253906 25.449219 11.113281 25.507812 10.949219 25.507812 Z M 10.949219 25.507812 "/><path style=" stroke:none;fill-rule:nonzero;fill:#09afef;fill-opacity:1;" d="M 25.8125 25.507812 L 17.808594 25.507812 C 17.644531 25.507812 17.503906 25.449219 17.390625 25.332031 C 17.273438 25.21875 17.214844 25.078125 17.214844 24.910156 C 17.214844 24.746094 17.273438 24.605469 17.390625 24.492188 C 17.503906 24.375 17.644531 24.316406 17.808594 24.316406 L 25.8125 24.316406 C 25.976562 24.316406 26.117188 24.375 26.230469 24.492188 C 26.347656 24.605469 26.40625 24.746094 26.40625 24.910156 C 26.40625 25.078125 26.347656 25.21875 26.230469 25.332031 C 26.117188 25.449219 25.976562 25.507812 25.8125 25.507812 Z M 25.8125 25.507812 "/><g clip-rule="nonzero" clip-path="url(#96a0463616)"><path style=" stroke:none;fill-rule:nonzero;fill:#09afef;fill-opacity:1;" d="M 35.53125 25.507812 L 32.664062 25.507812 C 32.5 25.507812 32.359375 25.449219 32.242188 25.332031 C 32.125 25.21875 32.066406 25.078125 32.066406 24.910156 C 32.066406 24.746094 32.125 24.605469 32.242188 24.492188 C 32.359375 24.375 32.5 24.316406 32.664062 24.316406 L 34.949219 24.316406 L 34.949219 19.699219 C 34.949219 19.054688 34.683594 18.550781 34.152344 18.183594 L 32.324219 16.949219 C 32.261719 16.902344 32.207031 16.847656 32.164062 16.78125 L 27.824219 10.078125 C 27.640625 9.792969 27.398438 9.566406 27.101562 9.402344 C 26.800781 9.242188 26.480469 9.160156 26.140625 9.160156 L 9.523438 9.160156 C 9.359375 9.160156 9.21875 9.101562 9.101562 8.988281 C 8.984375 8.871094 8.925781 8.730469 8.925781 8.566406 C 8.925781 8.402344 8.984375 8.261719 9.101562 8.144531 C 9.21875 8.027344 9.359375 7.96875 9.523438 7.96875 L 26.140625 7.96875 C 26.683594 7.96875 27.195312 8.097656 27.671875 8.355469 C 28.148438 8.617188 28.53125 8.972656 28.824219 9.429688 L 33.097656 16.03125 L 34.804688 17.199219 C 35.21875 17.476562 35.546875 17.839844 35.78125 18.28125 C 36.019531 18.726562 36.136719 19.199219 36.140625 19.699219 L 36.140625 24.910156 C 36.140625 25.078125 36.078125 25.222656 35.960938 25.335938 C 35.839844 25.453125 35.699219 25.511719 35.53125 25.507812 Z M 35.53125 25.507812 "/></g><g clip-rule="nonzero" clip-path="url(#6076c09e3f)"><path style=" stroke:none;fill-rule:nonzero;fill:#09afef;fill-opacity:1;" d="M 14.378906 29.070312 C 14.113281 29.070312 13.851562 29.046875 13.59375 28.992188 C 13.332031 28.941406 13.082031 28.867188 12.835938 28.765625 C 12.59375 28.664062 12.359375 28.539062 12.140625 28.390625 C 11.921875 28.246094 11.714844 28.078125 11.53125 27.890625 C 11.34375 27.703125 11.175781 27.5 11.027344 27.28125 C 10.882812 27.0625 10.757812 26.828125 10.65625 26.585938 C 10.554688 26.339844 10.480469 26.089844 10.425781 25.828125 C 10.375 25.570312 10.351562 25.308594 10.351562 25.042969 C 10.351562 24.777344 10.375 24.515625 10.425781 24.257812 C 10.480469 23.996094 10.554688 23.746094 10.65625 23.5 C 10.757812 23.257812 10.882812 23.023438 11.027344 22.804688 C 11.175781 22.585938 11.34375 22.382812 11.53125 22.195312 C 11.714844 22.007812 11.921875 21.839844 12.140625 21.695312 C 12.359375 21.546875 12.59375 21.421875 12.835938 21.320312 C 13.082031 21.21875 13.332031 21.144531 13.59375 21.09375 C 13.851562 21.039062 14.113281 21.015625 14.378906 21.015625 C 14.640625 21.015625 14.90625 21.039062 15.164062 21.09375 C 15.421875 21.144531 15.675781 21.21875 15.917969 21.320312 C 16.164062 21.421875 16.394531 21.546875 16.617188 21.695312 C 16.835938 21.839844 17.039062 22.007812 17.226562 22.195312 C 17.414062 22.382812 17.582031 22.585938 17.726562 22.804688 C 17.875 23.023438 18 23.257812 18.097656 23.5 C 18.199219 23.746094 18.277344 23.996094 18.328125 24.257812 C 18.378906 24.515625 18.40625 24.777344 18.40625 25.042969 C 18.40625 25.308594 18.378906 25.570312 18.328125 25.828125 C 18.277344 26.089844 18.199219 26.339844 18.097656 26.585938 C 18 26.828125 17.875 27.0625 17.726562 27.28125 C 17.582031 27.5 17.414062 27.703125 17.226562 27.890625 C 17.039062 28.078125 16.835938 28.246094 16.617188 28.390625 C 16.394531 28.539062 16.164062 28.664062 15.917969 28.765625 C 15.675781 28.867188 15.421875 28.941406 15.164062 28.992188 C 14.90625 29.046875 14.640625 29.070312 14.378906 29.070312 Z M 14.378906 22.207031 C 14 22.207031 13.640625 22.277344 13.292969 22.421875 C 12.945312 22.566406 12.636719 22.773438 12.371094 23.039062 C 12.105469 23.304688 11.902344 23.609375 11.757812 23.957031 C 11.613281 24.304688 11.542969 24.667969 11.542969 25.042969 C 11.542969 25.417969 11.613281 25.78125 11.757812 26.128906 C 11.902344 26.476562 12.105469 26.78125 12.371094 27.046875 C 12.636719 27.316406 12.945312 27.519531 13.292969 27.664062 C 13.640625 27.808594 14 27.878906 14.378906 27.878906 C 14.753906 27.878906 15.117188 27.808594 15.464844 27.664062 C 15.8125 27.519531 16.117188 27.316406 16.382812 27.046875 C 16.648438 26.78125 16.855469 26.476562 17 26.128906 C 17.140625 25.78125 17.214844 25.417969 17.214844 25.042969 C 17.214844 24.667969 17.140625 24.304688 16.996094 23.957031 C 16.851562 23.609375 16.648438 23.304688 16.382812 23.039062 C 16.117188 22.773438 15.808594 22.566406 15.460938 22.421875 C 15.117188 22.28125 14.753906 22.207031 14.378906 22.207031 Z M 14.378906 22.207031 "/></g><g clip-rule="nonzero" clip-path="url(#b9a3a768ac)"><path style=" stroke:none;fill-rule:nonzero;fill:#09afef;fill-opacity:1;" d="M 29.230469 29.070312 C 28.964844 29.070312 28.703125 29.046875 28.445312 28.992188 C 28.1875 28.941406 27.933594 28.867188 27.6875 28.765625 C 27.445312 28.664062 27.214844 28.539062 26.992188 28.390625 C 26.773438 28.246094 26.570312 28.078125 26.382812 27.890625 C 26.195312 27.703125 26.027344 27.5 25.882812 27.28125 C 25.734375 27.0625 25.609375 26.828125 25.507812 26.585938 C 25.410156 26.339844 25.332031 26.089844 25.28125 25.828125 C 25.230469 25.570312 25.203125 25.308594 25.203125 25.042969 C 25.203125 24.777344 25.230469 24.515625 25.28125 24.257812 C 25.332031 23.996094 25.410156 23.746094 25.507812 23.5 C 25.609375 23.257812 25.734375 23.023438 25.882812 22.804688 C 26.027344 22.585938 26.195312 22.382812 26.382812 22.195312 C 26.570312 22.007812 26.773438 21.839844 26.992188 21.695312 C 27.214844 21.546875 27.445312 21.421875 27.6875 21.320312 C 27.933594 21.21875 28.1875 21.144531 28.445312 21.09375 C 28.703125 21.039062 28.964844 21.015625 29.230469 21.015625 C 29.496094 21.015625 29.757812 21.039062 30.015625 21.09375 C 30.277344 21.144531 30.527344 21.21875 30.773438 21.320312 C 31.015625 21.421875 31.25 21.546875 31.46875 21.695312 C 31.6875 21.839844 31.890625 22.007812 32.078125 22.195312 C 32.265625 22.382812 32.433594 22.585938 32.582031 22.804688 C 32.726562 23.023438 32.851562 23.257812 32.953125 23.5 C 33.054688 23.746094 33.128906 23.996094 33.179688 24.257812 C 33.234375 24.515625 33.257812 24.777344 33.257812 25.042969 C 33.257812 25.308594 33.234375 25.570312 33.179688 25.828125 C 33.128906 26.089844 33.050781 26.339844 32.953125 26.585938 C 32.851562 26.828125 32.726562 27.058594 32.578125 27.28125 C 32.433594 27.5 32.265625 27.703125 32.078125 27.890625 C 31.890625 28.078125 31.6875 28.246094 31.46875 28.390625 C 31.246094 28.539062 31.015625 28.664062 30.773438 28.761719 C 30.527344 28.863281 30.277344 28.941406 30.015625 28.992188 C 29.757812 29.046875 29.496094 29.070312 29.230469 29.070312 Z M 29.230469 22.207031 C 28.855469 22.207031 28.492188 22.277344 28.144531 22.421875 C 27.796875 22.566406 27.492188 22.773438 27.226562 23.039062 C 26.960938 23.304688 26.753906 23.609375 26.609375 23.957031 C 26.464844 24.304688 26.394531 24.667969 26.394531 25.042969 C 26.394531 25.417969 26.464844 25.78125 26.609375 26.128906 C 26.753906 26.476562 26.960938 26.78125 27.226562 27.046875 C 27.492188 27.316406 27.796875 27.519531 28.144531 27.664062 C 28.492188 27.808594 28.855469 27.878906 29.230469 27.878906 C 29.605469 27.878906 29.96875 27.808594 30.316406 27.664062 C 30.664062 27.519531 30.96875 27.316406 31.238281 27.046875 C 31.503906 26.78125 31.707031 26.476562 31.851562 26.128906 C 31.996094 25.78125 32.066406 25.417969 32.066406 25.042969 C 32.066406 24.667969 31.992188 24.304688 31.847656 23.960938 C 31.703125 23.613281 31.5 23.304688 31.234375 23.039062 C 30.96875 22.773438 30.660156 22.570312 30.316406 22.425781 C 29.96875 22.28125 29.605469 22.207031 29.230469 22.207031 Z M 29.230469 22.207031 "/></g><g clip-rule="nonzero" clip-path="url(#e1066102df)"><path style=" stroke:none;fill-rule:nonzero;fill:#09afef;fill-opacity:1;" d="M 32.664062 17.050781 L 23 17.050781 C 22.832031 17.050781 22.691406 16.992188 22.578125 16.875 C 22.460938 16.757812 22.402344 16.621094 22.402344 16.453125 L 22.402344 8.566406 C 22.402344 8.402344 22.460938 8.261719 22.578125 8.144531 C 22.691406 8.027344 22.832031 7.96875 23 7.96875 L 26.042969 7.96875 C 26.613281 7.96875 27.15625 8.105469 27.660156 8.378906 C 28.164062 8.652344 28.570312 9.03125 28.882812 9.515625 L 33.164062 16.132812 C 33.292969 16.332031 33.300781 16.535156 33.1875 16.742188 C 33.074219 16.949219 32.898438 17.054688 32.664062 17.050781 Z M 23.59375 15.859375 L 31.566406 15.859375 L 27.878906 10.164062 C 27.679688 9.851562 27.414062 9.605469 27.089844 9.425781 C 26.761719 9.25 26.414062 9.160156 26.042969 9.160156 L 23.59375 9.160156 Z M 23.59375 15.859375 "/></g><path style=" stroke:none;fill-rule:nonzero;fill:#09afef;fill-opacity:1;" d="M 11.6875 13.511719 L 5.460938 13.511719 C 5.296875 13.511719 5.15625 13.453125 5.039062 13.335938 C 4.921875 13.21875 4.863281 13.078125 4.863281 12.914062 C 4.863281 12.75 4.921875 12.609375 5.039062 12.492188 C 5.15625 12.378906 5.296875 12.320312 5.460938 12.320312 L 11.6875 12.320312 C 11.851562 12.320312 11.992188 12.378906 12.109375 12.492188 C 12.226562 12.609375 12.285156 12.75 12.285156 12.914062 C 12.285156 13.078125 12.226562 13.21875 12.109375 13.335938 C 11.992188 13.453125 11.851562 13.511719 11.6875 13.511719 Z M 11.6875 13.511719 "/><g clip-rule="nonzero" clip-path="url(#39d7309661)"><path style=" stroke:none;fill-rule:nonzero;fill:#09afef;fill-opacity:1;" d="M 8.882812 17.832031 L 1.484375 17.832031 C 1.320312 17.832031 1.179688 17.773438 1.0625 17.660156 C 0.945312 17.542969 0.886719 17.402344 0.886719 17.238281 C 0.886719 17.074219 0.945312 16.933594 1.0625 16.816406 C 1.179688 16.699219 1.320312 16.640625 1.484375 16.640625 L 8.882812 16.640625 C 9.046875 16.640625 9.1875 16.699219 9.304688 16.816406 C 9.421875 16.933594 9.480469 17.074219 9.480469 17.238281 C 9.480469 17.402344 9.421875 17.542969 9.304688 17.660156 C 9.1875 17.773438 9.046875 17.832031 8.882812 17.832031 Z M 8.882812 17.832031 "/></g><path style=" stroke:none;fill-rule:nonzero;fill:#09afef;fill-opacity:1;" d="M 8.199219 21.449219 L 3.753906 21.449219 C 3.589844 21.449219 3.449219 21.390625 3.335938 21.273438 C 3.21875 21.15625 3.160156 21.015625 3.160156 20.851562 C 3.160156 20.6875 3.21875 20.546875 3.335938 20.429688 C 3.449219 20.316406 3.589844 20.257812 3.753906 20.257812 L 8.199219 20.257812 C 8.367188 20.257812 8.503906 20.316406 8.621094 20.429688 C 8.738281 20.546875 8.796875 20.6875 8.796875 20.851562 C 8.796875 21.015625 8.738281 21.15625 8.621094 21.273438 C 8.503906 21.390625 8.367188 21.449219 8.199219 21.449219 Z M 8.199219 21.449219 "/></g></svg>