<svg width="47" height="41" viewBox="0 0 47 41" fill="none" xmlns="http://www.w3.org/2000/svg">
<path d="M8.00138 15.2635C7.54047 15.2635 7.08991 15.4002 6.70668 15.6562C6.32344 15.9123 6.02474 16.2762 5.84834 16.7021C5.67195 17.1279 5.62579 17.5964 5.7157 18.0485C5.8056 18.5005 6.02754 18.9158 6.35344 19.2417C6.67935 19.5676 7.09457 19.7896 7.54662 19.8795C7.99867 19.9694 8.46723 19.9233 8.89305 19.7469C9.31887 19.5705 9.68283 19.2718 9.9389 18.8886C10.195 18.5054 10.3316 18.0548 10.3316 17.5939C10.331 16.9761 10.0852 16.3838 9.64838 15.9469C9.21152 15.51 8.6192 15.2643 8.00138 15.2635ZM8.00138 18.8227C7.75834 18.8227 7.52076 18.7507 7.31867 18.6157C7.11659 18.4806 6.95907 18.2887 6.86606 18.0642C6.77304 17.8397 6.74869 17.5926 6.79609 17.3542C6.8435 17.1159 6.96052 16.8969 7.13236 16.7251C7.30421 16.5532 7.52316 16.4362 7.76153 16.3887C7.99989 16.3413 8.24697 16.3656 8.4715 16.4586C8.69604 16.5516 8.88796 16.7091 9.02298 16.9112C9.15801 17.1133 9.23008 17.3509 9.23008 17.5939C9.22974 17.9197 9.10018 18.232 8.86983 18.4624C8.63948 18.6928 8.32715 18.8223 8.00138 18.8227Z" fill="white"/>
<path d="M35.8697 19.9243C36.3306 19.9243 36.7812 19.7876 37.1644 19.5316C37.5477 19.2755 37.8464 18.9116 38.0228 18.4858C38.1991 18.0599 38.2453 17.5914 38.1554 17.1393C38.0655 16.6873 37.8436 16.272 37.5177 15.9461C37.1918 15.6202 36.7765 15.3983 36.3245 15.3083C35.8724 15.2184 35.4039 15.2646 34.978 15.4409C34.5522 15.6173 34.1883 15.916 33.9322 16.2992C33.6761 16.6824 33.5395 17.133 33.5395 17.5939C33.5402 18.2117 33.7859 18.804 34.2228 19.2409C34.6596 19.6778 35.2519 19.9235 35.8697 19.9243ZM35.8697 16.3651C36.1128 16.3651 36.3503 16.4371 36.5524 16.5722C36.7545 16.7072 36.912 16.8991 37.005 17.1236C37.0981 17.3481 37.1224 17.5952 37.075 17.8336C37.0276 18.0719 36.9106 18.2909 36.7387 18.4628C36.5669 18.6346 36.3479 18.7517 36.1096 18.7991C35.8712 18.8465 35.6241 18.8222 35.3996 18.7292C35.1751 18.6362 34.9831 18.4787 34.8481 18.2766C34.7131 18.0745 34.641 17.8369 34.641 17.5939C34.6414 17.2681 34.7709 16.9558 35.0013 16.7254C35.2316 16.4951 35.5439 16.3655 35.8697 16.3651Z" fill="white"/>
<path d="M13.6939 18.8376H30.1772C30.2648 18.8376 30.3511 18.8167 30.429 18.7767C30.5068 18.7367 30.5741 18.6787 30.625 18.6075C30.676 18.5363 30.7093 18.454 30.7221 18.3674C30.7349 18.2808 30.7269 18.1924 30.6987 18.1095L30.1304 16.4388C29.7491 15.3177 28.5229 14.4397 27.3389 14.4397H16.4874C15.3006 14.4397 14.0824 15.3234 13.7138 16.4517L13.1704 18.1163C13.1434 18.1989 13.1364 18.2868 13.1499 18.3727C13.1634 18.4586 13.197 18.5401 13.248 18.6105C13.2991 18.6809 13.3661 18.7382 13.4435 18.7777C13.5209 18.8173 13.6067 18.8379 13.6936 18.838L13.6939 18.8376ZM14.7609 16.7933C14.9789 16.1261 15.7856 15.5409 16.4874 15.5409H27.3389C28.0435 15.5409 28.8606 16.1261 29.0874 16.7931L29.4081 17.736H14.4531L14.7609 16.7933Z" fill="white"/>
<path d="M32.9034 20.4846C32.9034 20.3385 32.8454 20.1985 32.7421 20.0952C32.6388 19.9919 32.4987 19.9338 32.3526 19.9338H12.0232C11.9509 19.9338 11.8792 19.9481 11.8124 19.9758C11.7456 20.0034 11.6849 20.044 11.6337 20.0952C11.5826 20.1463 11.542 20.207 11.5143 20.2738C11.4867 20.3407 11.4724 20.4123 11.4724 20.4846C11.4724 20.5569 11.4867 20.6286 11.5143 20.6954C11.542 20.7622 11.5826 20.8229 11.6337 20.8741C11.6849 20.9252 11.7456 20.9658 11.8124 20.9935C11.8792 21.0212 11.9509 21.0354 12.0232 21.0354H32.3526C32.4987 21.0354 32.6388 20.9774 32.7421 20.8741C32.8454 20.7708 32.9034 20.6307 32.9034 20.4846Z" fill="white"/>
<path d="M40.7853 21.595L41.7125 14.5833C41.7156 14.5593 41.7172 14.5352 41.7172 14.5111C41.7172 13.0825 41.0103 11.8307 39.9571 11.1463L42.4029 11.1455C42.4775 11.1455 42.5512 11.1303 42.6198 11.101C42.6883 11.0716 42.7501 11.0286 42.8016 10.9746C42.853 10.9207 42.8929 10.8568 42.9189 10.7869C42.945 10.7171 42.9565 10.6426 42.9529 10.5682C42.9155 10.0505 42.8139 9.53948 42.6506 9.04682C42.2961 7.98363 41.1745 7.29662 39.7928 7.29662C38.9255 7.29662 37.3384 7.29084 36.657 7.28827L35.2476 4.69041C34.2837 2.96206 32.8792 0.978149 30.5543 0.978149H13.4617C11.5651 0.978149 9.87927 2.297 8.71308 4.69262L7.24084 7.30103C6.56155 7.29965 4.95685 7.29662 4.07863 7.29662C2.69708 7.29662 1.57533 7.98363 1.2209 9.04682C1.05758 9.53947 0.956037 10.0505 0.918611 10.5682C0.914968 10.6427 0.926498 10.7171 0.952501 10.7871C0.978504 10.857 1.01844 10.9209 1.06988 10.9749C1.12133 11.0289 1.18321 11.0719 1.25177 11.1013C1.32034 11.1307 1.39415 11.1458 1.46875 11.1458H1.46948L3.85427 11.1427C2.82734 11.8251 2.1541 13.0653 2.1541 14.5111C2.1541 14.5342 2.15558 14.5573 2.15851 14.5802L3.1624 22.5103C3.17191 23.0492 3.3728 23.5672 3.72914 23.9716C4.08548 24.376 4.57405 24.6405 5.10749 24.7177V27.3178C5.1079 27.6914 5.25651 28.0496 5.52071 28.3138C5.7849 28.578 6.14312 28.7266 6.51675 28.7271H9.12378C9.49741 28.7266 9.85561 28.578 10.1198 28.3138C10.384 28.0496 10.5326 27.6914 10.533 27.3178V24.7411H28.2983C27.1748 26.3737 26.5754 28.3099 26.58 30.2918C26.5846 32.2736 27.193 34.2071 28.3242 35.8344C29.4554 37.4618 31.0556 38.7058 32.9116 39.4008C34.7676 40.0958 36.7913 40.2087 38.7132 39.7245C40.635 39.2403 42.3636 38.182 43.6688 36.6905C44.974 35.1991 45.7937 33.3454 46.0188 31.3763C46.2438 29.4073 45.8635 27.4164 44.9286 25.6689C43.9936 23.9214 42.5483 22.5004 40.7853 21.595ZM39.7925 8.39818C40.6779 8.39818 41.4064 8.79888 41.6052 9.39528C41.6753 9.60767 41.7316 9.8244 41.7736 10.0441L38.1523 10.0454L37.2554 8.39194C38.0351 8.39479 39.1258 8.39818 39.7925 8.39818ZM9.68062 5.21917C9.68622 5.20925 9.69145 5.19906 9.69641 5.18887C10.2596 4.02764 11.4976 2.07962 13.4616 2.07962H30.5541C31.9391 2.07962 33.055 3.02081 34.2823 5.22128L37.1961 10.5934H17.7472C17.6402 9.584 17.1634 8.64988 16.4088 7.971C15.6541 7.29213 14.6749 6.91651 13.6599 6.91651C12.6448 6.91651 11.6656 7.29213 10.911 7.971C10.1563 8.64988 9.67959 9.584 9.57258 10.5934H6.64784L9.68062 5.21917ZM16.6369 10.5934H10.6828C10.7868 9.87806 11.1449 9.22408 11.6916 8.75113C12.2383 8.27818 12.937 8.0179 13.6598 8.0179C14.3827 8.0179 15.0814 8.27818 15.6281 8.75113C16.1748 9.22408 16.5329 9.87806 16.6369 10.5934ZM2.26591 9.39519C2.46475 8.79851 3.19306 8.39818 4.07863 8.39818C4.74746 8.39818 5.83837 8.39993 6.61993 8.4014L5.69618 10.0385L2.09774 10.0431C2.13972 9.82371 2.1959 9.60729 2.26591 9.39519ZM9.43139 27.3183C9.4313 27.3998 9.39885 27.478 9.34116 27.5357C9.28348 27.5934 9.20527 27.6259 9.12369 27.626H6.51666C6.43508 27.6259 6.35687 27.5934 6.29919 27.5357C6.2415 27.478 6.20905 27.3998 6.20896 27.3183V24.7415H9.43103L9.43139 27.3183ZM5.42988 23.64C5.12074 23.6395 4.82441 23.5165 4.60586 23.2978C4.38732 23.0792 4.2644 22.7828 4.26406 22.4737C4.26405 22.4506 4.26258 22.4275 4.25965 22.4045L3.25585 14.4781C3.27109 12.7828 4.43682 11.7491 5.60227 11.6846C5.63597 11.6914 5.67024 11.6951 5.70462 11.6954H38.1163V11.6963C39.484 11.6963 40.5984 12.9404 40.6151 14.4767L39.7356 21.1307C37.9259 20.4555 35.9564 20.3336 34.0773 20.7804C32.1982 21.2272 30.4943 22.2226 29.1822 23.64H5.42988ZM36.3287 38.9203C34.6176 38.9202 32.945 38.4127 31.5223 37.4621C30.0997 36.5114 28.9909 35.1602 28.3361 33.5794C27.6814 31.9985 27.5101 30.259 27.844 28.5809C28.1778 26.9027 29.0018 25.3612 30.2117 24.1513C31.4217 22.9414 32.9632 22.1175 34.6414 21.7837C36.3196 21.4499 38.0591 21.6213 39.6399 22.2761C41.2207 22.9309 42.5719 24.0398 43.5225 25.4625C44.4731 26.8852 44.9805 28.5578 44.9805 30.2689C44.9779 32.5626 44.0655 34.7616 42.4437 36.3835C40.8218 38.0054 38.6228 38.9177 36.3291 38.9203H36.3287Z" fill="white"/>
<path d="M40.4732 24.2121C38.1881 22.0353 34.4697 22.0352 32.1847 24.2121C31.2303 25.1071 30.6291 26.3152 30.4907 27.6163C30.3524 28.9173 30.686 30.2248 31.4309 31.3006L35.8761 37.7256C35.9267 37.7988 35.9944 37.8587 36.0733 37.9C36.1522 37.9414 36.2399 37.963 36.329 37.963C36.418 37.963 36.5058 37.9414 36.5847 37.9C36.6636 37.8587 36.7312 37.7988 36.7819 37.7256L41.2271 31.3006C41.972 30.2248 42.3056 28.9173 42.1672 27.6163C42.0289 26.3152 41.4277 25.1071 40.4732 24.2121ZM40.3212 30.6739L36.329 36.4442L32.3368 30.6739C31.7425 29.8137 31.4769 28.7686 31.5884 27.729C31.7 26.6894 32.1812 25.7245 32.9445 25.01C33.8633 24.1532 35.0728 23.6768 36.329 23.6768C37.5853 23.6768 38.7948 24.1532 39.7135 25.01C40.4768 25.7245 40.9581 26.6894 41.0696 27.729C41.1812 28.7686 40.9156 29.8136 40.3213 30.6739H40.3212Z" fill="white"/>
<path d="M36.3291 24.9587C35.6921 24.9587 35.0695 25.1476 34.5399 25.5014C34.0103 25.8553 33.5975 26.3583 33.3537 26.9467C33.11 27.5352 33.0462 28.1827 33.1705 28.8074C33.2947 29.4321 33.6014 30.0059 34.0518 30.4563C34.5022 30.9067 35.076 31.2134 35.7008 31.3377C36.3255 31.462 36.973 31.3982 37.5614 31.1544C38.1499 30.9107 38.6529 30.4979 39.0067 29.9683C39.3606 29.4387 39.5494 28.816 39.5494 28.1791C39.5485 27.3253 39.2089 26.5067 38.6052 25.903C38.0014 25.2993 37.1829 24.9597 36.3291 24.9587ZM36.3291 30.2979C35.91 30.2979 35.5004 30.1737 35.1519 29.9409C34.8034 29.7081 34.5318 29.3772 34.3715 28.99C34.2111 28.6028 34.1691 28.1768 34.2508 27.7658C34.3326 27.3547 34.5344 26.9772 34.8307 26.6808C35.127 26.3845 35.5046 26.1827 35.9156 26.1009C36.3266 26.0192 36.7527 26.0611 37.1398 26.2215C37.527 26.3819 37.8579 26.6534 38.0908 27.0019C38.3236 27.3503 38.4479 27.76 38.4479 28.1791C38.4472 28.7408 38.2238 29.2794 37.8266 29.6766C37.4294 30.0738 36.8908 30.2973 36.3291 30.2979Z" fill="white"/>
</svg>
