<svg width="29" height="47" viewBox="0 0 29 47" fill="none" xmlns="http://www.w3.org/2000/svg">
<path d="M27.8578 22.7913C27.3238 22.2585 26.6179 21.9713 25.8608 21.9832C25.271 21.9924 24.7245 22.193 24.2784 22.526C23.8253 21.3841 22.7097 20.5745 21.4085 20.5745C20.7187 20.5745 20.0811 20.802 19.5667 21.1858C19.2092 19.8771 18.0098 18.9123 16.5893 18.9123C15.9474 18.9123 15.3505 19.1094 14.8562 19.4461L14.8563 10.9927C14.8563 9.29113 13.472 7.90686 11.7705 7.90686C10.9468 7.90686 10.1719 8.22746 9.58806 8.81018C9.00503 9.39331 8.68392 10.1683 8.68392 10.9927V24.0701C8.43813 24.0257 8.18736 24.0033 7.93304 24.0033C6.39862 24.0033 5.15026 25.2498 5.15026 26.7819C5.15026 26.907 5.1591 27.035 5.17648 27.162C5.26139 27.7854 5.07575 28.4177 4.66712 28.8964L3.74591 29.9753C2.8684 31.002 2.67236 32.4555 3.24623 33.6778L5.94504 39.4358C6.39987 40.4063 7.11099 41.2319 8.00151 41.8237C8.54052 42.182 8.98214 42.4426 9.31335 42.5983C9.55185 42.7107 9.75237 42.8876 9.89399 43.1108C10.035 43.3322 10.1095 43.5884 10.1095 43.8517V46.3236C10.1095 46.503 10.1808 46.675 10.3076 46.8019C10.4345 46.9287 10.6065 47 10.7859 47H26.8571C27.2307 47 27.5335 46.6972 27.5335 46.3236C27.5335 44.8134 27.7482 43.3127 28.172 41.8634C28.5009 40.738 28.6677 39.5728 28.6677 38.3998V24.7456C28.6675 24.0073 28.3801 23.3134 27.8578 22.7913ZM26.8733 41.4838C26.477 42.8398 26.2491 44.2373 26.1938 45.6472H11.462V43.8516C11.462 43.3306 11.3144 42.8232 11.0355 42.3852C10.7569 41.9459 10.3607 41.5963 9.889 41.3742C9.62095 41.2482 9.22709 41.014 8.74999 40.6969C8.06582 40.2423 7.51942 39.6076 7.16968 38.8615L4.47066 33.1031C4.12197 32.3604 4.24101 31.4776 4.77419 30.8537L5.69562 29.7745C6.35419 29.0027 6.65335 27.9839 6.51642 26.9787C6.50716 26.9109 6.50268 26.8465 6.50268 26.7816C6.50268 25.9953 7.14419 25.3557 7.93273 25.3557C8.18965 25.3557 8.44094 25.3893 8.6836 25.4558V32.5161C8.6836 32.8896 8.98641 33.1924 9.35997 33.1924C9.73354 33.1924 10.0363 32.8896 10.0363 32.5161V10.9925C10.0363 10.5295 10.2167 10.0941 10.5438 9.76698C10.8717 9.43961 11.3073 9.25939 11.7702 9.25939C12.7259 9.25939 13.5033 10.0368 13.5033 10.9925L13.5032 25.1531C13.5032 25.5267 13.806 25.8295 14.1796 25.8295C14.5531 25.8295 14.8559 25.5267 14.8559 25.1531V21.9806C14.8654 21.033 15.6392 20.2648 16.5891 20.2648C17.5449 20.2648 18.3223 21.0423 18.3223 21.998V23.6603C18.3223 24.0339 18.6251 24.3367 18.9986 24.3367C19.3722 24.3367 19.675 24.0339 19.675 23.6603C19.675 22.7045 20.4526 21.927 21.4083 21.927C22.3639 21.927 23.1414 22.7045 23.1414 23.6604L23.1416 24.7924C23.1418 25.166 23.4446 25.4687 23.8181 25.4687C24.1916 25.4687 24.4944 25.1659 24.4944 24.7923C24.4944 24.001 25.1166 23.3475 25.8817 23.3355C26.2651 23.329 26.6293 23.4763 26.9017 23.7482C27.1679 24.0143 27.3145 24.3685 27.3145 24.7454V38.3997H27.3147C27.3147 39.444 27.1662 40.4817 26.8733 41.4838Z" fill="white"/>
<path d="M11.7705 5.08286C12.144 5.08286 12.4468 4.78005 12.4468 4.40649V0.676368C12.4468 0.302805 12.144 0 11.7705 0C11.3969 0 11.0941 0.302805 11.0941 0.676368V4.40649C11.0941 4.78005 11.3969 5.08286 11.7705 5.08286Z" fill="white"/>
<path d="M16.6845 7.16652C16.8576 7.16652 17.0307 7.10044 17.1628 6.96839L19.8004 4.33087C20.0646 4.06677 20.0646 3.63848 19.8005 3.37438C19.5363 3.11028 19.108 3.11018 18.844 3.37438L16.2064 6.0119C15.9422 6.276 15.9422 6.7043 16.2063 6.96839C16.3382 7.10044 16.5113 7.16652 16.6845 7.16652Z" fill="white"/>
<path d="M18.0096 11.4382C18.0096 11.8118 18.3124 12.1146 18.686 12.1146H22.4161C22.7896 12.1146 23.0924 11.8118 23.0924 11.4382C23.0924 11.0646 22.7896 10.7618 22.4161 10.7618H18.686C18.3124 10.7618 18.0096 11.0646 18.0096 11.4382Z" fill="white"/>
<path d="M5.41509 11.3219C5.41509 10.9483 5.11228 10.6455 4.73872 10.6455H1.0087C0.635141 10.6455 0.332336 10.9483 0.332336 11.3219C0.332336 11.6954 0.635141 11.9982 1.0087 11.9982H4.73872C5.11228 11.9982 5.41509 11.6954 5.41509 11.3219Z" fill="white"/>
<path d="M6.34411 6.88616C6.47616 7.01821 6.64931 7.08428 6.82235 7.08428C6.9954 7.08428 7.16855 7.01821 7.3006 6.88616C7.5648 6.62196 7.5648 6.19376 7.3006 5.92967L4.66297 3.29214C4.39887 3.02794 3.97058 3.02794 3.70648 3.29214C3.44228 3.55634 3.44228 3.98454 3.70648 4.24863L6.34411 6.88616Z" fill="white"/>
</svg>
