<svg width="28" height="37" viewBox="0 0 28 37" fill="none" xmlns="http://www.w3.org/2000/svg">
<path d="M23.886 3.92673C18.4347 -1.3088 9.56481 -1.30902 4.114 3.92673C1.83718 6.07933 0.403101 8.98499 0.0730309 12.1143C-0.257039 15.2437 0.538868 18.3885 2.31575 20.9757L12.9196 36.4291C13.0405 36.6052 13.2019 36.7492 13.3901 36.8486C13.5783 36.9481 13.7875 37 14 37C14.2125 37 14.4217 36.9481 14.6099 36.8486C14.7981 36.7492 14.9595 36.6052 15.0804 36.4291L25.6842 20.9757C27.4611 18.3885 28.257 15.2437 27.927 12.1143C27.5969 8.98499 26.1628 6.07933 23.886 3.92673ZM23.5234 19.4684L14 33.3471L4.47685 19.4684C3.05905 17.3995 2.42548 14.8859 2.69156 12.3856C2.95763 9.88519 4.10565 7.56436 5.92649 5.84582C8.11818 3.78522 11.0034 2.63934 14.0001 2.63934C16.9968 2.63934 19.882 3.78522 22.0737 5.84582C23.8945 7.56438 25.0425 9.88518 25.3086 12.3855C25.5748 14.8859 24.9413 17.3994 23.5236 19.4684H23.5234Z" fill="white"/>
<path d="M13.879 6.03186C12.2642 6.03181 10.6857 6.51062 9.34304 7.40771C8.00039 8.3048 6.95391 9.57989 6.33594 11.0717C5.71797 12.5636 5.55627 14.2052 5.87128 15.7889C6.1863 17.3727 6.96388 18.8275 8.1057 19.9693C9.24752 21.1111 10.7023 21.8887 12.286 22.2037C13.8698 22.5187 15.5114 22.357 17.0032 21.739C18.4951 21.1211 19.7702 20.0746 20.6673 18.7319C21.5644 17.3893 22.0432 15.8108 22.0431 14.196C22.0407 12.0315 21.1798 9.95628 19.6492 8.42573C18.1187 6.89518 16.0435 6.03426 13.879 6.03186ZM13.879 19.5677C12.8166 19.5677 11.778 19.2527 10.8946 18.6625C10.0112 18.0723 9.32265 17.2333 8.91604 16.2518C8.50944 15.2702 8.40303 14.1902 8.61027 13.1482C8.81751 12.1061 9.3291 11.149 10.0803 10.3977C10.8316 9.64643 11.7887 9.13481 12.8307 8.92752C13.8727 8.72024 14.9528 8.8266 15.9344 9.23316C16.9159 9.63973 17.7549 10.3282 18.3451 11.2116C18.9354 12.095 19.2504 13.1335 19.2504 14.196C19.2488 15.6201 18.6824 16.9854 17.6754 17.9925C16.6684 18.9995 15.3031 19.566 13.879 19.5677Z" fill="white"/>
</svg>
