<svg width="42" height="40" viewBox="0 0 42 40" fill="none" xmlns="http://www.w3.org/2000/svg">
<path d="M6.14271 7.79131C4.96401 8.57987 3.5874 8.99694 2.16053 8.99694H0.730551C0.327464 8.99694 1.94379e-05 9.32439 1.94379e-05 9.72747C1.94379e-05 10.1306 0.327464 10.458 0.730551 10.458H2.16001C3.87702 10.458 5.53497 9.95596 6.94784 9.0099C7.16597 8.86742 7.39808 8.7555 7.63486 8.65862C6.95717 10.2456 6.57325 11.9828 6.51885 13.8019C6.38933 13.8475 6.26291 13.9107 6.14944 14.005L3.20141 16.5613C2.87966 16.8494 2.67501 17.2426 2.62268 17.6789L1.9709 23.8656L0.0388774 29.5663C-0.0906495 29.9482 0.114003 30.3632 0.496367 30.4927C0.87873 30.6222 1.2927 30.4176 1.42223 30.0352L3.38119 24.2573L4.07442 17.8421C4.08375 17.7675 4.11898 17.7006 4.16768 17.6566L6.86028 15.322L8.26332 16.9411C8.61771 17.3545 9.21716 17.4525 9.68086 17.1789L12.6087 15.4982L12.9216 15.7189L7.02297 22.3377L5.55154 38.6524C5.51528 39.0544 5.81164 39.4094 6.21369 39.4456C6.23597 39.4477 6.25824 39.4487 6.28052 39.4487C6.6546 39.4487 6.97323 39.1633 7.00743 38.784L8.43533 22.9496L9.01561 22.2983C11.6549 26.1168 16.0546 28.4524 20.7249 28.4524C25.48 28.4524 29.9202 26.0572 32.5439 22.1408L33.2646 22.9496L34.6925 38.784C34.7267 39.1638 35.0454 39.4487 35.4194 39.4487C35.4412 39.4487 35.4635 39.4477 35.4863 39.4456C35.8883 39.4094 36.1847 39.0544 36.1484 38.6524L34.677 22.3377L28.7762 15.7189L29.0881 15.4992L32.0092 17.1748C32.4802 17.4519 33.0797 17.354 33.4325 16.9442L34.8376 15.3225L37.5214 17.6499C37.5789 17.7017 37.6146 17.7685 37.6229 17.8322L38.282 24.0998L40.0264 29.2969C40.156 29.6783 40.571 29.8839 40.9528 29.7539C41.3352 29.6239 41.5398 29.2094 41.4098 28.827L39.7265 23.8661L39.0742 17.6685C39.0229 17.2426 38.8172 16.8494 38.4871 16.5541L35.5344 13.9936C35.3536 13.8449 35.1417 13.7801 34.9267 13.7563C34.8635 11.8331 34.4205 10.0078 33.6646 8.34931H39.2311C39.6348 8.34931 39.9617 8.02186 39.9617 7.61878C39.9617 7.21569 39.6348 6.88824 39.2311 6.88824H32.8885C30.3938 2.76825 25.8821 0 20.7238 0C15.5443 0 11.0165 2.79105 8.52807 6.93954C7.69081 7.03228 6.87324 7.31413 6.14271 7.79131ZM14.0677 14.7391L13.305 14.2019C12.9672 13.949 12.4983 13.9096 12.073 14.1231L11.96 14.1884C11.9699 11.9222 12.8496 9.86322 14.2744 8.31045L17.4939 11.5295C16.88 12.2636 16.495 13.1962 16.495 14.2267C16.495 16.309 18.0105 18.0338 19.9938 18.3825V22.9392C16.9002 22.6817 14.1874 20.8248 12.8351 18.0131L14.263 16.4121C14.4723 16.1769 14.5739 15.8624 14.5407 15.5495C14.507 15.2303 14.3392 14.9381 14.0677 14.7391ZM20.7238 16.995C19.1975 16.995 17.9556 15.7531 17.9556 14.2267C17.9556 12.7004 19.1975 11.4585 20.7238 11.4585C22.2507 11.4585 23.4921 12.7004 23.4921 14.2267C23.4921 15.7531 22.2507 16.995 20.7238 16.995ZM23.4216 10.9958C22.6874 10.3813 21.7543 9.99637 20.7238 9.99637C19.9518 9.99637 19.2368 10.2197 18.613 10.5824L15.3474 7.31672C16.8344 6.15719 18.697 5.4593 20.7238 5.4593C23.005 5.4593 25.0795 6.34268 26.6406 7.77576L23.4216 10.9958ZM20.7238 26.9919C16.4132 26.9919 12.3636 24.7713 10.0213 21.1688L11.7833 19.1923C13.576 22.419 16.9701 24.4542 20.7238 24.4542C24.5723 24.4542 28.0001 22.3496 29.7539 19.0125L31.5315 21.0067C29.2089 24.7086 25.1184 26.9919 20.7238 26.9919ZM28.4105 14.1894L27.6193 14.7479C27.3603 14.9386 27.1919 15.2308 27.1582 15.5484C27.1256 15.8614 27.2266 16.1758 27.4369 16.4121L28.6928 17.8214C27.3815 20.7461 24.6355 22.6771 21.4543 22.9382V18.3819C23.4382 18.0338 24.9531 16.3085 24.9531 14.2262C24.9531 13.4542 24.7298 12.7392 24.3671 12.116L27.6333 8.85032C28.7612 10.2974 29.4467 12.1025 29.4824 14.0671C29.1177 13.9278 28.7042 13.9687 28.4105 14.1894ZM20.7238 1.46106C27.7628 1.46106 33.489 7.18719 33.489 14.2262C33.489 14.3656 33.4853 14.5086 33.4801 14.6573L32.5092 15.7774L30.915 14.8635C30.929 14.65 30.9513 14.4402 30.9513 14.2262C30.9513 11.559 29.9166 9.13424 28.2374 7.31154C28.2224 7.29289 28.1727 7.23797 28.1613 7.2276C26.295 5.24532 23.6553 3.99876 20.7238 3.99876C18.0566 3.99876 15.6324 5.03342 13.8102 6.71209C13.7905 6.72763 13.7345 6.7784 13.7247 6.7898C11.7429 8.65655 10.4969 11.2958 10.4969 14.2262C10.4969 14.4894 10.5129 14.751 10.5352 15.0049L9.18866 15.7774L7.9623 14.3619C7.96178 14.3164 7.95919 14.2708 7.95919 14.2262C7.95919 7.18719 13.6858 1.46106 20.7238 1.46106Z" fill="white"/>
<path d="M32.4906 4.38318H39.2306C39.6342 4.38318 39.9612 4.05574 39.9612 3.65265C39.9612 3.24956 39.6342 2.92212 39.2306 2.92212H32.4906C32.0869 2.92212 31.76 3.24956 31.76 3.65265C31.76 4.05574 32.0869 4.38318 32.4906 4.38318Z" fill="white"/>
<path d="M0.730562 5.03132C0.327475 5.03132 3.05176e-05 5.35876 3.05176e-05 5.76185C3.05176e-05 6.16494 0.327475 6.49238 0.730562 6.49238H2.16002C3.87599 6.49238 5.53394 5.99034 6.94786 5.04427C7.56285 4.64274 8.26333 4.41736 8.97366 4.39249C9.37675 4.3785 9.69175 4.04018 9.67828 3.63657C9.66378 3.23348 9.32597 2.90759 8.92237 2.93195C7.94625 2.96562 6.98775 3.27286 6.14272 3.82465C4.96299 4.61372 3.58585 5.0308 2.16002 5.0308H0.730562V5.03132Z" fill="white"/>
</svg>
