<svg width="132" height="37" viewBox="0 0 132 37" fill="none" xmlns="http://www.w3.org/2000/svg">
<path fill-rule="evenodd" clip-rule="evenodd" d="M16.4771 0C7.23039 0.863772 0 8.80615 0 18.4992C0 28.217 7.23039 36.1594 16.4771 36.9984V0Z" fill="#009BFF"/>
<path fill-rule="evenodd" clip-rule="evenodd" d="M36.1021 20.1773V37C27.4062 36.2104 20.4888 29.1071 19.7199 20.1773H36.1021Z" fill="#009BFF"/>
<path fill-rule="evenodd" clip-rule="evenodd" d="M19.7921 16.8474V0C28.4641 0.814326 35.4055 7.91763 36.1744 16.8474H19.7921Z" fill="#009BFF"/>
<path d="M51.835 27V10.6426H55.2285V27H51.835ZM46.8057 13.5723V10.6426H60.2578V13.5723H46.8057ZM67.7041 27.3662C66.8089 27.3662 65.9626 27.2035 65.165 26.8779C64.3838 26.5361 63.6839 26.0723 63.0654 25.4863C62.4469 24.9004 61.9668 24.2168 61.625 23.4355C61.2832 22.638 61.1123 21.7835 61.1123 20.8721C61.1123 19.9606 61.2832 19.1143 61.625 18.333C61.9668 17.5355 62.4469 16.8438 63.0654 16.2578C63.6839 15.6556 64.3838 15.1917 65.165 14.8662C65.9626 14.5244 66.8089 14.3535 67.7041 14.3535C68.5993 14.3535 69.4456 14.5244 70.2432 14.8662C71.0407 15.1917 71.7406 15.6556 72.3428 16.2578C72.9613 16.8438 73.4414 17.5355 73.7832 18.333C74.1413 19.1143 74.3203 19.9606 74.3203 20.8721C74.3203 21.7835 74.1413 22.638 73.7832 23.4355C73.4414 24.2168 72.9613 24.9004 72.3428 25.4863C71.7406 26.0723 71.0407 26.5361 70.2432 26.8779C69.4456 27.2035 68.5993 27.3662 67.7041 27.3662ZM67.7041 24.3633C68.3063 24.3633 68.8516 24.2331 69.3398 23.9727C69.8444 23.696 70.2513 23.2972 70.5605 22.7764C70.8698 22.2393 71.0244 21.6045 71.0244 20.8721C71.0244 20.1071 70.8698 19.4642 70.5605 18.9434C70.2513 18.4225 69.8444 18.0319 69.3398 17.7715C68.8516 17.4948 68.3063 17.3564 67.7041 17.3564C67.1344 17.3564 66.5892 17.4948 66.0684 17.7715C65.5638 18.0319 65.1569 18.4225 64.8477 18.9434C64.5547 19.4642 64.4082 20.1071 64.4082 20.8721C64.4082 21.6045 64.5547 22.2393 64.8477 22.7764C65.1569 23.2972 65.5638 23.696 66.0684 23.9727C66.5892 24.2331 67.1344 24.3633 67.7041 24.3633ZM77.25 27V14.6709H80.3506V27H77.25ZM80.3506 20.1152V16.9902C80.7738 16.2578 81.2702 15.6475 81.8398 15.1592C82.4258 14.6709 83.085 14.4268 83.8174 14.4268C84.2731 14.4268 84.6719 14.5 85.0137 14.6465V18.1377C84.7695 17.9912 84.5091 17.8854 84.2324 17.8203C83.972 17.7389 83.6872 17.6982 83.3779 17.6982C82.6781 17.6982 82.084 17.9342 81.5957 18.4062C81.1237 18.862 80.7087 19.4316 80.3506 20.1152ZM92.0693 27.3662C91.0928 27.3662 90.1813 27.1139 89.335 26.6094C88.5049 26.1048 87.8294 25.3724 87.3086 24.4121C86.804 23.4518 86.5518 22.2881 86.5518 20.9209C86.5518 19.5374 86.804 18.3574 87.3086 17.3809C87.8294 16.4043 88.5212 15.6556 89.3838 15.1348C90.2627 14.6139 91.2311 14.3535 92.2891 14.3535C92.9727 14.3535 93.6481 14.5081 94.3154 14.8174C94.999 15.1266 95.5687 15.5417 96.0244 16.0625V14.6709H99.125V27H96.0244V24.9248C95.6663 25.5921 95.1455 26.1699 94.4619 26.6582C93.7783 27.1302 92.9808 27.3662 92.0693 27.3662ZM92.8506 24.2656C93.404 24.2656 93.9167 24.1191 94.3887 23.8262C94.877 23.5332 95.2757 23.1182 95.585 22.5811C95.8942 22.0439 96.0407 21.4092 96.0244 20.6768V18.9189C95.585 18.4469 95.1048 18.0726 94.584 17.7959C94.0794 17.5192 93.526 17.3809 92.9238 17.3809C92.2728 17.3809 91.7113 17.5518 91.2393 17.8936C90.7835 18.2191 90.4255 18.6504 90.165 19.1875C89.9046 19.7246 89.7744 20.3024 89.7744 20.9209C89.7744 21.5231 89.9046 22.0846 90.165 22.6055C90.4255 23.11 90.7835 23.5169 91.2393 23.8262C91.7113 24.1191 92.2484 24.2656 92.8506 24.2656ZM107.597 27.3662C106.62 27.3662 105.709 27.1139 104.862 26.6094C104.032 26.1048 103.357 25.3724 102.836 24.4121C102.331 23.4518 102.079 22.2881 102.079 20.9209C102.079 19.5374 102.331 18.3574 102.836 17.3809C103.357 16.4043 104.049 15.6556 104.911 15.1348C105.79 14.6139 106.758 14.3535 107.816 14.3535C108.5 14.3535 109.175 14.5081 109.843 14.8174C110.526 15.1266 111.096 15.5417 111.552 16.0625V9.42188H114.652V27H111.552V24.9248C111.194 25.5921 110.673 26.1699 109.989 26.6582C109.306 27.1302 108.508 27.3662 107.597 27.3662ZM108.378 24.2656C108.931 24.2656 109.444 24.1191 109.916 23.8262C110.404 23.5332 110.803 23.1182 111.112 22.5811C111.422 22.0439 111.568 21.4092 111.552 20.6768V18.9189C111.112 18.4469 110.632 18.0807 110.111 17.8203C109.607 17.5436 109.053 17.4053 108.451 17.4053C107.8 17.4053 107.239 17.5762 106.767 17.918C106.311 18.2435 105.953 18.6748 105.692 19.2119C105.432 19.7327 105.302 20.3024 105.302 20.9209C105.302 21.5231 105.432 22.0846 105.692 22.6055C105.953 23.11 106.311 23.5169 106.767 23.8262C107.239 24.1191 107.776 24.2656 108.378 24.2656ZM124.198 27.3662C123.303 27.3662 122.457 27.2035 121.659 26.8779C120.878 26.5361 120.178 26.0723 119.56 25.4863C118.941 24.9004 118.461 24.2168 118.119 23.4355C117.777 22.638 117.606 21.7835 117.606 20.8721C117.606 19.9606 117.777 19.1143 118.119 18.333C118.461 17.5355 118.941 16.8438 119.56 16.2578C120.178 15.6556 120.878 15.1917 121.659 14.8662C122.457 14.5244 123.303 14.3535 124.198 14.3535C125.093 14.3535 125.94 14.5244 126.737 14.8662C127.535 15.1917 128.235 15.6556 128.837 16.2578C129.455 16.8438 129.936 17.5355 130.277 18.333C130.635 19.1143 130.814 19.9606 130.814 20.8721C130.814 21.7835 130.635 22.638 130.277 23.4355C129.936 24.2168 129.455 24.9004 128.837 25.4863C128.235 26.0723 127.535 26.5361 126.737 26.8779C125.94 27.2035 125.093 27.3662 124.198 27.3662ZM124.198 24.3633C124.8 24.3633 125.346 24.2331 125.834 23.9727C126.339 23.696 126.745 23.2972 127.055 22.7764C127.364 22.2393 127.519 21.6045 127.519 20.8721C127.519 20.1071 127.364 19.4642 127.055 18.9434C126.745 18.4225 126.339 18.0319 125.834 17.7715C125.346 17.4948 124.8 17.3564 124.198 17.3564C123.629 17.3564 123.083 17.4948 122.562 17.7715C122.058 18.0319 121.651 18.4225 121.342 18.9434C121.049 19.4642 120.902 20.1071 120.902 20.8721C120.902 21.6045 121.049 22.2393 121.342 22.7764C121.651 23.2972 122.058 23.696 122.562 23.9727C123.083 24.2331 123.629 24.3633 124.198 24.3633Z" fill="#01113E"/>
</svg>
